<?xml version="1.0" standalone="no"?>
<!DOCTYPE svg PUBLIC "-//W3C//DTD SVG 20010904//EN"
 "http://www.w3.org/TR/2001/REC-SVG-20010904/DTD/svg10.dtd">
<svg version="1.0" xmlns="http://www.w3.org/2000/svg"
 width="1024.000000pt" height="1024.000000pt" viewBox="0 0 1024.000000 1024.000000"
 preserveAspectRatio="xMidYMid meet">

<g transform="translate(0.000000,1024.000000) scale(0.100000,-0.100000)"
fill="#000000" stroke="none">
<path d="M1700 8370 c0 -1268 -1 -1341 -17 -1347 -10 -3 -28 -15 -40 -26 -21
-18 -23 -18 -39 -3 -9 10 -23 15 -30 12 -8 -3 -21 -9 -29 -12 -8 -3 -15 -1
-15 5 0 6 -16 11 -35 11 -20 0 -35 -5 -35 -12 0 -18 -10 -3 -15 22 -6 30 -19
38 -78 46 -39 5 -47 10 -42 23 4 9 9 32 12 52 5 34 3 37 -27 48 -31 10 -32 12
-26 52 5 32 3 46 -10 60 -21 23 -61 24 -85 3 -16 -15 -21 -15 -61 1 -42 15
-44 18 -40 52 6 44 -15 63 -68 63 -20 0 -40 3 -43 6 -4 4 7 24 23 44 57 72 67
133 31 189 -14 22 -14 25 7 39 26 17 29 44 6 63 -11 9 -14 22 -9 43 19 90 18
107 -5 123 -20 14 -21 21 -15 68 6 55 -8 85 -41 85 -22 0 -86 35 -108 59 -23
25 -48 27 -87 4 -28 -16 -31 -16 -60 1 -42 25 -49 12 -8 -14 20 -12 42 -18 54
-14 59 18 66 17 98 -14 18 -17 51 -36 75 -43 l42 -12 0 -62 c0 -54 3 -65 22
-77 21 -14 22 -18 10 -50 -16 -47 -15 -79 4 -107 14 -19 14 -25 3 -32 -8 -5
-20 -9 -26 -9 -18 0 -16 -14 7 -52 26 -44 25 -84 -5 -133 -14 -22 -31 -55 -40
-72 -17 -37 -16 -37 -49 -22 -13 6 -35 9 -49 5 -32 -8 -79 -45 -71 -57 4 -6
11 -6 20 2 16 13 23 1 23 -41 0 -14 3 -43 6 -65 7 -49 -6 -67 -62 -83 -24 -7
-48 -22 -53 -33 -10 -17 -6 -26 24 -60 40 -44 45 -65 17 -74 -37 -11 -44 -31
-25 -64 10 -17 16 -32 13 -33 -2 -2 -17 -10 -34 -18 -22 -12 -31 -25 -35 -50
-5 -34 -6 -35 -60 -40 -61 -6 -47 -20 20 -20 44 0 70 20 70 54 0 16 10 27 35
39 35 17 43 38 26 66 -7 11 -2 24 15 45 30 34 26 67 -12 107 -13 14 -24 30
-24 36 0 12 23 23 50 23 11 0 31 10 46 23 l26 23 -9 93 c-10 105 -8 109 54 92
21 -6 62 -11 91 -11 l54 0 -7 -47 -6 -48 38 -13 c67 -23 92 -25 118 -8 39 25
45 20 45 -38 0 -50 2 -54 30 -66 34 -14 36 -26 15 -76 -15 -35 -12 -60 5 -49
5 3 31 0 59 -6 39 -8 51 -15 51 -29 0 -10 -4 -22 -10 -25 -5 -3 -14 -15 -20
-25 -8 -16 -5 -22 20 -37 34 -20 38 -38 14 -64 -15 -17 -15 -20 0 -43 24 -38
20 -52 -29 -87 -47 -33 -48 -36 -45 -80 l1 -26 -318 -7 c-175 -3 -340 -10
-368 -15 -27 -4 -43 -9 -33 -10 9 0 18 -5 20 -9 2 -5 147 -6 323 -2 351 8 975
-3 1125 -20 154 -17 298 -49 369 -81 129 -60 236 -143 326 -253 67 -82 62 -84
-18 -7 -109 106 -178 148 -297 182 -124 36 -217 22 -273 -41 -68 -75 -86 -214
-104 -820 -11 -381 -11 -384 47 -378 36 3 40 1 46 -25 3 -16 4 -30 2 -31 -1
-2 -46 -22 -98 -45 -103 -45 -294 -147 -387 -207 -77 -50 -238 -128 -340 -166
-95 -34 -113 -49 -45 -37 68 13 168 48 235 81 80 41 91 35 83 -47 -8 -82 -45
-185 -104 -294 -56 -105 -88 -141 -163 -187 -32 -20 -59 -38 -59 -39 0 -2 19
1 41 6 57 13 124 61 166 121 20 27 41 47 47 45 226 -89 325 -120 419 -132 63
-8 64 -10 42 -76 -21 -66 -51 -222 -80 -424 -62 -434 -96 -575 -151 -630 -65
-65 -325 -149 -609 -196 -333 -55 -322 -52 -295 -60 64 -18 301 2 487 41 53
11 97 20 98 20 1 0 5 -28 9 -62 17 -170 98 -389 159 -433 27 -19 43 -20 245
-20 213 0 218 0 273 26 31 15 65 39 76 55 87 123 120 281 139 666 l7 138 86
69 c47 39 131 106 186 151 55 44 132 107 172 140 95 80 99 81 106 28 11 -76
39 -149 65 -166 34 -22 246 -21 290 2 52 27 77 135 91 396 9 173 7 386 -4 531
l-7 85 49 11 c26 6 50 10 52 7 2 -2 7 -26 12 -54 4 -27 14 -62 21 -77 13 -27
17 -28 97 -31 138 -5 145 9 156 278 7 159 8 166 33 192 14 16 29 28 33 28 5 0
13 -18 19 -40 8 -30 17 -41 36 -46 43 -11 162 5 202 26 20 11 44 20 53 20 9 0
39 15 65 33 l49 34 -3 -81 c-4 -76 -2 -83 22 -109 14 -15 40 -30 57 -34 31 -6
31 -7 24 -47 -4 -23 -7 -63 -7 -91 1 -27 1 -73 1 -102 0 -28 5 -54 11 -58 16
-10 12 -49 -16 -126 -14 -39 -30 -110 -34 -158 -5 -47 -16 -122 -25 -166 -16
-83 -40 -594 -40 -875 0 -139 1 -148 30 -215 38 -89 40 -168 6 -234 -16 -30
-30 -90 -44 -185 -18 -123 -21 -192 -23 -541 -1 -378 -2 -402 -22 -445 -32
-72 -21 -108 51 -161 l28 -22 -26 -27 c-19 -19 -26 -36 -23 -55 3 -25 -1 -29
-47 -43 -66 -22 -135 -87 -135 -129 0 -48 37 -51 90 -8 22 18 53 27 44 13 -5
-8 0 -9 17 -4 44 14 79 18 101 12 34 -8 88 -64 88 -89 0 -21 0 -21 -17 3 -42
60 -43 60 -130 59 -46 -1 -86 -5 -89 -10 -3 -6 -22 -20 -42 -33 -40 -26 -123
-102 -138 -127 -5 -8 -39 -36 -75 -62 -36 -25 -71 -59 -79 -74 -21 -45 -26
-168 -7 -196 38 -59 208 -74 364 -32 182 48 250 93 268 176 8 37 39 62 78 65
51 4 146 43 180 74 31 27 31 29 30 116 0 51 -10 129 -22 183 -18 76 -19 96 -9
103 7 4 16 8 20 8 16 0 18 41 4 62 -22 31 -20 70 5 128 24 55 22 89 -6 162
l-19 47 27 55 c58 119 83 306 73 546 -8 190 -8 196 9 255 8 27 21 93 30 146
10 64 27 122 50 172 34 74 65 222 65 314 0 42 103 350 151 452 17 38 33 61 38
55 11 -12 37 -127 51 -229 6 -44 26 -125 45 -181 30 -88 35 -115 35 -194 0
-95 -1 -90 86 -374 40 -129 48 -214 29 -304 -9 -42 -19 -129 -22 -192 -7 -142
14 -238 84 -379 l47 -95 -32 -57 c-40 -71 -41 -107 -5 -150 18 -20 26 -41 24
-57 -1 -13 3 -37 9 -52 10 -24 9 -33 -4 -52 -22 -32 -20 -53 9 -75 l25 -18
-15 -90 c-20 -122 -20 -254 1 -283 8 -12 43 -37 77 -54 49 -25 75 -32 123 -32
69 -1 85 -11 128 -79 33 -52 76 -82 159 -112 146 -53 323 -54 427 -2 45 22 45
22 48 79 5 88 -11 131 -65 175 -25 21 -59 50 -75 65 -45 42 -171 149 -227 192
-28 22 -49 42 -46 44 3 3 13 -2 23 -11 25 -23 92 -49 108 -43 20 8 17 49 -6
78 -20 27 -48 40 -117 58 -25 6 -47 19 -54 32 -6 11 -22 30 -35 42 -30 26 -44
86 -21 86 9 0 28 11 43 23 38 33 36 76 -6 128 l-33 41 23 49 c25 53 25 61 -4
314 -9 72 -17 234 -19 360 -2 129 -9 241 -15 256 -6 15 -8 59 -5 105 4 57 1
91 -10 123 -13 37 -14 52 -2 110 20 101 35 312 36 530 1 108 4 228 8 266 l6
70 18 -60 c40 -139 112 -356 143 -430 18 -44 40 -102 50 -128 19 -55 50 -82
105 -97 34 -9 43 -8 76 14 21 14 63 30 93 37 110 22 121 47 96 213 -9 59 -16
111 -16 116 0 4 16 14 35 20 50 16 53 42 15 136 -69 171 -100 255 -100 269 0
9 -25 57 -55 107 -30 50 -55 92 -55 93 0 1 24 7 54 14 84 19 139 60 196 147
61 94 79 150 87 279 3 54 12 110 20 125 7 14 13 39 13 55 0 20 7 35 21 44 19
11 21 19 15 72 -6 64 1 72 40 45 19 -13 22 -29 28 -141 8 -157 21 -220 49
-240 16 -11 49 -15 119 -15 l97 0 16 29 c8 17 20 62 25 102 6 40 12 75 15 77
2 2 64 -5 137 -17 152 -24 418 -41 650 -41 137 0 159 -2 155 -15 -26 -66 -9
-370 33 -586 10 -57 24 -143 30 -191 6 -48 13 -96 17 -105 10 -29 92 -121 124
-140 l29 -17 0 -151 c0 -501 89 -933 219 -1063 50 -49 103 -57 391 -57 293 0
288 -1 347 97 50 83 112 350 128 551 4 48 11 87 15 87 4 0 49 -22 101 -50 52
-27 112 -56 134 -65 37 -14 38 -14 18 1 -13 9 -23 21 -23 26 0 6 8 4 17 -3 9
-8 14 -9 10 -3 -6 10 -135 90 -237 146 -25 14 -101 57 -169 97 -69 40 -155 88
-193 107 -118 59 -164 116 -201 244 -9 30 -37 165 -62 300 -75 395 -122 561
-187 664 -69 107 -159 116 -218 21 -54 -88 -72 -216 -79 -585 l-6 -315 -43 39
c-57 52 -68 75 -81 181 -7 50 -21 129 -32 177 -10 48 -19 102 -19 120 l0 31
36 -46 c20 -26 41 -47 46 -47 11 0 1 18 -46 88 -20 30 -41 72 -47 95 -12 45
-18 311 -7 322 3 4 31 -14 62 -39 31 -25 64 -50 75 -55 16 -9 19 -19 15 -73
-3 -56 -3 -59 7 -28 31 104 32 97 -24 134 -29 19 -65 48 -81 65 l-29 30 6 303
c6 319 20 546 38 613 20 72 61 145 93 164 17 10 76 35 131 57 79 30 112 49
154 89 56 53 48 38 301 560 37 77 98 194 135 260 75 135 287 466 310 485 25
21 19 43 -10 38 -14 -3 -25 -1 -25 3 0 27 223 223 384 338 65 47 67 50 37 49
-17 -1 -31 -5 -31 -10 0 -4 -7 -8 -15 -8 -46 0 -238 -143 -343 -255 -82 -88
-116 -148 -101 -178 9 -16 3 -31 -34 -86 -65 -97 -178 -285 -221 -369 -21 -39
-42 -74 -46 -77 -5 -3 -19 9 -31 27 -12 18 -34 45 -47 60 -25 28 -25 29 -9 63
13 28 15 41 6 57 -13 24 -3 87 14 90 7 0 19 1 27 2 9 1 22 24 34 62 16 52 25
63 59 82 29 16 44 19 58 12 25 -14 107 -10 120 6 16 19 -6 26 -47 15 -30 -8
-43 -7 -64 6 -26 15 -30 15 -77 -9 l-49 -24 -34 32 c-18 18 -47 36 -64 41 -40
11 -43 33 -13 115 l24 66 -39 39 c-23 23 -37 45 -33 54 3 8 28 30 56 49 49 33
76 66 65 77 -3 3 -21 -7 -40 -23 -19 -16 -53 -41 -75 -56 -23 -15 -41 -34 -41
-42 0 -8 16 -35 36 -61 l35 -47 -20 -59 c-12 -32 -21 -70 -21 -83 0 -26 33
-56 62 -56 9 0 23 -8 30 -18 7 -11 23 -24 36 -31 25 -13 26 -21 12 -71 -7 -25
-20 -41 -44 -54 -38 -20 -47 -46 -36 -106 5 -30 4 -43 -7 -52 -20 -17 -10 -76
17 -95 11 -8 20 -25 20 -37 0 -17 9 -27 30 -36 17 -7 30 -16 30 -20 0 -18
-140 -300 -149 -300 -5 0 -21 4 -36 10 -19 7 -35 6 -62 -5 -35 -15 -37 -15
-65 12 -16 15 -26 33 -24 40 3 7 -1 10 -8 7 -8 -3 -52 24 -100 60 -47 36 -90
66 -95 66 -21 0 -22 22 -3 36 22 15 75 104 68 112 -12 12 -35 -10 -41 -40 -4
-18 -19 -44 -33 -57 l-25 -23 -58 17 c-39 12 -71 15 -101 11 -41 -6 -448 11
-456 19 -2 2 4 17 13 33 17 27 17 31 1 53 -24 35 -20 51 24 94 41 40 61 47 92
33 9 -4 27 -4 40 1 18 6 30 3 54 -15 l31 -24 26 20 c14 11 30 20 36 20 6 0 11
4 11 9 0 21 -21 21 -48 2 -27 -19 -30 -19 -53 -3 -30 21 -113 24 -156 5 -32
-13 -98 -10 -107 6 -3 4 2 21 11 39 14 30 14 34 -1 51 -9 9 -16 27 -16 38 0
12 -6 23 -14 26 -22 9 -14 65 12 83 16 11 20 21 16 44 -6 27 -4 29 31 36 35 6
36 8 33 43 -3 32 0 36 23 39 16 2 32 13 39 28 7 13 19 24 27 24 7 0 13 4 13 9
0 14 43 25 118 29 28 2 32 5 32 32 0 48 58 88 86 60 6 -6 30 -13 54 -16 24 -3
46 -6 49 -7 3 -1 18 7 33 17 30 20 43 16 51 -14 4 -17 -5 -29 -44 -57 -54 -38
-56 -48 -33 -116 15 -45 15 -48 -5 -73 -25 -32 -26 -52 -5 -83 15 -21 15 -70
-1 -113 -8 -21 10 -40 46 -47 31 -6 35 -11 39 -46 l5 -40 50 -1 c49 -1 49 -1
60 -42 14 -58 50 -84 108 -76 40 6 46 4 52 -15 6 -21 55 -61 74 -61 7 0 25 9
40 21 27 20 30 20 55 4 24 -16 28 -16 65 2 22 10 41 21 41 26 0 12 -55 8 -68
-5 -9 -9 -15 -9 -24 0 -17 17 -59 15 -86 -3 -28 -20 -55 -7 -78 37 -15 29 -18
30 -60 24 -55 -7 -94 14 -94 51 0 47 -17 63 -65 63 -45 0 -45 0 -45 35 0 38
-20 55 -64 55 -30 0 -30 3 -14 64 10 39 10 48 -5 64 -22 24 -21 37 4 79 20 33
21 36 5 76 -9 24 -16 50 -16 58 0 8 27 35 60 60 32 24 59 47 60 50 0 4 -9 9
-19 12 -17 4 -18 9 -10 48 13 57 40 84 95 98 55 14 60 35 6 26 -28 -4 -42 -2
-51 9 -19 23 -9 51 19 54 33 5 47 17 55 50 8 31 21 42 53 42 22 0 22 3 16 52
l-7 51 57 -7 c39 -4 56 -3 56 5 0 8 19 9 65 4 36 -3 65 -3 65 2 0 4 18 28 40
51 22 24 40 48 40 54 0 17 93 2 141 -22 35 -18 46 -20 64 -10 12 7 38 15 56
19 33 6 34 9 37 58 3 47 6 54 38 73 34 21 37 29 49 102 4 27 16 45 46 69 22
17 57 57 77 87 31 46 44 58 78 67 22 5 55 22 73 38 25 20 44 27 79 28 l47 2
-52 10 c-51 9 -53 9 -88 -22 -20 -17 -47 -31 -61 -31 -39 0 -62 -17 -98 -73
-19 -29 -52 -65 -74 -82 -47 -35 -62 -62 -62 -111 0 -29 -6 -38 -35 -55 -35
-21 -42 -35 -47 -94 -3 -25 -9 -31 -50 -44 -42 -13 -50 -12 -85 4 -21 10 -61
20 -88 23 l-50 4 -49 -61 -49 -60 -57 6 c-34 3 -60 2 -63 -5 -4 -5 -26 -7 -52
-4 -61 6 -79 -9 -72 -64 4 -39 3 -42 -23 -48 -21 -4 -30 -13 -35 -35 -5 -24
-15 -33 -48 -44 -36 -12 -42 -18 -45 -45 -2 -17 1 -39 7 -50 7 -14 5 -21 -9
-30 -11 -6 -24 -30 -30 -52 -9 -33 -15 -40 -35 -40 -13 0 -30 -7 -39 -15 -19
-20 -50 -19 -109 2 -39 14 -52 15 -67 5 -20 -12 -20 -3 -22 650 l-3 663 -28 3
c-18 2 -29 -2 -33 -13 -6 -14 -9 -14 -23 -1 -9 7 -96 53 -193 101 -97 47 -182
93 -189 101 -7 9 -38 29 -70 44 l-56 29 -22 -20 c-11 -11 -21 -24 -21 -29 0
-15 114 -71 140 -68 16 1 101 -37 228 -102 l202 -103 -2 -676 -3 -676 -25 -1
c-43 -1 -47 -3 -99 -44 -28 -22 -55 -40 -60 -40 -15 0 -33 -38 -29 -63 2 -17
-3 -23 -24 -25 -37 -4 -52 -25 -39 -51 9 -16 8 -22 -8 -31 -16 -8 -21 -6 -24
8 -3 9 -4 1 -4 -18 2 -34 1 -35 -45 -40 -29 -4 -56 -14 -70 -28 -19 -17 -31
-20 -59 -16 -32 5 -39 3 -58 -25 -12 -17 -30 -31 -40 -31 -25 0 -41 -20 -41
-52 0 -19 -10 -37 -27 -53 -27 -23 -27 -25 -13 -51 19 -35 60 -63 60 -42 0 8
-11 21 -25 28 -28 15 -35 60 -10 60 19 0 36 41 28 69 -4 17 0 22 25 27 16 3
39 19 51 34 17 24 25 27 48 21 22 -7 40 -2 82 22 30 17 51 25 47 19 -5 -8 2
-10 24 -6 30 6 35 1 31 -33 -1 -6 3 -14 9 -18 5 -3 10 -17 10 -31 0 -13 4 -24
9 -24 16 0 -1 -40 -25 -59 -13 -10 -24 -25 -24 -33 0 -8 -13 -25 -29 -37 -38
-30 -49 -102 -20 -142 10 -15 19 -30 19 -33 0 -3 -35 -6 -77 -6 -43 0 -154 -5
-248 -12 -93 -6 -186 -11 -205 -10 -72 4 -117 -8 -158 -43 -40 -35 -41 -35
-137 -35 -61 0 -94 -4 -90 -10 3 -5 45 -10 91 -10 64 0 85 -3 82 -12 -5 -14
-78 -25 -173 -27 -33 -1 -67 -5 -75 -10 -22 -15 -28 -5 -21 35 7 40 31 60 31
25 0 -12 6 -21 14 -21 19 0 29 17 16 25 -30 18 1 25 115 25 69 0 125 4 125 9
0 14 -117 24 -230 19 -55 -2 -100 0 -100 4 0 9 -65 10 -97 2 -12 -3 -25 -15
-28 -25 -7 -21 -31 -26 -37 -7 -6 16 -168 20 -165 4 3 -18 20 -26 55 -26 l32
0 -30 -61 c-28 -55 -33 -60 -48 -46 -9 7 -25 17 -36 21 -15 5 -16 9 -6 21 13
16 45 21 36 6 -4 -5 3 -7 14 -4 11 3 20 14 20 24 0 24 -51 26 -92 5 -31 -17
-32 -17 -19 18 8 18 15 23 33 20 22 -4 22 -4 -2 7 -39 18 -71 17 -120 -3 -31
-13 -46 -16 -48 -8 -2 6 -27 39 -56 72 -28 33 -61 76 -73 96 -26 43 -32 47
-117 66 -38 9 -102 30 -143 46 -40 16 -104 35 -140 40 -87 14 -97 20 -79 45
12 17 16 17 30 6 14 -12 20 -11 40 8 20 19 24 20 36 6 18 -22 26 -19 45 21 15
33 18 34 34 20 21 -19 41 -21 41 -3 -1 6 -5 31 -9 54 -5 23 -6 45 -3 47 2 3
18 -2 34 -10 17 -9 33 -13 36 -9 5 5 -7 106 -25 213 -3 22 2 47 17 79 31 66
38 145 15 179 -19 29 -17 51 14 134 25 67 27 147 4 195 -9 19 -15 36 -12 38 2
2 25 16 52 31 26 15 47 31 47 35 0 5 -32 19 -70 30 l-70 22 42 55 c47 62 45
69 -29 80 -45 7 -50 15 -33 58 9 25 7 26 -48 42 -31 9 -88 25 -127 36 -38 10
-82 28 -96 38 -45 32 -177 63 -241 56 -72 -7 -351 -99 -400 -131 -20 -14 -49
-45 -64 -70 -18 -32 -41 -53 -73 -70 -83 -42 -138 -109 -157 -193 -15 -64 -18
-102 -6 -102 4 1 25 26 46 56 22 30 41 52 43 50 3 -2 -7 -27 -21 -55 -39 -75
-33 -175 17 -293 13 -31 13 -39 1 -55 -8 -10 -13 -43 -14 -77 0 -52 5 -69 40
-128 l41 -68 -35 -82 -34 -83 24 -3 c12 -2 33 2 45 8 21 12 21 11 14 -36 -4
-27 -11 -57 -16 -66 -15 -28 -11 -41 11 -34 11 3 28 9 38 12 16 5 18 1 14 -27
-5 -35 -2 -35 55 7 40 30 43 30 43 0 0 -33 17 -42 40 -21 18 16 20 16 26 1 3
-9 15 -16 26 -16 13 0 18 -6 16 -17 -4 -21 -79 -51 -173 -69 -38 -7 -113 -33
-166 -58 -52 -24 -111 -47 -131 -51 -53 -10 -96 -40 -115 -81 -18 -36 -18 -36
-68 -30 -114 14 -142 16 -110 7 17 -4 48 -16 70 -26 22 -10 49 -17 60 -16 19
3 18 2 -3 -17 -13 -11 -27 -33 -32 -49 l-8 -28 -1 26 c-2 53 -18 61 -132 63
-84 1 -104 4 -104 16 0 8 17 20 40 27 l40 13 -45 -5 c-25 -4 -49 -10 -54 -16
-6 -5 -23 -9 -38 -9 -17 0 -28 -5 -28 -14 0 -29 -24 -34 -135 -26 -60 4 -111
12 -113 18 -1 5 -14 7 -27 4 -14 -2 -22 -8 -20 -13 3 -4 12 -6 21 -2 9 3 14 0
12 -8 -2 -11 15 -15 75 -17 68 -2 78 -5 75 -20 -5 -25 -142 -30 -169 -6 -11 9
-19 23 -19 29 0 9 -17 12 -55 10 -38 -1 -55 1 -52 9 2 7 23 10 53 8 57 -3 44
13 -19 24 -31 5 -43 2 -62 -16 -16 -15 -33 -20 -55 -18 l-32 3 1 679 c2 662 4
706 31 706 16 0 103 41 98 46 -3 2 -31 -5 -63 -17 -53 -20 -59 -20 -67 -5 -5
9 -16 16 -23 16 -13 0 -15 -96 -15 -710 l0 -709 -90 0 c-83 0 -107 7 -79 25 6
3 8 17 4 31 -4 17 0 29 14 41 26 22 40 92 19 92 -19 0 -48 32 -48 52 0 9 -24
28 -56 44 -30 15 -57 31 -60 35 -2 4 0 19 6 34 7 18 7 32 1 39 -6 7 -6 18 -1
25 10 17 2 39 -23 66 -11 11 -26 30 -34 43 -15 21 -14 25 8 50 23 25 22 25 -8
-2 -31 -28 -34 -28 -51 -13 -10 9 -26 17 -36 17 -20 0 -36 38 -36 89 0 33 -4
39 -35 54 -19 9 -35 21 -35 27 0 5 -12 10 -28 10 -25 0 -27 3 -28 40 -2 49
-27 80 -66 80 l-28 0 0 540 c0 356 3 540 10 540 6 0 20 11 32 25 21 25 45 35
32 14 -4 -8 0 -8 15 0 11 7 21 14 21 17 0 3 -5 2 -12 -2 -7 -4 -8 -3 -4 4 4 6
13 9 21 5 8 -3 15 0 15 6 0 6 9 11 19 11 11 0 52 15 93 34 48 23 82 33 99 29
15 -3 30 0 34 7 4 7 1 10 -10 8 -11 -2 -19 4 -20 15 -2 9 0 17 4 17 12 0 47
29 35 30 -7 0 -35 -16 -63 -35 -28 -19 -53 -35 -56 -35 -8 0 -104 -42 -183
-81 -56 -28 -75 -33 -79 -23 -8 22 -60 17 -66 -6 -3 -10 -6 -248 -6 -527 -1
-279 -4 -510 -7 -513 -3 -3 -12 4 -20 14 -8 11 -14 14 -14 8 0 -7 9 -21 20
-32 11 -11 20 -28 20 -39 0 -27 26 -45 69 -47 53 -2 73 -16 73 -50 1 -63 7
-74 39 -74 18 0 32 -6 36 -16 3 -8 11 -13 18 -10 15 5 36 -32 34 -59 -2 -11 1
-35 5 -52 7 -27 14 -34 43 -39 19 -4 37 -13 40 -20 3 -8 11 -14 18 -14 7 0 18
-13 25 -30 7 -18 20 -30 31 -30 15 0 17 -8 15 -57 -1 -32 -6 -66 -10 -76 -6
-12 -3 -24 8 -35 14 -17 14 -20 -1 -35 -11 -11 -13 -17 -5 -17 7 0 21 9 32 20
19 19 20 19 54 -3 19 -12 37 -32 40 -43 3 -12 17 -29 31 -38 31 -21 31 -31 -1
-73 -14 -18 -22 -38 -19 -43 4 -6 1 -23 -6 -39 -12 -28 -14 -28 -122 -35 -109
-6 -111 -6 -137 19 -31 30 -51 34 -25 5 27 -30 15 -32 -20 -4 l-30 24 38 36
c20 19 37 42 37 51 0 9 8 21 17 28 15 11 15 17 5 39 -7 15 -12 35 -12 45 0 26
-37 58 -51 44 -8 -8 -5 -13 9 -17 27 -9 42 -95 18 -108 -9 -5 -16 -17 -16 -28
0 -32 -11 -50 -31 -50 -12 0 -19 -7 -19 -20 0 -11 -3 -20 -8 -20 -4 0 -41 28
-82 63 -42 34 -97 73 -123 87 -26 14 -47 28 -47 32 0 4 9 13 21 22 29 20 20
47 -18 60 -34 12 -65 36 -46 36 5 0 23 18 38 40 l28 40 -22 24 c-12 13 -26 40
-32 60 -11 40 -37 56 -89 56 -16 0 -35 6 -42 13 -7 8 -25 17 -40 20 -21 6 -27
14 -30 40 -4 42 -54 69 -115 62 -28 -3 -45 0 -53 10 -25 30 -68 43 -126 39
-40 -3 -62 0 -73 10 -28 25 -70 37 -92 26 -19 -11 -19 9 -21 1311 -2 1047 -6
1323 -15 1327 -10 3 -13 -308 -13 -1530 0 -844 -3 -1537 -6 -1541 -3 -3 -12
-3 -20 0 -12 4 -14 230 -14 1547 0 1370 -1 1541 -15 1544 -13 3 -15 -144 -15
-1338z m5803 367 c43 -20 48 -37 11 -37 -40 0 -106 40 -93 56 6 8 17 10 27 5
9 -4 34 -15 55 -24z m494 -504 c-3 -10 -5 -2 -5 17 0 19 2 27 5 18 2 -10 2
-26 0 -35z m-5410 -730 c-1 -136 -2 -27 -2 242 0 270 1 381 2 248 2 -133 2
-353 0 -490z m5410 555 c-3 -8 -6 -5 -6 6 -1 11 2 17 5 13 3 -3 4 -12 1 -19z
m-2752 -9 l40 -12 -30 -10 c-35 -12 -105 -57 -89 -57 7 0 30 7 52 14 42 15
170 19 191 6 7 -3 -13 -12 -44 -19 -30 -7 -55 -17 -55 -22 0 -5 11 -6 28 -2
15 5 65 8 112 8 102 0 150 -22 150 -66 0 -15 -6 -29 -12 -32 -24 -8 3 -21 44
-22 80 0 48 -36 -46 -50 -25 -4 -49 -11 -52 -16 -8 -13 46 -10 91 6 l40 14
-32 -28 c-18 -15 -33 -30 -33 -34 0 -3 27 -16 60 -28 65 -24 69 -30 21 -32
-17 -1 -31 -5 -31 -9 1 -4 12 -31 25 -60 18 -39 25 -70 25 -116 0 -40 -4 -61
-10 -57 -5 3 -10 17 -10 31 0 13 -4 24 -10 24 -13 0 -13 -39 1 -79 6 -18 9
-35 5 -38 -3 -3 -8 3 -12 13 -23 72 -28 71 -34 -11 -3 -50 -12 -89 -22 -104
-16 -22 -16 -21 -11 39 6 61 -12 145 -28 134 -4 -2 -6 -12 -3 -22 3 -9 -3 -1
-14 18 -11 19 -22 56 -25 83 -6 44 -5 47 16 47 21 1 22 1 3 15 -11 8 -31 15
-45 16 -24 0 -24 1 -6 9 14 6 15 9 5 10 -11 0 -8 6 9 21 34 28 20 34 -28 10
-51 -27 -76 -27 -33 -1 55 33 35 41 -25 9 -49 -26 -65 -29 -122 -27 -46 2 -65
7 -63 16 1 7 -9 12 -24 12 l-26 0 23 20 c22 17 22 19 5 20 -11 0 -50 -32 -91
-76 l-73 -75 16 55 c8 31 13 58 10 62 -7 6 -68 -27 -122 -67 -46 -34 -61 -37
-46 -10 5 11 7 22 3 24 -26 15 -123 -70 -152 -133 -9 -19 -23 -35 -31 -35 -27
0 -49 -62 -43 -118 5 -37 3 -48 -5 -43 -8 5 -12 -2 -12 -21 l-1 -28 -19 24
c-24 28 -26 79 -4 140 21 61 9 65 -16 5 -41 -98 -36 -93 -49 -61 -6 16 -11 44
-11 63 0 50 -20 42 -21 -8 l-1 -43 -13 30 c-24 51 -19 155 11 232 14 38 32 81
40 97 8 16 13 31 10 33 -7 7 -48 -17 -80 -46 l-28 -26 16 33 c9 18 36 46 59
64 48 35 181 100 245 119 23 7 42 15 42 20 0 12 -73 4 -106 -12 -30 -16 -31
-16 -20 7 15 31 80 72 146 90 30 8 98 28 150 44 103 31 163 36 225 19z m2752
-261 c-3 -7 -5 -2 -5 12 0 14 2 19 5 13 2 -7 2 -19 0 -25z m0 -215 c-2 -16 -4
-3 -4 27 0 30 2 43 4 28 2 -16 2 -40 0 -55z m-2753 22 c27 -8 88 -15 135 -15
47 0 92 -4 98 -8 7 -5 18 -35 24 -67 6 -33 23 -82 37 -110 25 -46 27 -59 27
-165 -1 -96 -6 -131 -29 -210 -16 -52 -40 -119 -54 -148 -53 -110 -241 -243
-342 -242 -105 1 -294 129 -360 245 -58 102 -94 279 -69 342 7 15 11 45 10 65
-1 26 11 61 38 117 49 97 61 106 61 49 l0 -43 41 48 c36 41 146 127 164 127 3
0 3 -29 0 -65 -3 -36 -4 -65 -2 -65 2 0 34 36 73 80 38 44 76 80 84 80 8 0 37
-7 64 -15z m-374 -65 c-6 -11 -13 -20 -16 -20 -2 0 0 9 6 20 6 11 13 20 16 20
2 0 0 -9 -6 -20z m3127 -92 c-2 -13 -4 -3 -4 22 0 25 2 35 4 23 2 -13 2 -33 0
-45z m-3274 -53 c-3 -9 -8 -14 -10 -11 -3 3 -2 9 2 15 9 16 15 13 8 -4z m3274
-102 c-3 -10 -5 -2 -5 17 0 19 2 27 5 18 2 -10 2 -26 0 -35z m-2313 -49 c24
-63 -15 -183 -82 -251 -51 -52 -71 -40 -44 27 3 8 6 20 7 25 2 16 26 57 31 52
3 -2 0 -16 -5 -31 -12 -29 -9 -31 20 -16 24 14 24 46 -1 88 -27 43 -25 60 7
94 30 31 58 36 67 12z m-1066 -14 c32 -20 53 -55 51 -88 0 -13 -2 -13 -9 4
-12 29 -81 87 -91 77 -5 -5 -6 -25 -2 -44 l7 -34 6 28 c5 26 6 27 28 12 28
-20 28 -38 1 -75 -21 -28 -21 -30 -5 -54 20 -32 29 -33 21 -3 -5 19 -2 17 24
-10 17 -18 35 -33 41 -33 14 0 30 -43 20 -54 -28 -29 -129 58 -154 132 -26 75
-17 162 17 162 7 0 27 -9 45 -20z m3379 -32 c-3 -8 -6 -5 -6 6 -1 11 2 17 5
13 3 -3 4 -12 1 -19z m-3311 -124 c8 -20 13 -38 11 -40 -8 -8 -59 55 -53 65
13 20 27 11 42 -25z m-2791 -53 c35 -26 45 -28 95 -24 50 5 59 3 88 -22 25
-21 40 -26 65 -22 51 8 107 -13 113 -43 10 -45 13 -50 33 -50 11 0 25 -9 31
-20 8 -16 21 -20 60 -20 51 0 80 -17 80 -48 0 -9 9 -32 20 -49 l20 -33 -45 0
c-25 0 -45 -4 -45 -10 0 -5 11 -10 24 -10 34 0 41 -16 14 -34 -31 -22 -15 -47
41 -64 l41 -14 -24 -19 c-24 -19 -25 -19 -103 5 -124 39 -217 55 -383 67 -85
6 -170 13 -187 15 l-33 5 0 199 c0 179 2 200 18 209 26 16 35 13 77 -18z
m-197 -198 l-3 -188 -160 0 -159 0 -7 33 c-4 21 -3 32 5 32 6 0 28 11 49 25
30 21 37 32 37 58 0 18 -6 42 -14 53 -12 17 -12 22 0 39 20 27 17 53 -6 67
-28 18 -25 25 16 44 34 16 39 16 64 2 25 -14 29 -14 43 0 14 13 17 13 32 -2
21 -21 31 -20 55 4 11 11 27 20 35 20 13 0 15 -25 13 -187z m3948 122 c18 -45
18 -66 -1 -41 -14 18 -15 18 -15 2 0 -9 5 -26 11 -38 14 -27 4 -35 -19 -15
-23 21 -32 21 -32 3 0 -8 -5 -27 -11 -43 -8 -21 -12 -24 -19 -13 -6 10 -13 3
-27 -28 -20 -48 -28 -52 -37 -19 -6 21 -7 21 -20 4 -14 -18 -15 -17 -21 3 -4
11 -1 27 5 35 6 8 26 41 44 74 24 46 43 66 77 85 24 14 45 25 47 25 2 1 10
-15 18 -34z m-990 -6 c3 -6 21 -9 40 -7 30 4 34 0 51 -36 9 -21 30 -56 45 -77
31 -43 33 -51 16 -78 -11 -18 -13 -17 -39 12 -31 34 -33 33 -48 -3 l-10 -25
-1 25 c0 14 -5 32 -10 40 -7 12 -11 10 -18 -10 -9 -25 -9 -25 -16 8 -4 17 -12
32 -17 32 -5 0 -9 14 -9 30 0 33 -11 38 -30 15 -25 -30 -28 -14 -8 35 20 48
39 62 54 39z m283 -248 c76 -60 178 -98 234 -87 33 6 158 80 165 98 12 27 17
-5 14 -93 -3 -65 0 -105 7 -112 8 -8 11 2 11 36 0 26 4 47 8 47 12 0 52 -39
52 -51 0 -50 -101 -178 -173 -219 -47 -27 -60 -30 -142 -30 -67 0 -101 5 -132
20 -80 36 -183 152 -183 205 0 17 37 54 54 55 5 0 6 -20 4 -45 -3 -25 -2 -48
2 -50 13 -8 31 98 30 172 -2 100 -5 97 49 54z m2759 -90 c9 -5 25 -12 35 -15
18 -6 17 -7 -2 -32 -25 -31 -27 -61 -6 -91 13 -18 13 -22 0 -33 -8 -7 -15 -21
-15 -31 0 -16 -8 -19 -46 -19 -41 0 -46 3 -55 30 -6 17 -15 30 -20 30 -5 0 -6
19 -3 43 5 29 15 49 35 65 16 13 29 32 29 43 0 20 20 25 48 10z m-2154 -93 c8
-75 8 -603 -1 -594 -5 4 -11 141 -15 304 -3 163 -10 307 -13 320 -5 16 -3 22
7 22 11 0 17 -16 22 -52z m210 -22 l39 -7 -6 -87 c-4 -48 -11 -161 -17 -252
-9 -144 -36 -299 -54 -317 -3 -3 -35 7 -71 23 l-65 29 -4 315 c-2 173 -7 325
-11 338 l-8 23 79 -29 c44 -16 97 -32 118 -36z m-287 -6 c-7 -55 -46 -142 -87
-192 -63 -76 -194 -117 -312 -98 -77 12 -189 66 -242 117 -37 35 -86 121 -86
153 0 12 -2 13 -9 1 -11 -17 9 -70 51 -131 65 -98 210 -165 358 -165 74 0 92
4 140 29 72 37 101 65 158 154 67 104 64 63 -4 -55 -103 -178 -176 -340 -134
-297 5 5 49 87 98 182 73 141 90 169 96 150 3 -13 6 -97 6 -187 0 -90 5 -192
11 -226 12 -60 11 -62 -15 -88 -28 -28 -28 -27 -27 -187 1 -41 1 -92 1 -114
-1 -26 9 -53 30 -86 32 -50 46 -60 84 -60 12 0 49 -23 81 -50 65 -55 60 -43
129 -275 20 -66 46 -151 57 -189 15 -49 33 -81 61 -112 39 -42 40 -47 35 -92
-7 -61 -26 -102 -47 -102 -9 0 -68 -17 -131 -39 -85 -28 -141 -40 -210 -46
-52 -3 -143 -15 -204 -26 -238 -42 -258 -44 -387 -31 -94 8 -168 24 -313 65
-104 30 -192 50 -194 45 -5 -14 2 -18 55 -33 27 -7 121 -34 209 -60 206 -60
282 -66 495 -36 448 63 502 73 608 112 61 22 66 23 56 8 -12 -21 -147 -77
-274 -114 -69 -20 -165 -50 -215 -65 -129 -41 -205 -54 -291 -47 -160 12 -712
168 -738 209 -13 21 4 92 39 160 23 47 24 48 4 58 -27 15 -24 41 12 86 53 66
100 172 123 278 l23 101 41 -85 c68 -142 114 -212 165 -246 47 -33 160 -64
226 -64 51 1 22 15 -59 30 -36 6 -93 24 -127 40 -53 24 -68 38 -100 87 -60 95
-131 245 -138 294 -6 41 -3 50 32 102 25 37 49 60 69 67 48 16 74 50 74 96 0
21 1 71 1 109 1 108 -14 195 -36 214 -18 14 -20 27 -17 117 2 55 -3 175 -12
268 -9 92 -16 188 -16 214 1 43 4 49 37 70 38 24 63 23 63 -3 0 -33 51 -114
100 -158 82 -74 129 -92 240 -92 84 0 101 3 145 27 78 41 146 121 180 211 23
62 39 61 32 -3z m-829 -42 c-6 -32 -6 -60 1 -79 13 -39 37 -446 28 -481 -18
-69 -37 -8 -62 192 -8 63 -15 183 -15 266 0 147 1 151 23 161 30 14 36 1 25
-59z m-72 -176 c0 -172 4 -224 22 -307 12 -54 20 -100 19 -101 -8 -7 -120 -54
-127 -54 -6 0 -10 6 -10 14 0 8 -9 36 -21 63 -24 56 -86 362 -91 446 l-3 58
105 44 c58 24 105 44 105 45 0 0 0 -93 1 -208z m1281 91 c-17 -296 -44 -465
-78 -483 -10 -6 -19 -9 -19 -8 0 2 7 26 16 53 16 53 38 247 50 433 5 90 10
112 22 112 13 0 14 -16 9 -107z m-3413 39 c2 -4 -11 -6 -30 -4 -19 2 -34 6
-34 8 0 8 59 4 64 -4z m3494 -46 c45 -54 133 -208 166 -290 12 -30 35 -70 50
-90 32 -43 49 -82 66 -155 9 -38 24 -67 51 -96 21 -23 45 -57 53 -76 8 -19 24
-43 35 -53 12 -11 21 -22 21 -26 0 -8 -118 -49 -175 -61 -22 -4 -53 -11 -70
-14 l-30 -6 41 38 c22 21 47 47 55 57 13 18 13 19 -11 6 -14 -7 -47 -30 -73
-51 l-49 -38 -41 16 c-23 9 -45 19 -50 23 -4 3 29 21 72 38 70 29 120 62 94
62 -13 0 -175 -70 -190 -82 -28 -23 -43 -1 -43 60 0 33 -6 78 -14 100 -13 36
-13 42 1 53 8 7 31 45 51 83 32 64 36 81 40 169 3 60 1 97 -6 97 -5 0 -12 -39
-14 -87 -5 -77 -10 -99 -46 -173 -40 -83 -56 -86 -28 -5 22 65 29 105 17 105
-6 0 -11 -10 -12 -22 0 -13 -11 -50 -23 -83 -24 -60 -24 -60 -35 -32 -14 37
-13 69 4 142 8 33 20 147 27 253 6 106 15 191 19 190 4 -2 25 -25 47 -52z
m-3535 -141 c72 -142 116 -240 177 -400 15 -38 31 -78 35 -87 6 -16 0 -18 -61
-18 -163 0 -214 -50 -239 -232 -5 -38 -10 -48 -25 -48 -15 0 -23 13 -35 58
-31 109 -88 277 -103 304 -14 24 -14 47 -4 205 20 293 42 352 137 373 17 4 33
4 36 1 4 -3 41 -73 82 -156z m130 133 c53 -23 83 -58 144 -163 23 -38 53 -90
67 -115 84 -144 199 -411 183 -426 -2 -3 -38 7 -79 20 -41 14 -100 28 -131 32
-31 4 -61 12 -65 18 -5 6 -26 58 -47 116 -49 135 -152 363 -210 462 -25 43
-45 80 -45 84 0 13 136 -8 183 -28z m1807 -16 c0 -99 61 -378 106 -484 26 -61
23 -103 -4 -53 -59 114 -139 462 -125 548 7 46 23 39 23 -11z m3575 18 c263
-11 357 -25 418 -66 46 -30 55 -27 26 9 -29 38 -6 34 38 -6 21 -19 60 -48 86
-66 27 -18 47 -34 45 -36 -2 -2 -21 0 -43 5 -150 33 -901 42 -1234 15 -150
-12 -186 -18 -196 -32 -20 -27 -35 -167 -35 -331 0 -151 0 -153 25 -176 14
-13 38 -26 53 -30 75 -16 401 -28 784 -29 l428 0 -30 -21 c-38 -27 -77 -106
-97 -202 l-17 -74 -359 0 c-198 0 -358 -2 -355 -6 3 -3 166 -5 362 -6 l356 -1
-1 -56 c-1 -52 -1 -54 -10 -23 -13 45 -46 59 -99 43 -68 -20 -74 -82 -15 -130
41 -31 99 -14 108 32 2 12 5 -2 6 -32 l1 -54 -202 7 c-112 3 -247 9 -300 13
-115 7 -115 7 -68 -87 72 -143 129 -212 190 -231 19 -7 41 -16 48 -22 8 -6 79
-13 163 -15 142 -4 149 -5 149 -25 0 -20 -3 -20 -207 -13 -115 4 -218 9 -230
13 -13 3 -23 1 -23 -5 0 -14 86 -21 282 -24 93 -2 169 -6 169 -10 7 -32 4 -32
-209 -29 -118 1 -226 7 -242 11 -16 4 -65 44 -110 88 -94 92 -107 100 -262
147 -149 46 -152 46 -144 -5 11 -71 50 -145 82 -157 89 -34 207 -54 258 -43
24 5 10 9 -68 19 -131 17 -192 36 -212 66 -17 26 -46 116 -40 122 9 9 242 -59
282 -82 23 -14 73 -56 111 -94 48 -49 80 -72 108 -80 23 -6 128 -11 243 -11
186 0 202 -1 202 -17 0 -17 -15 -18 -227 -11 -272 7 -570 34 -648 57 -84 25
-102 46 -135 171 -12 42 -18 57 -16 35 16 -125 65 -202 141 -224 93 -27 354
-50 733 -67 139 -6 152 -8 152 -25 0 -17 -9 -19 -89 -19 -131 0 -425 18 -596
37 -82 9 -195 17 -250 17 -177 2 -186 19 -225 422 -11 111 -24 212 -30 225 -9
21 -10 19 -5 -11 3 -19 12 -111 21 -205 18 -205 39 -337 61 -387 13 -31 25
-41 67 -57 l51 -19 -3 -44 c-6 -79 -21 -118 -50 -129 -24 -10 -147 -7 -157 3
-2 2 0 35 5 73 24 182 2 681 -32 751 -42 87 -60 6 -56 -246 2 -130 0 -196 -7
-192 -11 6 -27 26 -67 84 -25 36 -27 37 -31 16 -2 -13 -5 -4 -6 20 -1 38 1 42
17 33 9 -5 27 -19 40 -31 13 -12 26 -20 28 -17 3 3 -15 21 -40 42 -25 20 -48
46 -52 58 -3 12 -17 38 -30 58 -26 38 -36 85 -55 262 -6 59 -17 134 -24 165
-10 43 -11 76 -4 137 6 44 11 81 13 82 1 2 18 -6 38 -16 20 -10 70 -24 112
-31 60 -10 79 -18 91 -36 16 -25 49 -31 74 -15 10 7 16 46 22 148 7 136 11
175 29 323 21 169 21 169 -5 186 -18 11 -36 14 -67 9 l-43 -6 33 30 c18 17 41
31 51 31 32 0 50 11 44 26 -4 10 3 14 26 14 25 0 32 -5 37 -27 19 -90 40 -103
37 -25 -2 42 1 47 20 49 49 4 397 20 472 21 44 1 188 -3 320 -8z m-5245 -49
c19 -14 42 -33 50 -41 9 -8 34 -30 56 -49 106 -91 125 -112 226 -251 13 -19
67 -102 118 -185 51 -82 103 -166 115 -186 56 -87 65 -118 96 -334 60 -425 73
-543 59 -565 -4 -6 -10 26 -13 72 -7 91 -29 179 -51 197 -33 28 -66 -53 -91
-224 -8 -55 -23 -221 -35 -370 -29 -366 -42 -455 -69 -455 -11 0 -167 -116
-216 -161 -73 -66 -510 -409 -518 -406 -10 3 -17 84 -9 104 2 7 20 23 40 35
21 12 89 63 152 112 100 79 187 149 487 394 35 28 69 52 74 52 5 0 9 5 9 10 0
12 -71 -22 -113 -54 -15 -12 -56 -43 -90 -71 -34 -27 -96 -77 -137 -110 -41
-33 -140 -114 -220 -181 -150 -124 -189 -154 -202 -154 -5 0 -8 73 -8 163 0
396 -41 635 -124 735 -54 63 -109 35 -166 -84 l-29 -61 -63 9 c-78 10 -179 38
-283 79 -44 17 -94 35 -111 41 l-31 10 38 93 c21 51 45 119 54 151 18 69 20
175 3 192 -6 6 -10 13 -7 15 58 44 523 287 548 287 4 0 13 -22 20 -49 22 -87
18 -87 181 -20 80 33 178 73 218 90 40 16 94 40 120 53 26 13 59 24 73 24 33
-1 99 21 99 32 0 4 7 11 16 14 9 4 13 2 8 -5 -4 -8 0 -7 15 0 27 15 28 35 1
28 -11 -3 -31 3 -46 15 -35 28 -70 12 -79 -36 -5 -27 -12 -35 -33 -39 -15 -3
-94 -33 -177 -67 -82 -35 -197 -82 -255 -106 l-105 -42 -26 76 c-14 43 -29 84
-33 93 -5 12 11 23 81 53 80 35 100 39 218 47 229 15 403 63 450 124 34 46 43
116 21 170 -15 35 -15 40 -1 47 8 5 15 18 15 30 0 22 -105 250 -150 328 -88
150 -169 282 -200 325 -36 50 -31 51 30 6z m3472 -27 c-6 -41 -9 -42 -46 -30
-44 13 -47 26 -6 26 21 0 30 5 30 16 0 9 6 14 13 11 6 -2 11 -13 9 -23z
m-1843 -76 c6 -40 25 -125 41 -188 16 -63 25 -116 21 -118 -13 -5 4 -67 29
-104 l23 -33 -36 36 c-38 39 -78 110 -97 177 -7 23 -17 42 -22 42 -5 0 -7 -8
-4 -17 3 -10 9 -36 15 -58 6 -22 31 -76 56 -120 35 -61 45 -86 40 -105 -4 -14
-9 -51 -12 -82 -3 -32 -9 -58 -13 -58 -5 0 -29 25 -54 56 -46 56 -59 58 -31 5
14 -28 63 -75 86 -83 15 -5 2 -48 -15 -48 -18 0 -173 76 -180 89 -4 6 -14 11
-23 11 -43 0 73 -85 150 -109 21 -7 34 -17 31 -23 -10 -15 -94 -3 -154 23 -28
12 -53 19 -56 17 -7 -8 59 -47 114 -68 46 -18 46 -18 19 -25 -17 -5 -63 1
-121 15 -96 22 -127 23 -133 4 -2 -7 30 -15 84 -23 116 -16 133 -20 133 -30 0
-13 -84 -23 -133 -16 -34 5 -55 1 -101 -19 -70 -31 -66 -31 -66 -6 0 10 16 32
35 47 38 30 44 43 20 43 -24 0 -18 16 21 49 41 37 54 71 47 132 -4 40 0 50 38
101 41 56 58 61 59 18 1 -18 28 -56 35 -49 2 3 -4 29 -15 57 -26 69 -25 136 4
224 47 143 131 322 146 313 4 -2 12 -37 19 -77z m2251 62 c0 -17 -102 -240
-110 -240 -4 0 -13 13 -20 29 -6 16 -23 39 -36 52 -22 21 -24 29 -19 83 l5 61
-16 -55 c-19 -65 -19 -66 -39 -50 -18 15 -11 52 16 91 17 24 25 26 91 28 40 1
74 4 77 6 9 9 51 5 51 -5z m-3117 -40 c-6 -19 -12 -43 -13 -54 0 -17 -6 -18
-82 -12 -46 4 -164 9 -263 11 l-180 5 -32 37 c-23 27 -28 40 -20 46 7 4 145 6
307 5 l296 -3 -13 -35z m715 28 c25 -25 12 -33 -53 -33 -43 0 -66 4 -70 13 -3
8 -29 12 -80 12 -43 0 -75 4 -75 10 0 15 263 13 278 -2z m-576 -25 c35 -15 46
-39 13 -26 -8 3 -27 2 -41 -1 -26 -7 -26 -9 -21 -69 2 -34 13 -114 22 -177 11
-70 19 -176 19 -272 1 -104 4 -153 11 -147 6 6 9 82 8 192 -1 150 -6 204 -27
311 -14 71 -23 133 -19 138 8 15 97 -169 127 -265 23 -71 25 -87 15 -117 -7
-19 -14 -41 -16 -49 -3 -11 -7 -10 -19 5 -15 19 -15 19 -9 -1 18 -51 18 -54
-3 -48 -16 4 -22 15 -25 47 -2 22 -4 5 -5 -39 -2 -75 8 -118 24 -103 4 4 18
-1 32 -12 27 -22 39 -19 52 14 6 17 22 25 67 35 32 7 77 24 101 37 36 21 42
30 42 57 -1 39 -21 67 -62 87 -17 8 -32 23 -34 32 -1 9 -31 74 -67 143 -58
111 -63 126 -44 121 12 -3 72 -6 134 -6 l111 0 7 -30 c14 -66 22 -185 12 -197
-6 -8 -34 -13 -73 -13 -36 0 -64 -4 -64 -10 0 -15 133 -12 154 3 16 12 17 20
6 97 -15 115 -27 157 -47 164 -9 4 -76 6 -147 5 -123 -1 -131 0 -148 21 -10
12 -18 26 -18 31 0 12 311 11 330 -1 8 -5 20 -37 26 -72 19 -103 45 -202 56
-213 15 -15 4 55 -25 160 -14 50 -22 95 -19 100 4 6 10 -9 14 -32 7 -45 32
-124 49 -154 15 -29 -15 -184 -45 -228 -53 -79 -67 -114 -60 -159 4 -27 2 -47
-6 -57 -23 -28 -30 -15 -31 53 0 37 -4 76 -9 87 -11 25 -13 15 -11 -65 2 -73
-18 -178 -44 -228 -14 -27 -18 -64 -19 -187 l-2 -153 -42 -46 c-23 -25 -44
-46 -46 -46 -2 0 -6 64 -9 143 -5 132 -18 207 -37 207 -13 0 -30 -26 -36 -58
-4 -18 -10 -32 -14 -32 -5 0 -31 28 -60 63 -28 34 -62 69 -76 78 l-24 16 56
69 c31 38 63 70 70 72 8 2 14 10 14 18 0 23 -36 -8 -100 -87 -49 -60 -62 -69
-119 -88 -48 -15 -67 -18 -72 -9 -4 6 -13 49 -19 95 -9 62 -20 96 -45 137
l-32 54 91 7 c50 4 106 13 124 21 57 23 59 52 31 324 -16 162 -18 170 -41 170
-17 0 -19 4 -14 26 4 15 10 40 13 56 5 28 8 29 42 24 20 -4 53 -14 73 -23z
m2975 -80 c-48 -133 -53 -153 -34 -153 10 0 19 16 26 48 14 69 51 162 62 162
6 0 8 -8 4 -19 -16 -51 -35 -162 -35 -206 0 -28 -5 -56 -12 -63 -9 -9 -7 -12
10 -12 19 0 21 5 19 38 l-2 37 63 3 c37 2 62 -1 62 -7 0 -22 -103 -181 -117
-181 -2 0 -20 17 -40 38 -32 33 -35 34 -28 12 3 -14 14 -36 24 -50 9 -14 25
-44 35 -67 16 -35 16 -46 6 -78 -7 -20 -10 -56 -7 -79 5 -36 3 -33 -13 19 -17
52 -80 293 -96 365 -5 22 -3 21 15 -7 11 -18 29 -33 38 -33 13 0 7 11 -23 39
l-40 38 38 99 c51 132 68 168 75 161 3 -4 -11 -50 -30 -104z m234 -35 l-58
-112 -64 3 c-35 1 -65 4 -66 5 -2 1 5 47 15 102 l18 99 54 6 c30 3 79 6 107 7
l53 2 -59 -112z m135 84 c-34 -68 -107 -247 -133 -326 -12 -38 -33 -46 -33
-13 0 62 62 217 122 305 16 23 27 46 24 50 -2 4 4 9 15 9 17 2 18 0 5 -25z
m-700 -34 c118 -58 189 -114 211 -166 19 -46 10 -51 -16 -9 -26 43 -91 95 -91
73 0 -8 11 -28 25 -44 32 -38 137 -261 154 -327 7 -27 26 -88 42 -134 53 -150
69 -246 69 -406 0 -121 -2 -145 -15 -145 -8 0 -18 12 -21 28 -4 15 -17 48 -30
74 -25 49 -24 53 9 127 22 52 15 93 -28 151 -21 29 -25 44 -25 109 0 86 -26
198 -65 286 -14 33 -40 94 -56 136 -16 41 -45 94 -64 116 -33 39 -211 161
-227 156 -4 -2 -5 4 -2 12 4 8 10 15 15 15 5 0 56 -24 115 -52z m664 48 c0 -2
-8 -10 -17 -17 -16 -13 -17 -12 -4 4 13 16 21 21 21 13z m30 -124 c-23 -59
-50 -138 -60 -176 -16 -66 -40 -101 -40 -59 0 41 131 375 138 353 2 -6 -15
-59 -38 -118z m-2760 103 c13 -16 10 -48 -10 -99 l-11 -30 -23 50 c-13 27 -30
55 -39 63 -27 22 -20 31 27 31 27 0 48 -6 56 -15z m3685 -10 c0 -17 -8 -21
-49 -25 -52 -5 -74 -25 -63 -54 10 -26 52 -36 156 -36 103 0 121 7 121 46 0
29 -14 38 -75 44 -43 4 -50 8 -53 29 l-4 24 159 -7 c185 -8 422 -24 476 -32
27 -4 45 -15 65 -41 15 -19 53 -67 84 -106 l57 -70 -45 -89 c-40 -79 -51 -93
-101 -124 -30 -20 -81 -48 -112 -63 l-56 -26 -595 1 c-610 1 -703 6 -741 40
-24 22 -25 102 -3 316 17 155 17 156 43 161 69 14 456 34 636 33 93 -1 100 -2
100 -21z m-3760 -56 c19 -33 35 -68 35 -77 -1 -9 -7 -3 -14 14 -8 18 -19 35
-25 38 -6 4 -11 15 -11 25 0 10 -9 26 -20 36 -11 10 -20 22 -20 27 0 19 21 -5
55 -63z m2897 -86 c-12 -70 -24 -157 -27 -193 -9 -92 -33 -162 -53 -158 -13 2
-19 21 -26 71 -8 61 -6 79 18 165 42 147 87 265 99 253 6 -6 2 -56 -11 -138z
m-3372 128 c0 -5 18 -31 40 -57 44 -53 101 -194 99 -247 l-1 -32 -9 30 c-40
121 -78 208 -111 258 -21 31 -34 57 -28 57 5 0 10 -4 10 -9z m5049 -85 c39
-49 71 -94 71 -99 0 -14 -118 131 -137 168 -19 38 -20 38 66 -69z m-5223 49
c39 -7 41 -19 50 -235 5 -127 3 -158 -8 -174 -12 -16 -36 -21 -132 -29 -135
-11 -114 -23 -200 118 -30 50 -77 124 -105 165 l-50 75 27 15 27 15 -37 3
c-28 2 -43 11 -58 32 -11 15 -20 30 -20 32 0 5 470 -11 506 -17z m2769 -45
c91 -60 122 -105 200 -293 33 -82 89 -286 80 -295 -8 -9 -54 51 -60 79 -4 16
-10 31 -15 34 -4 3 -22 29 -38 58 -16 28 -44 65 -61 81 -23 23 -34 46 -47 103
-12 57 -25 84 -55 120 -21 26 -39 53 -39 59 0 7 -14 38 -31 70 -28 54 -29 57
-7 38 13 -12 46 -36 73 -54z m1783 33 c5 -36 -26 -44 -134 -37 -96 7 -113 15
-101 47 4 11 32 14 119 13 108 -1 113 -2 116 -23z m778 -1 l21 -17 -19 -44
-20 -44 -34 39 c-40 46 -41 57 -11 72 31 15 39 14 63 -6z m-1950 -24 c-26 -41
-69 -161 -75 -213 -6 -47 -7 -49 -19 -27 -12 20 -9 31 17 90 16 37 41 94 55
126 15 32 29 57 32 53 3 -3 -1 -16 -10 -29z m-3016 -251 c0 -5 -4 -5 -10 -2
-5 3 -10 14 -10 23 0 15 2 15 10 2 5 -8 10 -19 10 -23z m2900 -2 c0 -8 -8 -19
-17 -25 -16 -10 -16 -10 2 -6 48 12 147 9 155 -5 12 -19 24 -115 16 -128 -4
-6 -23 -2 -52 10 -24 11 -72 25 -106 30 -34 6 -65 12 -70 15 -15 10 -8 51 12
69 11 10 20 23 20 30 0 15 21 35 32 29 4 -3 8 -11 8 -19z m-1052 -4 c20 -10
52 -22 70 -26 21 -4 45 -22 69 -50 21 -26 41 -41 50 -38 12 5 11 8 -2 23 -8 9
-15 21 -15 26 0 5 -14 22 -31 37 -17 14 -28 31 -24 36 10 17 35 1 52 -33 8
-17 27 -43 41 -58 25 -27 25 -29 19 -150 -5 -103 -4 -118 6 -94 l13 29 32 -37
c22 -25 32 -47 32 -69 -1 -53 -17 -109 -39 -131 -20 -19 -22 -19 -48 -4 -16 9
-53 23 -84 32 -46 14 -69 29 -122 81 -46 46 -72 65 -90 65 -30 0 -59 26 -55
49 2 12 18 17 58 21 62 6 58 15 -12 25 -32 5 -48 12 -51 25 -9 33 10 45 67 45
62 0 77 19 19 23 -63 4 -81 11 -88 33 -12 37 11 49 96 49 44 0 79 4 79 9 0 13
-37 21 -98 21 -63 0 -77 18 -42 56 28 29 49 30 98 5z m-938 -21 c11 -11 20
-26 20 -33 0 -16 -51 -33 -127 -43 -29 -4 -53 -10 -53 -15 0 -16 46 -21 101
-11 34 6 60 7 71 1 18 -10 35 -55 25 -65 -3 -3 -39 -8 -81 -11 -91 -7 -102
-25 -13 -23 86 2 85 2 92 -20 10 -31 -12 -50 -55 -50 -44 0 -72 -9 -65 -20 2
-4 27 -5 55 -2 40 4 51 1 56 -12 9 -23 -24 -56 -56 -56 -21 0 -37 -13 -72 -57
-52 -68 -141 -126 -176 -116 -51 13 -82 131 -53 200 14 34 31 35 31 2 0 -10 4
-19 9 -19 5 0 2 30 -6 68 -7 37 -15 89 -16 115 -2 44 1 51 33 77 19 16 51 37
70 45 19 9 57 27 85 41 60 29 98 31 125 4z m-817 -31 c20 -25 22 -52 5 -67
-14 -10 -100 -29 -158 -34 l-35 -3 -3 49 c-5 75 14 90 103 83 55 -5 74 -11 88
-28z m-1718 -111 c10 -40 28 -97 41 -126 13 -29 26 -68 30 -87 5 -30 4 -35
-13 -35 -23 0 -36 23 -58 100 -16 55 -33 220 -23 220 3 0 14 -33 23 -72z
m4620 0 c14 -15 -82 0 -117 18 -16 8 -28 16 -28 18 0 8 135 -25 145 -36z
m-4027 -14 c150 -29 202 -69 202 -158 0 -104 -76 -141 -349 -172 -164 -18
-215 -18 -231 1 -11 13 -5 15 49 15 75 0 80 15 9 24 -29 4 -61 14 -70 23 -45
40 1 243 60 269 52 23 207 22 330 -2z m882 16 c0 -5 -5 -10 -11 -10 -5 0 -7 5
-4 10 3 6 8 10 11 10 2 0 4 -4 4 -10z m3275 -51 c12 -19 -5 -23 -22 -6 -16 16
-16 17 -1 17 9 0 20 -5 23 -11z m-499 -110 c19 -11 34 -22 34 -23 0 -2 -23 1
-51 5 -28 5 -54 8 -58 7 -3 0 -17 0 -31 1 -25 2 -25 2 5 16 42 19 63 18 101
-6z m-391 -22 c106 -42 219 -61 227 -37 2 5 27 -11 57 -36 29 -24 56 -43 58
-40 9 8 -29 55 -60 75 -26 17 -28 21 -12 21 34 0 103 -37 121 -64 13 -21 15
-41 11 -99 -3 -39 -9 -83 -13 -97 -5 -20 -4 -23 6 -13 7 7 19 41 25 75 14 74
1 125 -43 172 -15 16 -22 27 -17 24 41 -16 63 -34 85 -66 23 -34 25 -46 25
-147 0 -147 -10 -164 -124 -210 l-83 -34 -47 23 c-57 29 -192 125 -248 177
-24 22 -49 39 -57 39 -13 0 -12 6 4 33 10 17 24 61 30 95 10 57 9 68 -9 104
-17 34 -17 39 -3 32 10 -3 40 -16 67 -27z m-3881 -12 c3 -8 1 -15 -4 -15 -6 0
-10 7 -10 15 0 8 2 15 4 15 2 0 6 -7 10 -15z m2184 -72 c4 -55 42 -125 76
-142 16 -7 24 -16 19 -20 -17 -12 -51 -66 -114 -185 -85 -162 -101 -178 -202
-211 l-82 -26 -41 43 c-34 36 -47 63 -77 159 -21 65 -37 135 -37 162 0 42 5
53 42 93 51 55 84 73 129 71 l34 -2 -35 -36 c-20 -21 -48 -62 -64 -92 -31 -61
-46 -137 -27 -137 6 0 11 9 11 21 0 28 39 117 68 156 23 31 106 93 124 93 5 0
-6 -16 -24 -36 -35 -38 -46 -58 -47 -86 -1 -30 14 -20 28 17 6 19 32 52 57 72
25 21 68 57 95 81 27 23 53 42 57 42 4 0 9 -17 10 -37z m1257 27 c8 -13 -5
-13 -25 0 -13 8 -13 10 2 10 9 0 20 -4 23 -10z m-3351 -52 c-5 -8 -2 -9 11 -4
11 4 22 1 27 -6 6 -10 12 -9 23 6 12 16 17 17 31 5 15 -12 15 -14 -7 -20 -37
-11 -87 -10 -94 1 -6 10 1 30 11 30 3 0 2 -5 -2 -12z m1264 -97 c-7 -70 -43
-137 -80 -150 -17 -6 -32 -10 -33 -9 -2 2 -8 27 -14 56 -13 64 -14 119 -2 126
18 11 116 34 125 29 4 -3 6 -26 4 -52z m56 22 c8 -16 35 -49 61 -75 l48 -47
-11 -108 c-7 -59 -17 -175 -23 -256 -15 -183 -24 -204 -96 -228 -29 -10 -73
-21 -98 -25 l-45 -6 0 49 c0 48 1 49 32 51 103 8 137 107 67 191 -14 18 -29
24 -54 23 -39 -2 -40 0 -49 146 l-5 83 29 6 c53 10 90 74 115 196 3 15 7 27
10 27 2 0 11 -12 19 -27z m-659 -33 c8 -13 -13 -40 -31 -40 -14 0 -19 31 -7
43 10 10 31 8 38 -3z m2905 -14 c0 -8 13 -56 29 -107 25 -82 47 -139 115 -301
31 -72 6 -37 -44 61 -63 126 -141 385 -111 366 6 -3 11 -12 11 -19z m-3595 -6
c3 -5 1 -10 -4 -10 -6 0 -11 5 -11 10 0 6 2 10 4 10 3 0 8 -4 11 -10z m2331
-115 c-24 -112 -64 -217 -100 -260 -17 -20 -17 -20 -10 5 3 14 17 43 30 65 21
37 53 147 69 240 7 42 24 80 31 72 3 -2 -7 -57 -20 -122z m3588 100 c18 -27
21 -80 6 -90 -10 -6 -14 6 -11 37 1 9 -5 30 -14 45 -9 15 -14 20 -11 10 18
-58 18 -67 2 -61 -21 8 -34 -25 -15 -37 11 -7 11 -9 -3 -9 -9 0 -26 16 -38 36
-19 29 -21 40 -11 60 6 13 15 24 21 24 13 0 13 -6 -1 -29 -8 -12 -9 -23 -1
-36 9 -17 11 -14 21 20 5 21 8 42 5 47 -13 21 36 5 50 -17z m-3629 -42 c-14
-89 -36 -194 -45 -215 l-9 -23 0 24 c-1 29 29 232 35 243 14 22 24 4 19 -29z
m1528 -50 c51 -42 101 -86 112 -97 19 -19 20 -36 23 -325 2 -191 0 -307 -7
-314 -10 -10 -54 121 -101 308 -16 61 -50 189 -75 285 -58 213 -59 220 -50
220 3 0 48 -35 98 -77z m-2307 -58 c7 -33 19 -313 13 -309 -3 2 -9 56 -13 121
-4 65 -11 136 -15 158 -8 36 -9 33 -9 -30 -1 -38 3 -108 8 -155 4 -49 4 -89
-1 -94 -10 -11 -11 -8 -14 87 -1 37 -6 71 -10 75 -4 4 -5 -78 -1 -183 6 -175
13 -242 32 -319 9 -37 -6 -46 -83 -46 -76 0 -86 9 -102 91 -14 70 -10 78 47
94 30 9 39 18 48 46 13 37 44 315 44 387 0 24 5 64 12 89 10 43 12 45 25 27 8
-10 16 -28 19 -39z m2804 -45 c17 -41 7 -48 -19 -12 -19 27 -19 42 -1 42 4 0
13 -14 20 -30z m386 -70 c-2 -30 -7 -73 -10 -95 l-6 -40 15 40 c13 37 14 19
10 -204 -4 -221 -7 -263 -19 -250 -2 2 -6 81 -9 174 -3 94 -3 161 0 150 10
-40 23 -39 22 1 0 36 -16 92 -19 69 -1 -5 -5 0 -10 12 -5 13 -5 59 0 110 5 48
10 99 10 113 l1 25 10 -25 c6 -14 8 -50 5 -80z m-3077 -22 c-24 -21 -39 -38
-32 -38 7 0 28 14 48 31 52 46 42 16 -15 -43 -27 -28 -50 -48 -50 -42 0 5 -5
2 -10 -6 -7 -11 -10 -4 -10 26 0 35 7 47 53 95 44 46 53 51 56 34 2 -14 -11
-32 -40 -57z m2708 2 c85 -69 105 -90 86 -90 -14 1 -186 144 -191 159 -7 21 6
12 105 -69z m1396 55 c215 -12 218 -12 92 -14 -133 -1 -331 15 -375 30 -18 6
-13 7 18 3 24 -3 144 -12 265 -19z m-1707 -2 c15 -9 44 -16 70 -15 29 0 44 -4
44 -13 0 -7 8 -19 17 -26 15 -13 16 -11 10 18 -8 43 7 50 39 18 36 -36 210
-165 223 -165 5 0 15 9 21 20 10 18 3 29 -51 86 -59 61 -61 64 -28 50 19 -8
47 -33 65 -59 30 -43 31 -49 40 -203 18 -323 9 -427 -52 -546 -27 -54 -82
-120 -94 -113 -4 3 -40 9 -80 15 -43 6 -106 25 -156 47 -81 36 -84 39 -104 89
-25 61 -26 83 -11 241 7 69 11 220 9 348 -2 124 1 225 5 225 4 0 19 -7 33 -17z
m1577 -128 c4 -24 3 -34 -2 -25 -5 8 -12 42 -15 75 -6 64 6 30 17 -50z m-1099
0 c10 -22 20 -58 23 -80 3 -22 12 -60 20 -83 16 -49 10 -70 -8 -26 -6 16 -17
40 -24 54 -7 14 -15 49 -18 78 -4 30 -18 74 -32 99 -14 25 -25 48 -25 50 0 14
50 -58 64 -92z m1394 75 l52 0 0 -47 c0 -27 -3 -65 -6 -85 l-7 -38 -106 0
c-58 0 -123 3 -143 6 l-37 6 -6 73 c-4 41 -4 79 0 86 6 9 33 10 104 5 53 -3
120 -6 149 -6z m-3808 -80 l-7 -65 -2 52 c-1 45 7 89 14 81 2 -2 -1 -32 -5
-68z m-356 -14 c24 -25 42 -46 41 -48 -2 -2 -22 -2 -43 0 -35 3 -40 8 -50 40
-10 31 -9 52 3 52 3 0 24 -20 49 -44z m-481 -15 c40 -15 64 -115 34 -140 -8
-6 -28 -14 -45 -17 -29 -6 -31 -4 -34 27 -5 52 3 139 12 139 5 0 20 -4 33 -9z
m824 -73 c-3 -7 -5 -2 -5 12 0 14 2 19 5 13 2 -7 2 -19 0 -25z m-556 -253 c-7
-30 -9 -5 -6 100 2 77 5 142 6 145 9 14 8 -211 0 -245z m-24 168 c-3 -10 -5
-2 -5 17 0 19 2 27 5 18 2 -10 2 -26 0 -35z m-388 -27 c18 -41 31 -113 46
-248 7 -60 -6 -100 -41 -129 -16 -13 -17 -12 -11 11 32 128 32 252 1 294 -17
24 -30 15 -16 -11 6 -10 12 -62 13 -115 4 -84 2 -100 -14 -115 -18 -17 -19
-14 -15 109 2 71 0 124 -4 120 -19 -19 -37 -234 -36 -427 1 -110 3 -161 5
-112 3 65 7 87 18 87 7 0 16 6 19 13 3 6 3 -1 0 -18 -4 -22 -3 -26 4 -15 13
20 27 140 14 122 -7 -11 -11 -9 -15 8 -4 14 -11 21 -20 17 -10 -4 -13 1 -9 19
4 22 22 35 22 17 0 -5 4 -14 9 -21 7 -12 14 -11 40 2 17 9 31 22 31 29 0 8 4
7 10 -3 5 -8 10 -45 10 -82 l0 -66 -31 15 c-40 20 -45 12 -14 -21 15 -16 25
-40 26 -59 1 -31 1 -31 10 -7 5 15 7 -39 4 -140 -7 -219 -39 -376 -84 -399
-30 -17 -246 -14 -260 3 -13 15 -51 158 -51 191 0 16 28 45 97 101 94 76 98
81 110 134 6 30 17 113 23 185 36 423 45 505 62 538 14 27 27 20 47 -27z
m3416 -38 c5 -33 4 -48 -4 -48 -6 0 -11 17 -11 38 0 20 -3 48 -6 62 -4 19 -3
21 4 10 6 -8 13 -36 17 -62z m-720 -149 c37 -65 44 -83 34 -91 -27 -17 -51
-30 -52 -26 -1 2 -10 12 -20 24 -32 38 -45 174 -17 174 4 0 29 -37 55 -81z
m-115 -17 l0 -39 -117 -38 c-285 -92 -464 -127 -638 -126 -66 1 -136 6 -155
11 -19 6 -89 15 -155 20 -184 16 -439 79 -441 110 0 27 19 60 35 60 9 0 70
-18 136 -40 106 -35 287 -84 470 -126 33 -7 101 -14 150 -14 79 0 105 5 210
41 66 22 148 47 183 55 64 15 128 38 211 76 56 25 105 47 109 48 1 0 2 -17 2
-38z m58 -103 c14 -27 19 -53 16 -77 l-4 -37 19 41 c17 37 66 84 88 84 18 0
61 -47 71 -77 15 -46 -3 -42 -28 6 -11 22 -24 43 -30 46 -16 10 -59 -22 -78
-57 -36 -64 -36 -64 -70 0 -31 58 -39 92 -25 105 13 13 21 6 41 -34z m-78 -4
c0 -14 6 -42 14 -62 8 -21 17 -57 19 -80 l5 -43 -39 0 c-44 0 -103 21 -132 48
-20 17 -61 101 -53 109 8 9 171 59 179 56 4 -2 7 -15 7 -28z m2579 -108 c-17
-56 -34 -97 -36 -90 -6 16 35 184 49 201 24 28 20 -9 -13 -111z m-4007 73 c-2
-7 3 -17 10 -21 11 -7 11 -9 0 -9 -19 0 -44 28 -37 40 9 15 31 6 27 -10z m114
-16 c30 -8 54 -17 54 -20 0 -2 -18 -13 -41 -24 -49 -25 -189 -37 -189 -16 0
24 22 34 61 29 22 -3 39 -2 38 3 -4 22 2 44 12 44 6 0 35 -7 65 -16z m1115
-21 c18 -57 86 -118 147 -132 28 -7 61 -10 74 -6 21 5 21 5 4 -6 -12 -8 -41
-10 -84 -6 -63 6 -103 24 -130 56 -20 24 -52 94 -52 114 0 31 28 18 41 -20z
m419 23 c0 -20 -13 -27 -30 -15 -12 7 -12 9 3 9 10 0 15 5 12 10 -3 6 -1 10 4
10 6 0 11 -6 11 -14z m-471 -39 c12 -49 60 -115 99 -137 18 -9 57 -15 113 -15
l86 0 7 -74 c19 -226 -3 -1040 -33 -1230 -6 -41 -5 -63 6 -89 11 -26 12 -56 7
-129 -5 -65 -3 -106 5 -131 9 -28 10 -52 3 -92 -8 -42 -7 -72 5 -125 10 -49
16 -161 19 -375 5 -304 5 -305 -19 -375 -24 -69 -19 -99 10 -59 13 17 14 17
28 -2 56 -70 37 -94 -75 -94 -42 0 -99 -7 -126 -16 -66 -21 -193 -34 -222 -23
-17 6 -22 15 -20 32 2 18 8 21 31 19 24 -3 28 0 25 19 -2 15 -14 26 -37 34
-36 12 -71 48 -71 72 0 9 16 41 35 73 42 69 44 101 10 151 -14 20 -42 83 -62
140 -35 100 -37 110 -38 239 0 114 3 145 22 200 12 36 23 79 25 95 3 29 4 29
26 -19 20 -45 23 -68 26 -245 4 -196 19 -318 53 -427 17 -56 48 -103 59 -91 4
4 0 15 -8 24 -45 52 -80 266 -83 508 l-3 190 -56 111 c-75 150 -156 395 -156
473 0 32 5 72 11 89 9 26 7 43 -9 94 -30 93 -89 313 -107 396 -21 100 -18 144
4 56 10 -39 33 -104 53 -145 57 -120 251 -349 275 -326 3 4 -22 35 -56 69 -86
86 -179 211 -212 283 -33 74 -61 175 -47 175 5 0 41 -18 79 -41 39 -23 79 -39
92 -37 17 2 7 12 -48 42 -38 21 -95 57 -125 80 l-55 41 40 7 c22 4 66 7 97 7
31 1 69 6 85 12 15 6 50 16 77 23 27 6 51 16 53 22 3 8 -15 7 -59 -3 -94 -21
-272 -42 -282 -33 -12 12 39 60 63 60 29 0 88 55 100 93 20 63 42 194 49 292
l7 99 40 8 c22 3 67 16 100 26 33 11 63 20 66 21 4 1 12 -18 18 -42z m425 -75
c-1 -2 -9 9 -17 24 l-14 27 -5 -26 c-6 -32 0 -38 95 -88 39 -21 65 -39 56 -39
-22 0 -150 71 -162 90 -7 11 -2 31 14 65 l23 50 7 -50 c3 -27 5 -52 3 -53z
m-1385 72 c-17 -20 -67 -46 -82 -41 -13 4 61 57 82 57 11 0 11 -3 0 -16z m276
-24 c22 -5 92 -10 157 -10 l116 0 7 -60 c10 -88 -13 -339 -35 -380 -10 -19
-11 -19 -63 0 -113 41 -408 131 -419 128 -10 -4 149 -68 280 -114 28 -10 52
-21 52 -24 0 -4 -46 -5 -102 -2 -68 3 -100 1 -93 -6 10 -10 186 -32 255 -32
33 0 40 -4 40 -19 0 -20 4 -19 -185 -58 -44 -9 -84 -20 -90 -25 -19 -17 83 -7
170 16 50 13 91 23 92 22 1 -1 -14 -40 -34 -86 -48 -117 -121 -319 -148 -415
-51 -178 -106 -318 -143 -364 -61 -76 -65 -79 -146 -117 -50 -23 -75 -39 -69
-45 13 -13 147 54 184 92 16 16 37 44 46 62 l18 32 5 -45 c3 -25 0 -70 -7
-100 -7 -30 -20 -98 -28 -150 -15 -92 -32 -170 -76 -350 -17 -73 -19 -96 -11
-162 10 -79 10 -82 -38 -348 -12 -64 -5 -126 22 -194 l19 -48 -25 -53 c-24
-54 -50 -75 -109 -89 -52 -12 -164 -8 -227 10 -49 14 -66 15 -81 6 -15 -10
-23 -8 -39 8 -31 31 -35 65 -12 95 38 48 44 116 31 337 -12 218 -7 381 16 524
8 49 15 127 15 173 0 75 4 91 38 165 l39 82 -24 80 c-31 104 -47 342 -39 569
13 371 26 579 40 662 8 49 17 113 21 143 l6 55 62 1 c183 2 205 5 239 30 31
22 39 24 133 19 55 -3 118 -10 140 -15z m419 -122 c-18 -191 -32 -262 -56
-288 -22 -23 -87 -55 -95 -46 -3 2 2 26 11 53 25 74 37 199 30 295 -4 48 -6
91 -6 95 1 8 54 19 103 22 l25 1 -12 -132z m779 101 c27 -12 53 -57 40 -70
-14 -13 -81 21 -87 43 -9 38 5 46 47 27z m2517 -11 c12 -13 30 -42 40 -66 22
-50 80 -277 110 -437 12 -60 30 -153 41 -206 11 -53 19 -100 18 -105 -3 -12
69 -162 82 -169 18 -11 9 -25 -16 -25 -14 0 -25 -4 -25 -10 0 -5 15 -10 32
-10 18 0 56 -12 85 -27 50 -27 53 -30 53 -67 0 -104 -25 -336 -50 -471 -33
-177 -52 -249 -88 -329 l-26 -59 -120 7 c-82 5 -132 12 -156 24 -99 48 -195
359 -220 712 -27 395 0 827 67 1050 31 104 46 136 86 178 36 38 58 40 87 10z
m-6476 -49 c60 -47 126 -241 157 -459 22 -150 19 -689 -4 -859 -27 -196 -65
-302 -120 -335 -16 -9 -23 -5 -48 24 -79 93 -130 341 -149 720 l-9 175 4 -210
c4 -242 26 -403 76 -559 24 -74 41 -108 68 -137 36 -38 37 -38 14 -48 -29 -13
-190 -34 -208 -27 -8 3 -15 12 -15 21 0 12 12 15 55 15 30 0 55 5 55 10 0 12
-37 13 -104 4 -45 -7 -47 -8 -41 -35 5 -24 4 -27 -14 -22 -11 3 -27 16 -36 29
-8 13 -22 24 -30 24 -18 0 -18 -5 -4 -32 6 -11 9 -22 6 -24 -10 -10 -53 19
-69 47 -9 16 -22 29 -28 29 -13 0 -13 -27 0 -35 6 -3 10 -12 10 -20 0 -19 -70
-2 -88 22 -47 62 -108 272 -114 392 l-3 64 102 42 c122 50 192 94 214 132 30
51 58 159 83 330 75 493 102 637 127 686 32 61 67 72 113 36z m3885 -50 c40
-10 56 -20 72 -45 26 -42 92 -238 114 -339 10 -44 33 -141 51 -215 18 -74 38
-173 45 -218 13 -93 8 -277 -9 -294 -15 -15 -62 11 -88 49 -20 31 -47 128 -93
338 -18 83 -62 419 -77 596 -5 53 -12 83 -26 100 l-20 24 6 -25 c7 -26 12 -74
46 -390 12 -107 30 -235 41 -284 11 -49 18 -94 16 -99 -6 -20 -109 296 -142
438 -8 33 -19 119 -25 190 -5 72 -13 157 -16 190 l-6 60 29 -31 c19 -20 47
-36 82 -45z m337 -54 c21 -4 46 -11 54 -15 19 -11 -11 -18 -93 -24 -58 -4 -59
-4 -88 37 -45 62 -38 72 29 38 32 -16 76 -33 98 -36z m-159 -23 c17 -26 59
-96 93 -155 49 -87 59 -111 49 -123 -24 -29 -48 -16 -78 44 -15 31 -49 97 -75
146 -44 86 -53 115 -39 129 12 12 18 8 50 -41z m258 8 c-3 -5 -10 -10 -16 -10
-5 0 -9 5 -9 10 0 6 7 10 16 10 8 0 12 -4 9 -10z m-148 -83 c50 -75 93 -153
93 -169 0 -11 -8 -18 -20 -18 -11 0 -20 7 -20 16 0 8 -23 58 -51 110 -32 60
-46 94 -37 94 7 0 23 -15 35 -33z m-52 -262 c42 -215 42 -263 0 -78 -15 65
-30 123 -32 128 -2 6 3 1 12 -10 9 -11 18 -29 20 -40z m172 15 c13 -20 11 -24
-31 -39 -17 -7 -26 -7 -26 -1 0 6 6 10 14 10 7 0 19 7 26 15 9 10 9 15 1 15
-6 0 -11 5 -11 10 0 16 14 11 27 -10z m-39 -2 c-6 -18 -25 -20 -31 -3 -5 10 0
15 14 15 12 0 19 -5 17 -12z m-59 -221 c33 -169 41 -230 41 -322 0 -118 -4
-145 -24 -145 -8 0 -10 32 -8 110 2 66 -2 134 -10 168 -7 31 -12 64 -11 72 2
20 -24 209 -37 263 -12 54 -13 84 -1 72 5 -6 28 -104 50 -218z m66 -27 c19
-80 44 -201 56 -269 23 -130 21 -140 -22 -141 -14 0 -17 18 -22 133 -4 105
-12 163 -41 287 -20 85 -39 171 -42 190 -11 80 38 -57 71 -200z m110 72 c45
-106 47 -114 32 -130 -16 -15 -18 -15 -35 3 -10 11 -33 54 -51 95 -18 41 -39
88 -48 103 -8 16 -13 29 -11 31 17 11 54 22 59 17 4 -3 28 -57 54 -119z m-85
-37 c0 -5 -5 -3 -10 5 -5 8 -10 20 -10 25 0 6 5 3 10 -5 5 -8 10 -19 10 -25z
m44 -128 c3 -18 12 -75 20 -127 18 -110 19 -120 8 -120 -4 0 -14 35 -21 78 -7
42 -21 119 -32 171 -10 52 -19 99 -18 105 1 19 38 -73 43 -107z m-167 81 c-3
-8 -6 -5 -6 6 -1 11 2 17 5 13 3 -3 4 -12 1 -19z m2813 -364 l40 -27 0 -96 c0
-207 -61 -559 -117 -678 l-25 -53 -60 0 -60 0 15 23 c57 87 124 439 143 745 3
61 10 112 15 112 5 0 27 -12 49 -26z m154 -91 c47 -25 87 -51 89 -57 1 -6 1
-37 -1 -69 l-4 -57 -49 6 c-34 5 -49 3 -49 -5 0 -11 25 -16 72 -12 25 2 27 0
23 -26 -2 -15 -9 -62 -16 -103 -16 -110 -58 -277 -84 -334 -34 -77 -61 -97
-141 -104 -63 -5 -67 -4 -59 14 65 150 125 487 125 706 0 49 2 88 5 88 2 0 42
-21 89 -47z m-4413 -74 c-6 -35 -17 -84 -26 -109 l-15 -45 5 45 c7 55 36 182
42 177 2 -3 -1 -33 -6 -68z m-121 -842 c0 -112 -5 -150 -29 -249 -16 -64 -34
-124 -41 -135 -9 -15 -10 -13 -5 12 43 195 46 229 34 320 -11 81 -10 97 5 143
10 29 22 50 27 46 5 -3 9 -65 9 -137z m1110 -776 c0 -5 -43 -23 -95 -40 -83
-28 -101 -30 -135 -21 -47 13 -59 28 -28 34 13 2 52 11 88 19 74 17 170 21
170 8z m-1501 -37 c2 -2 -17 -4 -42 -4 -26 0 -47 4 -47 9 0 8 79 3 89 -5z
m241 -63 c-8 -19 -22 -30 -51 -38 -27 -7 -41 -7 -46 0 -4 6 -1 7 8 2 8 -4 1 4
-16 19 -16 14 -51 36 -77 49 l-46 24 91 -4 c51 -3 103 -1 117 5 21 8 26 6 28
-10 2 -11 -1 -32 -8 -47z m1256 40 c-3 -5 -27 -14 -52 -20 -26 -7 -61 -23 -79
-36 -48 -38 -66 -29 -21 10 21 19 57 38 80 44 55 12 78 13 72 2z m-316 -10 c0
-12 -20 -25 -27 -18 -7 7 6 27 18 27 5 0 9 -4 9 -9z m-1121 -30 c19 -9 32 -20
30 -26 -2 -5 -8 -8 -14 -6 -5 1 -40 8 -77 13 -63 10 -81 22 -61 41 9 10 84 -3
122 -22z m251 13 c0 -8 -4 -12 -10 -9 -5 3 -10 10 -10 16 0 5 5 9 10 9 6 0 10
-7 10 -16z m980 -11 c12 -4 11 -7 -5 -18 -11 -8 -26 -19 -32 -25 -16 -13 -53
4 -53 25 0 7 -3 20 -6 28 -5 14 23 11 96 -10z m240 9 c0 -5 11 -15 25 -22 l25
-13 -33 -24 c-28 -22 -39 -24 -90 -19 -32 3 -66 10 -74 15 -14 7 -11 12 17 26
69 36 130 53 130 37z m-1541 -52 c36 -5 71 -10 76 -10 24 -1 -43 -29 -71 -30
-32 0 -93 17 -108 30 -13 12 4 32 21 25 9 -3 46 -10 82 -15z m276 -44 c-11
-57 -51 -58 -103 -3 l-23 25 38 0 c21 0 49 5 63 10 14 5 26 8 28 7 2 -2 0 -19
-3 -39z m1033 -12 c-44 -40 -60 -42 -88 -12 -29 31 -25 41 13 35 17 -2 48 1
67 7 19 7 37 10 40 8 3 -2 -12 -19 -32 -38z m302 26 c-13 -9 -13 -10 0 -10 28
-1 -11 -17 -70 -29 -36 -8 -70 -24 -99 -46 -45 -36 -71 -40 -35 -6 22 22 161
97 189 103 26 6 33 -1 15 -12z m109 -24 c38 -19 71 -42 74 -50 9 -24 -2 -20
-64 22 -31 20 -65 42 -75 49 -38 24 -1 12 65 -21z m-1555 -21 c49 -49 98 -61
110 -28 11 28 24 2 36 -71 10 -66 10 -70 -12 -93 -13 -14 -63 -49 -113 -78
-49 -30 -124 -85 -165 -124 -41 -38 -87 -77 -102 -85 l-26 -16 -22 67 c-13 38
-29 75 -36 84 -15 17 -19 39 -6 39 13 0 39 -35 34 -48 -2 -7 3 -12 12 -12 27
0 24 48 -4 67 -12 8 -16 20 -13 34 6 20 6 20 32 -5 28 -27 51 -34 51 -15 0 6
-13 24 -30 39 -25 23 -27 29 -14 34 10 4 22 -1 29 -10 9 -13 14 -14 19 -5 5 7
1 20 -7 29 -13 14 -13 20 -3 34 12 16 16 14 46 -17 58 -60 86 -38 51 39 -11
27 -30 51 -45 57 -14 7 -27 18 -30 26 -5 11 -1 11 16 -2 28 -19 38 -19 38 0 0
21 17 19 47 -5 30 -23 43 -25 43 -7 0 15 -37 51 -60 60 -11 4 -10 6 4 6 10 1
34 -9 53 -20 19 -12 36 -19 39 -17 11 12 -11 38 -44 51 -24 10 -32 17 -22 20
8 3 22 8 30 10 8 3 16 6 17 6 1 1 23 -19 47 -44z m-196 16 c9 -5 -4 -10 -37
-13 -28 -3 -59 -12 -69 -22 -27 -24 -37 -19 -18 9 9 14 14 25 10 25 -14 0 -81
-45 -116 -79 -27 -25 -38 -30 -38 -19 0 20 53 66 103 88 40 18 144 25 165 11z
m1245 -43 c26 -28 62 -22 102 17 32 30 41 34 84 32 27 -1 47 -5 44 -9 -2 -5
-12 -8 -22 -8 -39 0 -72 -71 -51 -109 6 -12 15 -21 21 -21 5 0 32 21 60 46
l49 47 -21 -49 c-12 -27 -28 -58 -35 -69 -18 -25 -18 -45 0 -45 13 0 27 25 56
98 12 31 30 44 30 21 0 -5 5 -7 11 -3 14 8 -9 -35 -28 -54 -15 -16 -13 -34 5
-40 7 -2 18 9 25 25 l12 30 30 -19 c18 -10 24 -18 14 -18 -16 0 -44 -48 -34
-58 2 -3 13 2 23 11 25 23 46 22 37 0 -36 -85 -33 -97 14 -62 17 12 27 27 24
33 -4 6 1 5 10 -3 15 -12 14 -16 -10 -48 -22 -29 -24 -36 -12 -44 24 -15 32
-10 27 16 -5 26 6 32 30 16 10 -6 10 -11 -3 -21 -22 -18 -65 -104 -65 -130 0
-11 -3 -20 -6 -20 -23 0 -118 60 -160 101 -36 36 -89 69 -185 118 -87 43 -135
73 -137 85 -2 10 2 57 8 104 11 72 15 84 24 68 6 -11 19 -28 29 -38z m-1196
26 c-3 -3 -12 -4 -19 -1 -8 3 -5 6 6 6 11 1 17 -2 13 -5z m-30 -20 c-3 -3 -12
-4 -19 -1 -8 3 -5 6 6 6 11 1 17 -2 13 -5z m1642 -33 c9 -6 1 -10 -25 -13 -44
-6 -55 -1 -34 12 19 12 41 12 59 1z m14 -47 c-18 -7 -40 -11 -49 -7 -16 6 -16
7 2 14 10 4 33 8 49 7 l30 0 -32 -14z m62 -28 c17 -13 16 -14 -23 -21 -54 -9
-77 4 -37 21 38 17 38 17 60 0z m-1785 -23 c0 -11 -5 -13 -17 -7 -10 4 -40 10
-68 13 l-50 5 45 6 c59 7 90 1 90 -17z m-56 -19 c9 -3 16 -10 16 -15 0 -10
-88 0 -110 12 -18 10 69 12 94 3z m1976 -15 c0 -4 -7 -6 -15 -3 -8 4 -15 10
-15 15 0 4 7 6 15 3 8 -4 15 -10 15 -15z m-65 1 c-3 -5 -17 -10 -30 -10 -13 0
-35 -4 -49 -10 -28 -10 -34 -2 -14 18 15 15 102 16 93 2z m-1957 -41 c48 -17
28 -32 -31 -25 -60 8 -74 15 -56 27 19 12 50 11 87 -2z m1947 1 c-11 -5 -31
-8 -45 -8 l-25 0 25 8 c14 4 34 8 45 8 l20 1 -20 -9z m-554 -28 c58 -29 121
-56 156 -67 13 -3 54 -35 93 -70 119 -110 238 -155 404 -155 79 0 110 5 145
20 52 24 61 25 61 5 0 -8 -19 -25 -42 -37 -58 -30 -234 -38 -329 -14 -109 27
-168 64 -214 130 -30 44 -53 66 -94 87 -49 24 -56 26 -66 12 -11 -14 -16 -14
-61 1 -61 20 -101 53 -110 89 -3 15 -4 27 -1 27 3 0 29 -12 58 -28z m624 9
c-19 -17 -104 -40 -111 -30 -8 13 -5 15 36 27 45 13 87 15 75 3z m-1518 -38
c4 -10 -63 -54 -109 -72 -13 -5 -33 -5 -47 1 l-25 9 23 15 c28 20 133 63 145
60 6 -1 11 -7 13 -13z m1625 -18 c21 -14 38 -30 38 -35 0 -14 -103 -42 -153
-41 -23 0 -59 6 -80 13 l-39 14 19 23 c24 30 109 61 148 55 16 -2 47 -16 67
-29z m-2179 6 c21 -8 47 -53 47 -81 0 -24 -231 -39 -273 -18 -24 12 -16 21 61
68 69 41 115 50 165 31z m2270 -69 c8 -9 21 -30 27 -47 10 -27 9 -32 -15 -52
-60 -52 -225 -68 -343 -33 -41 13 -43 15 -36 44 14 65 23 79 47 72 12 -4 43
-11 69 -16 67 -13 195 10 213 39 9 15 20 14 38 -7z m-2394 -63 c47 0 104 5
126 11 68 16 73 14 88 -37 l14 -48 -51 -18 c-73 -27 -235 -35 -278 -14 -36 17
-78 53 -78 66 0 4 5 22 11 39 l10 30 36 -15 c23 -9 67 -14 122 -14z m401 -6
c0 -4 -9 -25 -20 -48 -15 -30 -34 -49 -68 -68 -81 -44 -199 -78 -291 -84 -135
-9 -205 19 -217 86 l-7 33 39 -25 c85 -56 208 -60 343 -13 86 30 146 63 180
100 24 25 41 33 41 19z"/>
<path d="M5134 8040 c-30 -4 -76 -22 -108 -41 -67 -40 -51 -52 19 -14 26 14
57 25 69 25 24 0 127 28 109 29 -6 1 -17 3 -25 5 -7 2 -36 0 -64 -4z"/>
<path d="M4754 7915 c-10 -8 -14 -14 -9 -15 15 0 40 18 34 24 -3 3 -14 -1 -25
-9z"/>
<path d="M4683 7711 c-26 -21 -59 -51 -73 -66 l-25 -28 31 18 c42 24 142 114
127 115 -6 0 -33 -17 -60 -39z"/>
<path d="M4743 7711 c-36 -26 -93 -115 -81 -127 3 -2 20 17 38 43 18 27 50 63
72 81 50 40 26 43 -29 3z"/>
<path d="M5200 7377 c-1 -62 51 -88 162 -80 56 4 92 2 106 -6 24 -13 30 0 9
17 -7 6 -54 20 -105 31 -50 11 -101 25 -114 32 -17 9 -23 9 -26 0 -3 -8 -9 -6
-18 6 -13 17 -13 17 -14 0z"/>
<path d="M5050 7369 c-14 -6 -59 -14 -101 -19 -75 -9 -149 -35 -149 -53 0 -5
11 -6 28 -1 40 12 125 6 167 -12 20 -8 34 -10 30 -5 -9 15 8 14 24 -1 11 -11
13 -10 9 2 -5 16 14 40 32 40 7 0 9 7 6 16 -3 9 -6 22 -6 30 0 16 -6 17 -40 3z"/>
<path d="M4903 7265 c-23 -6 -45 -13 -49 -18 -4 -4 -16 -7 -26 -7 -10 0 -18
-4 -18 -10 0 -5 5 -10 11 -10 8 0 8 -5 -1 -15 -7 -8 -10 -15 -7 -15 3 0 13 -3
23 -7 14 -5 16 -3 10 12 -4 11 -2 22 6 27 21 13 28 10 38 -16 10 -26 55 -42
90 -31 14 4 20 15 20 36 0 32 7 36 34 16 20 -15 22 -13 -34 -57 l-25 -20 25 9
c37 13 65 54 51 78 -14 27 -92 42 -148 28z m52 -44 c10 -17 -12 -21 -25 -6
-10 12 -10 15 3 15 9 0 18 -4 22 -9z"/>
<path d="M5300 7269 c-24 -10 -69 -56 -70 -71 0 -9 37 -48 46 -48 4 0 -1 12
-11 26 -20 30 -14 54 15 54 14 0 20 -7 20 -24 0 -27 16 -36 65 -36 27 0 35 5
45 30 14 34 22 37 41 14 11 -14 10 -18 -6 -30 -15 -11 -16 -14 -3 -14 8 0 23
9 33 19 16 19 16 21 -10 45 -44 41 -114 55 -165 35z m90 -28 c0 -5 -9 -11 -20
-14 -13 -3 -20 0 -20 9 0 8 9 14 20 14 11 0 20 -4 20 -9z"/>
<path d="M5186 7185 c10 -59 27 -80 19 -25 -3 25 -11 50 -16 55 -7 7 -8 -3 -3
-30z"/>
<path d="M5082 7169 c-13 -16 -19 -29 -14 -29 9 0 33 25 46 48 14 23 -9 11
-32 -19z"/>
<path d="M4860 7141 c0 -16 46 -24 77 -13 l28 10 -37 1 c-20 1 -43 4 -52 7 -9
3 -16 1 -16 -5z"/>
<path d="M5345 7140 c3 -5 23 -10 43 -9 33 1 34 2 12 9 -36 12 -62 12 -55 0z"/>
<path d="M5058 7054 c-12 -11 -9 -49 4 -62 16 -16 33 -15 20 1 -6 6 -12 25
-14 40 -1 16 -6 25 -10 21z"/>
<path d="M5237 7040 c3 -11 1 -20 -5 -20 -6 0 -28 -12 -49 -26 l-38 -26 40 8
c22 4 43 12 47 18 5 6 8 7 8 1 0 -5 5 -2 11 8 11 18 4 57 -11 57 -4 0 -6 -9
-3 -20z"/>
<path d="M5103 7023 c-20 -7 -15 -19 11 -31 21 -9 23 -8 19 9 -6 23 -13 28
-30 22z"/>
<path d="M5068 6874 c-27 -14 -48 -29 -48 -35 0 -6 9 -5 22 2 23 12 160 14
211 3 37 -8 34 6 -8 34 -47 30 -115 28 -177 -4z m112 7 c0 -5 -9 -7 -20 -4
-11 3 -20 7 -20 9 0 2 9 4 20 4 11 0 20 -4 20 -9z"/>
<path d="M5110 6810 c18 -12 68 -12 95 0 14 6 0 9 -45 9 -45 1 -60 -2 -50 -9z"/>
<path d="M5625 7205 c-31 -31 -33 -52 -3 -31 32 23 39 20 33 -11 -5 -22 -4
-24 4 -12 6 9 13 30 16 47 7 40 -15 43 -50 7z"/>
<path d="M5220 6477 c-45 -104 -45 -105 -28 -87 20 21 70 137 66 155 -2 8 -19
-23 -38 -68z"/>
<path d="M5031 6520 c-1 -18 41 -107 63 -135 26 -34 17 -3 -24 75 -21 41 -39
68 -39 60z"/>
<path d="M4993 5075 c-56 -30 -106 -55 -111 -55 -4 0 -38 18 -75 40 -70 43
-77 45 -77 30 0 -18 118 -90 147 -90 27 0 191 85 223 116 27 26 -5 14 -107
-41z"/>
<path d="M5664 4882 c-49 -48 -121 -115 -160 -148 -38 -34 -66 -65 -62 -69 19
-20 265 83 304 127 10 12 15 19 9 16 -94 -48 -209 -98 -217 -96 -6 2 18 27 54
56 70 55 188 176 188 192 0 25 -32 3 -116 -78z"/>
<path d="M5485 4894 c-33 -12 -120 -37 -192 -54 -73 -18 -133 -37 -133 -43 0
-5 12 -7 28 -4 15 4 79 17 144 31 117 24 199 54 213 76 11 18 4 18 -60 -6z"/>
<path d="M4444 4705 c10 -8 67 -30 126 -50 109 -36 164 -64 127 -65 -10 0 -35
9 -57 20 -53 27 -62 25 -19 -4 35 -24 98 -46 132 -46 16 0 16 2 1 25 -23 36
-66 58 -187 99 -117 39 -156 46 -123 21z"/>
<path d="M4625 6190 c12 -251 22 -304 17 -90 -3 113 -9 212 -14 220 -6 9 -7
-39 -3 -130z"/>
<path d="M5988 5665 c-45 -24 -65 -42 -56 -50 5 -5 138 64 138 71 0 11 -39 1
-82 -21z"/>
<path d="M6254 5566 c-39 -17 -58 -42 -24 -31 40 13 90 35 90 40 0 9 -35 4
-66 -9z"/>
<path d="M7030 5605 c0 -21 148 -210 157 -201 3 3 -16 29 -42 58 -26 29 -63
75 -81 103 -19 27 -34 45 -34 40z"/>
<path d="M6728 5583 c-20 -5 -24 -23 -5 -23 17 0 41 17 31 22 -5 2 -17 3 -26
1z"/>
<path d="M6674 5523 c-12 -87 -9 -328 5 -413 13 -76 39 -131 86 -185 l27 -30
-22 35 c-50 81 -59 116 -75 276 -11 108 -14 193 -9 267 7 115 0 143 -12 50z"/>
<path d="M6730 5528 c0 -7 5 -20 11 -28 9 -12 10 -12 5 4 -5 13 -2 17 8 13 8
-3 17 1 20 9 4 10 -2 14 -19 14 -14 0 -25 -6 -25 -12z"/>
<path d="M6945 5469 c28 -30 52 -54 54 -52 7 4 -61 84 -82 95 -12 6 1 -14 28
-43z"/>
<path d="M6878 5404 c-9 -21 -18 -55 -22 -74 -4 -22 3 -11 19 30 13 36 23 69
22 74 -2 6 -10 -8 -19 -30z"/>
<path d="M7023 5415 c-16 -12 -16 -18 5 -101 25 -100 43 -132 93 -156 56 -28
313 -90 358 -86 38 3 40 4 28 25 -94 167 -117 195 -207 242 -60 32 -152 65
-217 79 -31 7 -47 6 -60 -3z m109 -26 c96 -32 199 -86 241 -127 33 -32 107
-146 107 -165 0 -31 -334 56 -380 98 -22 20 -74 179 -66 200 7 20 24 19 98 -6z"/>
<path d="M6903 5271 c8 -23 13 -28 15 -16 2 10 -3 25 -12 33 -14 15 -15 13 -3
-17z"/>
<path d="M7081 4914 c0 -11 3 -14 6 -6 3 7 2 16 -1 19 -3 4 -6 -2 -5 -13z"/>
<path d="M7533 4820 c48 -59 95 -103 79 -75 -6 11 -34 43 -63 70 l-52 50 36
-45z"/>
<path d="M3080 5449 c-52 -27 -87 -49 -77 -49 19 0 139 58 172 84 34 27 4 15
-95 -35z"/>
<path d="M3066 5354 c-38 -19 -75 -33 -82 -30 -16 6 -19 -10 -4 -19 11 -7 160
65 160 77 0 4 -1 8 -2 7 -2 -1 -34 -16 -72 -35z"/>
<path d="M2971 5218 c-2 -25 -104 -72 -141 -64 -38 7 -38 -7 -1 -33 41 -30 77
-27 98 7 9 15 25 37 36 49 10 11 17 29 14 40 -4 15 -5 15 -6 1z"/>
<path d="M3224 5010 c0 -52 1 -74 3 -47 2 26 2 68 0 95 -2 26 -3 4 -3 -48z"/>
<path d="M2993 5035 c0 -22 2 -30 4 -17 2 12 2 30 0 40 -3 9 -5 -1 -4 -23z"/>
<path d="M3003 4660 c-1 -298 -8 -530 -15 -535 -17 -11 -173 -136 -244 -195
-50 -41 -122 -100 -160 -130 -95 -76 -124 -106 -124 -126 0 -14 4 -13 24 7 13
13 73 63 132 111 60 48 168 134 239 192 120 97 131 103 137 83 6 -21 6 -21 7
3 2 33 7 40 64 80 26 18 47 40 47 47 0 16 -26 5 -69 -29 -19 -14 -26 -16 -31
-6 -3 7 -2 127 3 265 6 148 6 318 1 410 -8 149 -9 138 -11 -177z"/>
<path d="M2284 4945 c13 -54 41 -141 48 -149 10 -13 -30 133 -43 153 -8 13 -9
12 -5 -4z"/>
<path d="M2289 4469 c70 -124 105 -287 121 -564 l9 -150 -4 160 c-6 242 -38
413 -100 535 -13 25 -31 53 -41 61 -10 8 -5 -8 15 -42z"/>
<path d="M2501 3798 c-22 -66 -20 -94 3 -37 14 36 28 99 22 99 -2 0 -14 -28
-25 -62z"/>
<path d="M4191 5847 c-1 -19 37 -104 50 -113 14 -9 10 7 -21 71 -15 33 -29 52
-29 42z"/>
<path d="M3591 5805 c0 -11 7 -29 15 -40 16 -19 16 -19 9 5 -4 14 -11 32 -16
40 -7 12 -8 11 -8 -5z"/>
<path d="M3790 5580 c0 -5 5 -10 10 -10 6 0 10 5 10 10 0 6 -4 10 -10 10 -5 0
-10 -4 -10 -10z"/>
<path d="M3801 5536 c-17 -9 -20 -15 -11 -21 7 -4 19 0 28 9 21 21 12 27 -17
12z"/>
<path d="M3662 5415 c0 -5 6 -26 13 -45 7 -19 14 -28 14 -20 0 8 -6 29 -14 45
-7 17 -13 26 -13 20z"/>
<path d="M3967 5287 c-41 -35 -77 -84 -77 -105 0 -7 32 20 70 60 39 40 70 74
70 75 0 12 -32 -4 -63 -30z"/>
<path d="M3563 4950 c-23 -9 -33 -50 -13 -50 5 0 7 6 4 14 -3 9 3 17 15 21 12
3 21 11 21 16 0 5 -1 9 -2 8 -2 0 -13 -4 -25 -9z"/>
<path d="M6567 4619 c10 -92 10 -238 1 -346 -4 -47 -4 -83 1 -83 29 0 53 319
32 422 -7 31 -19 62 -27 69 -12 10 -13 2 -7 -62z"/>
<path d="M3278 3955 c-1 -71 -2 -147 -2 -168 1 -24 -2 -33 -8 -25 -4 7 -7 75
-6 150 1 75 -1 140 -5 144 -4 4 -8 -40 -8 -97 -1 -72 -4 -93 -9 -69 l-7 35 -1
-35 c-1 -37 20 -149 32 -168 13 -22 43 -13 54 16 6 15 16 64 23 109 11 78 10
84 -14 135 -13 29 -29 64 -35 78 -8 20 -11 -2 -14 -105z m40 -102 c-8 -118
-23 -106 -23 17 0 98 1 106 14 83 9 -18 12 -49 9 -100z"/>
<path d="M5844 3855 c-15 -11 -16 -14 -3 -15 8 0 24 7 35 15 15 11 16 14 3 15
-8 0 -24 -7 -35 -15z"/>
<path d="M5374 2773 c16 -31 171 -183 186 -183 6 0 10 4 10 8 0 9 -198 202
-206 202 -3 0 2 -12 10 -27z"/>
<path d="M5655 2511 c-11 -19 107 -86 170 -95 36 -6 31 -2 -40 34 -44 23 -90
48 -102 55 -12 8 -24 11 -28 6z"/>
<path d="M5520 2448 c0 -25 52 -89 138 -169 77 -72 116 -97 127 -79 2 4 -12
19 -33 33 -47 32 -162 140 -202 191 -16 21 -30 32 -30 24z"/>
<path d="M5632 2388 c10 -29 198 -151 198 -128 0 6 -14 19 -31 28 -17 9 -58
38 -92 64 -63 49 -82 58 -75 36z"/>
<path d="M5525 1451 l-20 -8 20 -6 c11 -3 55 -8 98 -12 89 -8 106 7 27 24 -58
13 -96 13 -125 2z"/>
<path d="M4358 2518 c-49 -17 -30 -24 65 -21 l92 2 -68 -32 c-38 -18 -66 -35
-62 -39 13 -12 166 51 200 83 12 12 -6 12 -38 0 -17 -7 -37 -5 -63 4 -45 16
-88 17 -126 3z"/>
<path d="M4642 2281 c-28 -43 -85 -110 -127 -150 -77 -71 -82 -91 -13 -48 46
28 104 94 150 172 50 85 60 105 50 105 -5 0 -32 -35 -60 -79z"/>
<path d="M4410 1399 c-69 -16 -134 -29 -145 -29 -18 -1 -18 -2 -3 -10 11 -7
41 -7 87 0 134 19 201 39 201 60 0 12 9 14 -140 -21z"/>
<path d="M8562 3938 c-27 -30 -37 -58 -63 -180 -31 -146 -39 -590 -15 -787 29
-231 69 -371 112 -388 44 -17 86 61 117 220 19 99 22 144 22 397 0 320 -17
497 -62 632 -24 72 -59 128 -81 128 -5 0 -18 -10 -30 -22z m38 -11 c0 -2 -10
-12 -22 -23 l-23 -19 19 23 c18 21 26 27 26 19z m28 -42 c-3 -3 -9 2 -12 12
-6 14 -5 15 5 6 7 -7 10 -15 7 -18z m-31 -375 c19 -67 32 24 33 235 0 80 4
124 9 115 16 -27 43 -144 56 -240 13 -94 12 -95 -12 -140 l-26 -45 26 30 c33
38 34 23 1 -34 -22 -39 -25 -57 -26 -146 -2 -100 -1 -103 30 -146 24 -32 32
-53 32 -85 0 -54 -19 -195 -29 -212 -5 -8 -16 26 -29 85 -12 55 -26 112 -33
129 l-12 29 -9 -35 c-19 -73 -27 -128 -34 -243 -4 -65 -11 -114 -15 -110 -5 5
-15 53 -24 107 -15 106 -12 148 25 255 23 69 26 111 8 111 -20 0 -34 -12 -57
-50 l-21 -35 -2 83 c-4 166 -9 147 40 144 32 -3 42 0 42 12 0 8 5 27 10 42 10
26 11 26 25 8 10 -13 14 -43 14 -94 -1 -65 -2 -71 -10 -41 -6 18 -12 31 -15
29 -7 -8 8 -68 17 -68 5 0 6 -7 3 -15 -4 -8 -11 -12 -16 -9 -6 4 -9 1 -6 -6 2
-7 11 -14 20 -16 21 -3 33 80 25 168 -6 64 -10 72 -44 82 -17 6 -22 2 -26 -16
-3 -16 -5 -12 -6 12 0 20 -10 78 -22 130 -26 120 -22 236 13 307 l23 48 6
-170 c4 -93 11 -186 16 -205z m12 198 c-1 -120 -4 -161 -10 -133 -12 58 -11
305 1 305 6 0 10 -63 9 -172z m37 -825 c29 -142 29 -165 4 -221 -14 -31 -25
-43 -37 -40 -16 3 -18 17 -18 128 0 69 2 152 5 185 8 110 15 102 46 -52z"/>
<path d="M8877 2814 c-15 -15 8 -24 64 -24 33 0 59 4 59 10 0 6 -20 10 -44 10
-24 0 -51 2 -58 5 -8 3 -17 3 -21 -1z"/>
<path d="M8840 2622 c0 -8 100 -32 133 -32 12 0 7 18 -6 23 -32 12 -127 19
-127 9z"/>
<path d="M8825 2429 c-7 -10 19 -18 83 -25 33 -4 54 -3 49 2 -12 12 -127 33
-132 23z"/>
<path d="M2116 3887 c-59 -59 -86 -234 -86 -559 0 -285 26 -456 82 -538 34
-49 53 -58 85 -40 31 18 56 76 79 184 43 207 38 605 -10 784 -48 174 -93 226
-150 169z m97 -75 c30 -56 64 -213 54 -254 -4 -13 -21 -41 -40 -63 l-33 -38
-21 22 c-20 21 -21 32 -18 192 2 94 5 173 8 176 3 3 16 -15 28 -39 28 -53 37
-173 19 -248 -7 -28 -10 -54 -7 -57 8 -8 38 66 44 109 9 62 -29 188 -71 237
-15 17 -17 22 -6 19 8 -2 28 -27 43 -56z m-73 -124 c0 -117 -5 -189 -14 -223
-8 -27 -15 -45 -15 -38 -1 7 -17 28 -36 46 -36 35 -36 35 -29 101 4 36 10 66
14 66 4 0 13 -20 20 -45 7 -25 16 -47 19 -49 3 -2 4 54 2 125 -3 126 7 189 30
189 5 0 9 -78 9 -172z m-63 40 c-3 -7 -5 -2 -5 12 0 14 2 19 5 13 2 -7 2 -19
0 -25z m199 -365 c-3 -7 -17 -13 -32 -13 -16 0 -24 -5 -21 -12 2 -8 17 -12 37
-10 l33 4 -6 -104 c-4 -57 -7 -109 -7 -116 0 -22 -18 -4 -46 48 -15 28 -33 50
-41 50 -20 0 -16 -9 33 -85 44 -67 46 -73 40 -125 -3 -30 -13 -77 -22 -104
-23 -65 -30 -46 -39 105 -4 63 -12 123 -16 134 -11 25 -1 -247 11 -291 8 -34
-3 -64 -24 -64 -8 0 -24 9 -37 19 -22 18 -23 21 -7 33 13 10 17 32 18 108 3
159 0 220 -9 220 -9 0 -31 -172 -31 -253 l-1 -52 -15 35 c-19 44 -41 154 -48
243 -5 64 -4 68 17 76 13 5 29 16 36 25 19 23 31 20 31 -8 0 -26 14 -41 29
-32 5 3 0 23 -11 43 -16 32 -19 53 -16 130 4 107 19 136 42 82 11 -25 16 -29
16 -14 l1 20 8 -20 c7 -17 12 -13 42 35 l34 55 3 -74 c2 -41 1 -80 -2 -88z"/>
<path d="M2178 3400 c-11 -25 -17 -170 -8 -170 5 0 12 15 15 33 8 41 2 157 -7
137z"/>
<path d="M2003 3455 c0 -22 2 -30 4 -17 2 12 2 30 0 40 -3 9 -5 -1 -4 -23z"/>
<path d="M5918 1083 c7 -3 16 -2 19 1 4 3 -2 6 -13 5 -11 0 -14 -3 -6 -6z"/>
<path d="M3527 7734 c-27 -14 -47 -28 -44 -31 3 -3 20 2 38 11 18 9 38 16 46
16 7 0 13 7 13 15 0 18 5 19 -53 -11z"/>
<path d="M9085 7545 c-25 -24 -33 -55 -16 -55 5 0 16 12 26 26 15 24 21 25 61
19 49 -7 58 5 19 23 -39 18 -63 14 -90 -13z"/>
<path d="M7053 7524 c0 -16 13 -19 21 -5 3 5 0 11 -7 14 -8 3 -14 -1 -14 -9z"/>
<path d="M7165 7460 c17 -11 38 -20 48 -20 9 0 17 -4 17 -9 0 -5 9 -13 20 -16
19 -6 20 -15 20 -216 0 -152 -3 -209 -12 -209 -6 0 -9 -2 -7 -5 3 -2 20 1 37
7 l32 12 0 223 0 223 -24 0 c-13 0 -26 -5 -28 -11 -3 -8 -15 -6 -38 7 -19 10
-38 18 -42 19 -3 0 -10 3 -14 8 -4 4 -14 7 -23 7 -10 0 -4 -8 14 -20z"/>
<path d="M2284 7285 c-10 -8 -14 -15 -8 -15 6 0 17 7 24 15 16 19 9 19 -16 0z"/>
<path d="M2351 7284 c-20 -23 -9 -25 19 -4 16 13 20 20 10 19 -8 0 -21 -7 -29
-15z"/>
<path d="M2411 7284 c8 -10 16 -11 30 -3 13 7 26 6 42 -2 20 -11 21 -11 8 4
-9 11 -27 16 -52 15 -31 -1 -36 -4 -28 -14z"/>
<path d="M2203 7269 c-23 -8 -51 -49 -34 -49 5 0 12 9 16 19 7 22 39 33 54 18
6 -6 13 -8 17 -5 11 12 -31 26 -53 17z"/>
<path d="M2122 7175 c2 -8 -10 -26 -27 -39 -16 -13 -27 -27 -23 -31 5 -5 78
59 78 69 0 2 -7 7 -15 10 -11 4 -15 1 -13 -9z"/>
<path d="M9694 7161 c-131 -47 -264 -176 -413 -401 -190 -286 -374 -694 -440
-972 -16 -68 -14 -103 9 -123 62 -57 676 -187 865 -184 49 1 49 1 15 9 -19 5
-98 21 -175 35 -392 74 -586 119 -651 151 -32 16 -40 25 -42 53 -2 18 0 37 5
42 5 5 36 -2 69 -16 128 -52 510 -127 709 -140 66 -4 36 4 -165 45 -236 47
-422 87 -447 95 -23 8 56 283 144 500 95 232 234 508 321 635 35 53 41 56 134
90 104 38 135 57 78 46 -71 -14 -170 -48 -193 -66 -43 -34 -219 -342 -299
-525 -83 -189 -174 -448 -205 -584 l-18 -82 -30 7 c-51 11 -75 23 -75 37 0 73
146 423 308 742 24 45 148 241 200 315 67 95 147 170 232 220 41 24 93 54 115
67 50 28 23 31 -51 4z"/>
<path d="M3620 6956 c0 -113 -3 -206 -7 -206 -3 0 -15 7 -25 17 -14 13 -18 13
-18 2 0 -8 18 -24 40 -37 22 -12 40 -27 40 -32 0 -5 11 -21 25 -36 14 -15 25
-23 25 -19 0 5 -10 19 -22 33 -22 23 -23 30 -25 250 -1 199 -3 227 -17 230
-14 3 -16 -19 -16 -202z"/>
<path d="M6705 7090 c-8 -13 -7 -474 2 -496 3 -8 10 -13 15 -12 12 4 11 499
-1 511 -5 5 -12 4 -16 -3z"/>
<path d="M2072 7078 c-7 -7 -12 -21 -11 -32 0 -15 2 -17 6 -6 3 8 12 19 19 23
15 9 19 27 6 27 -4 0 -13 -5 -20 -12z"/>
<path d="M7348 6993 c6 -2 18 -2 25 0 6 3 1 5 -13 5 -14 0 -19 -2 -12 -5z"/>
<path d="M7209 6968 c-12 -23 -12 -23 10 -4 23 21 26 26 11 26 -5 0 -15 -10
-21 -22z"/>
<path d="M7458 6973 c13 -3 31 -18 40 -34 10 -16 25 -32 35 -35 9 -3 17 -10
17 -15 0 -5 5 -9 10 -9 18 0 11 16 -13 29 -12 6 -31 25 -42 41 -14 21 -28 30
-45 29 -25 -2 -25 -2 -2 -6z"/>
<path d="M3375 6930 c28 -12 37 -12 30 0 -3 6 -16 10 -28 9 -21 0 -21 -1 -2
-9z"/>
<path d="M3226 6895 c-9 -26 -7 -32 5 -12 6 10 9 21 6 23 -2 3 -7 -2 -11 -11z"/>
<path d="M3960 6794 c0 -147 17 -142 21 5 2 74 -1 106 -9 109 -9 3 -12 -27
-12 -114z"/>
<path d="M3000 6870 c0 -5 5 -10 11 -10 5 0 7 5 4 10 -3 6 -8 10 -11 10 -2 0
-4 -4 -4 -10z"/>
<path d="M3040 6866 c0 -2 9 -6 20 -9 11 -3 18 -1 14 4 -5 9 -34 13 -34 5z"/>
<path d="M3095 6850 c-3 -5 -2 -10 4 -10 5 0 13 5 16 10 3 6 2 10 -4 10 -5 0
-13 -4 -16 -10z"/>
<path d="M3188 6853 c7 -3 16 -2 19 1 4 3 -2 6 -13 5 -11 0 -14 -3 -6 -6z"/>
<path d="M7045 6820 c3 -5 8 -10 11 -10 2 0 4 5 4 10 0 6 -5 10 -11 10 -5 0
-7 -4 -4 -10z"/>
<path d="M6393 6740 c0 -25 2 -35 4 -22 2 12 2 32 0 45 -2 12 -4 2 -4 -23z"/>
<path d="M6970 6759 c0 -5 5 -7 10 -4 6 3 10 8 10 11 0 2 -4 4 -10 4 -5 0 -10
-5 -10 -11z"/>
<path d="M3030 6700 c0 -13 33 -21 42 -12 6 6 -1 11 -16 14 -14 3 -26 2 -26
-2z"/>
<path d="M3107 6670 c9 -37 33 -60 62 -60 25 1 25 1 -6 15 -18 8 -33 18 -33
23 0 4 -7 17 -15 28 -13 18 -14 18 -8 -6z"/>
<path d="M2740 6657 c0 -8 7 -14 15 -14 8 0 15 6 15 14 0 7 -7 13 -15 13 -8 0
-15 -6 -15 -13z"/>
<path d="M6944 6623 c4 -12 2 -24 -4 -28 -5 -3 -10 -16 -9 -28 0 -14 2 -16 6
-7 2 8 9 25 16 38 8 17 8 25 -2 35 -11 10 -12 8 -7 -10z"/>
<path d="M3686 6614 c-8 -22 -8 -24 8 -24 21 0 26 13 11 27 -10 10 -14 9 -19
-3z"/>
<path d="M3200 6600 c0 -5 9 -10 19 -10 26 0 34 -15 33 -58 -1 -19 5 -44 13
-55 16 -23 20 -63 7 -69 -5 -1 -12 -16 -16 -33 -7 -28 -6 -29 10 -13 22 22 32
117 13 128 -7 5 -13 27 -14 48 -1 22 -7 47 -14 56 -15 18 -51 22 -51 6z"/>
<path d="M6696 6552 c-2 -4 -1 -14 5 -22 7 -12 9 -10 9 8 0 23 -5 28 -14 14z"/>
<path d="M3545 6520 c10 -11 20 -18 23 -15 7 6 -18 35 -31 35 -5 0 -2 -9 8
-20z"/>
<path d="M3670 6520 c0 -5 5 -10 11 -10 5 0 7 5 4 10 -3 6 -8 10 -11 10 -2 0
-4 -4 -4 -10z"/>
<path d="M6952 6497 c11 -9 14 -18 7 -28 -23 -37 7 -80 54 -79 7 1 -3 7 -20
15 -36 15 -39 22 -21 60 10 22 9 28 -3 36 -22 13 -36 10 -17 -4z"/>
<path d="M7325 6466 c-11 -9 -14 -16 -7 -16 21 0 13 -19 -15 -34 -17 -9 -22
-15 -12 -16 21 0 62 45 57 65 -3 14 -5 14 -23 1z"/>
<path d="M3530 6465 c0 -13 33 -55 43 -55 5 0 3 8 -6 18 -10 10 -17 24 -17 30
0 7 -4 12 -10 12 -5 0 -10 -2 -10 -5z"/>
<path d="M7400 6443 c0 -5 9 -14 20 -21 11 -7 20 -8 20 -2 0 5 -9 14 -20 20
-11 6 -20 7 -20 3z"/>
<path d="M3540 6380 c-14 -11 -20 -20 -13 -20 11 0 43 26 43 36 0 7 -4 5 -30
-16z"/>
<path d="M7050 6390 c0 -5 8 -10 18 -10 10 0 23 -5 30 -12 7 -7 12 -8 12 -4 0
12 -32 35 -47 36 -7 0 -13 -4 -13 -10z"/>
<path d="M7260 6386 c0 -9 5 -16 10 -16 6 0 10 4 10 9 0 6 -4 13 -10 16 -5 3
-10 -1 -10 -9z"/>
<path d="M3902 6370 c0 -14 2 -19 5 -12 2 6 2 18 0 25 -3 6 -5 1 -5 -13z"/>
<path d="M6696 6377 c3 -10 9 -15 12 -12 3 3 0 11 -7 18 -10 9 -11 8 -5 -6z"/>
<path d="M6519 6370 c-92 -7 -109 -13 -109 -36 0 -12 4 -12 26 2 17 12 43 17
77 16 53 -2 119 10 102 19 -6 3 -49 2 -96 -1z"/>
<path d="M855 6363 c-27 -1 -88 -6 -135 -9 l-85 -7 60 -12 c41 -9 230 -15 585
-19 462 -5 609 -11 625 -27 2 -3 0 -22 -5 -44 -5 -22 -29 -159 -55 -305 -25
-146 -50 -287 -56 -313 l-11 -48 -32 24 c-54 42 -198 108 -276 129 -84 21
-241 26 -325 9 -88 -17 -159 -49 -210 -96 -27 -25 -43 -45 -36 -45 9 0 5 -8
-9 -20 -13 -11 -17 -20 -11 -20 7 0 28 16 46 35 43 44 137 91 222 111 97 23
246 15 335 -18 107 -40 132 -64 223 -213 10 -16 20 -24 22 -18 5 13 -49 117
-74 146 -30 33 8 19 64 -24 37 -29 53 -48 53 -65 0 -38 -33 -92 -63 -103 -29
-11 -303 -27 -649 -39 -114 -4 -210 -10 -213 -14 -31 -31 105 -35 520 -18 127
5 254 13 283 16 99 12 70 -8 -188 -126 -69 -32 -143 -65 -164 -74 -64 -27 -34
-29 35 -3 112 42 313 134 387 177 123 71 145 111 181 320 34 200 92 651 86
670 -8 24 -34 27 -294 40 -184 9 -709 11 -836 3z m1072 -145 c-3 -8 -6 -5 -6
6 -1 11 2 17 5 13 3 -3 4 -12 1 -19z m-37 -244 c-17 -99 -42 -243 -55 -320
-14 -78 -29 -152 -35 -165 -13 -30 -15 -46 46 296 41 236 61 353 65 395 1 8 4
5 6 -6 2 -12 -10 -102 -27 -200z"/>
<path d="M6916 6354 c-10 -25 -1 -27 19 -4 15 17 16 20 3 20 -9 0 -19 -7 -22
-16z"/>
<path d="M6870 6346 c0 -9 7 -16 16 -16 9 0 14 5 12 12 -6 18 -28 21 -28 4z"/>
<path d="M3210 6310 c-6 -11 -8 -20 -6 -20 3 0 10 9 16 20 6 11 8 20 6 20 -3
0 -10 -9 -16 -20z"/>
<path d="M880 6182 c0 -12 19 -26 26 -19 2 2 -2 10 -11 17 -9 8 -15 8 -15 2z"/>
<path d="M8605 6170 c3 -5 8 -10 11 -10 2 0 4 5 4 10 0 6 -5 10 -11 10 -5 0
-7 -4 -4 -10z"/>
<path d="M890 6125 c-8 -9 -8 -15 -2 -15 12 0 26 19 19 26 -2 2 -10 -2 -17
-11z"/>
<path d="M1142 5610 c-18 -4 -36 -11 -39 -14 -4 -3 9 -3 28 1 19 5 81 8 139 7
91 -1 114 -5 175 -29 38 -16 98 -48 132 -72 74 -51 89 -55 42 -12 -44 40 -183
107 -250 119 -60 12 -179 12 -227 0z"/>
<path d="M1054 5574 c-18 -14 -18 -14 6 -3 31 14 36 19 24 19 -6 0 -19 -7 -30
-16z"/>
<path d="M8669 5355 c-23 -53 -52 -238 -76 -492 -15 -157 -19 -180 -33 -173
-52 28 -140 -47 -182 -155 -32 -84 -51 -155 -44 -162 3 -3 9 3 12 13 27 77 70
170 95 204 29 40 94 79 130 80 26 0 36 43 59 255 26 250 45 371 65 418 18 43
19 57 4 57 -5 0 -19 -20 -30 -45z"/>
<path d="M8755 5380 c-3 -6 4 -14 17 -19 95 -37 135 -54 145 -63 17 -14 17
-111 1 -106 -7 2 -46 14 -85 28 -72 24 -105 21 -69 -5 10 -8 47 -24 82 -35 34
-12 64 -26 67 -33 2 -6 -1 -30 -7 -54 -12 -53 -23 -54 -121 -14 l-70 28 -5 49
c-6 47 -6 48 -15 19 -10 -34 5 -138 26 -180 18 -36 120 -89 153 -81 29 7 40
36 60 156 23 144 28 217 17 238 -10 18 -146 82 -175 82 -8 0 -18 -5 -21 -10z
m10 -330 c3 -5 31 -17 63 -27 31 -9 58 -18 60 -19 2 -1 0 -13 -4 -28 -7 -30
-26 -33 -75 -12 -39 16 -64 41 -73 74 -5 16 -3 22 8 22 8 0 17 -4 21 -10z"/>
<path d="M8630 4710 c0 -6 17 -25 38 -44 20 -19 60 -73 87 -121 57 -98 73 -90
23 11 -46 93 -148 199 -148 154z"/>
<path d="M9020 3460 c0 -10 68 -57 145 -99 22 -12 56 -32 76 -44 20 -12 106
-59 190 -104 154 -82 236 -119 244 -111 6 5 -184 117 -385 226 -226 123 -270
144 -270 132z"/>
<path d="M1221 3408 c-57 -31 -82 -65 -88 -122 -14 -120 98 -205 211 -162 63
24 99 74 99 140 1 127 -114 202 -222 144z m112 -22 c47 -19 69 -49 74 -100 10
-84 -64 -156 -144 -141 -43 8 -100 58 -108 95 -9 41 14 107 44 127 54 37 83
41 134 19z"/>
<path d="M9260 1406 c0 -2 8 -10 18 -17 15 -13 16 -12 3 4 -13 16 -21 21 -21
13z"/>
<path d="M9330 1325 c13 -14 26 -25 28 -25 3 0 -5 11 -18 25 -13 14 -26 25
-28 25 -3 0 5 -11 18 -25z"/>
<path d="M9395 1250 c47 -55 48 -56 37 -35 -6 11 -23 31 -39 45 l-28 25 30
-35z"/>
<path d="M9458 1185 c6 -11 23 -31 39 -45 l28 -25 -30 35 c-47 55 -48 56 -37
35z"/>
</g>
</svg>
