<?xml version="1.0" standalone="no"?>
<!DOCTYPE svg PUBLIC "-//W3C//DTD SVG 20010904//EN"
 "http://www.w3.org/TR/2001/REC-SVG-20010904/DTD/svg10.dtd">
<svg version="1.0" xmlns="http://www.w3.org/2000/svg"
 width="1024.000000pt" height="1024.000000pt" viewBox="0 0 1024.000000 1024.000000"
 preserveAspectRatio="xMidYMid meet">

<g transform="translate(0.000000,1024.000000) scale(0.100000,-0.100000)"
fill="#000000" stroke="none">
<path d="M6929 7223 c-277 -200 -351 -265 -653 -567 l-258 -259 -2 -204 -1
-204 -45 -35 c-25 -20 -72 -55 -105 -77 -71 -48 -78 -57 -62 -76 13 -15 24
-333 13 -377 -5 -20 -10 -23 -26 -14 -30 16 -121 -1 -134 -25 -6 -11 -17 -24
-23 -28 -7 -4 -13 -15 -13 -23 0 -11 -6 -13 -20 -9 -23 7 -50 -10 -50 -32 0
-8 -7 -21 -15 -30 -17 -17 -16 -34 3 -41 7 -2 12 4 12 13 0 9 4 14 9 11 5 -4
12 7 16 24 4 20 13 30 25 30 10 0 25 7 34 15 8 8 19 15 24 15 5 0 12 13 15 30
6 26 10 29 37 25 16 -2 32 0 35 5 5 8 54 4 63 -5 2 -2 5 -213 7 -470 1 -256 5
-469 9 -472 3 -4 8 -4 10 -2 8 8 10 1293 2 1326 -7 30 -4 34 84 107 51 42 96
73 101 70 5 -3 9 -24 9 -46 0 -23 3 -39 6 -35 3 3 5 120 5 261 l-2 255 253
250 c139 137 303 291 363 343 99 84 379 298 447 342 26 17 26 17 33 -12 3 -16
10 -77 14 -136 5 -59 12 -110 15 -113 3 -4 6 57 6 135 0 78 4 142 9 142 10 0
503 -244 546 -270 30 -18 30 -19 27 -98 l-3 -80 -25 25 c-26 26 -263 143 -289
143 -18 0 -183 -102 -262 -161 l-53 -40 0 216 c0 150 -3 215 -11 215 -6 0 -8
-7 -5 -16 3 -9 6 -113 6 -231 0 -190 2 -214 15 -203 8 7 16 9 16 4 1 -5 5 -70
8 -144 l8 -135 2 145 3 145 119 78 c65 43 127 81 138 84 18 4 19 -5 26 -202 4
-114 4 -489 -1 -834 -12 -808 -10 -1307 5 -1926 7 -275 14 -619 14 -764 l2
-263 -55 6 c-157 17 -413 35 -423 29 -6 -3 -7 -1 -3 5 4 7 16 12 26 12 10 0
22 5 25 10 11 19 -22 10 -59 -15 -20 -13 -36 -20 -36 -14 0 14 81 94 105 104
17 7 16 9 -13 15 -18 4 -36 11 -40 15 -4 5 3 5 16 2 12 -3 20 -1 16 4 -3 5 0
9 7 9 7 0 27 11 46 26 35 26 45 64 17 64 -26 0 -83 -39 -97 -67 l-13 -25 -13
41 c-6 23 -17 41 -22 41 -6 0 -8 -8 -5 -17 15 -39 18 -103 6 -139 -8 -23 -15
-33 -18 -24 -15 50 -36 80 -64 89 -40 14 -48 8 -41 -37 8 -51 19 -61 15 -12
-3 25 0 40 7 40 19 0 55 -49 68 -93 17 -57 16 -66 -4 -37 -10 14 -17 28 -16
32 1 3 -5 12 -14 20 -15 11 -16 11 -10 -4 8 -22 3 -22 -133 -7 -101 11 -200 5
-184 -11 5 -4 77 -14 159 -20 86 -7 162 -19 178 -27 27 -13 28 -17 26 -82 -1
-38 2 -75 6 -82 12 -21 1 -9 -35 36 -31 39 -31 39 -24 10 8 -33 51 -125 59
-125 3 0 23 38 45 85 23 46 45 87 51 90 14 9 11 -1 -11 -37 -11 -18 -20 -40
-19 -48 0 -8 9 3 19 25 14 29 19 34 19 19 1 -12 -8 -33 -19 -47 -19 -24 -39
-87 -27 -87 12 0 68 100 62 111 -4 6 -7 31 -7 56 l1 44 -29 -23 c-15 -13 -36
-38 -46 -55 -14 -25 -20 -29 -26 -18 -7 12 4 92 14 99 1 1 14 8 28 14 l25 12
-28 -4 c-18 -2 -25 0 -19 6 5 5 74 1 178 -11 93 -11 199 -23 236 -26 l66 -6 4
-102 c2 -56 3 -104 1 -106 -2 -2 -56 2 -120 10 -65 7 -123 13 -130 13 -6 -1
-9 5 -6 14 5 12 1 14 -25 9 -31 -6 -31 -6 -25 25 l6 32 -28 -22 c-15 -12 -30
-21 -32 -19 -2 2 4 21 13 43 9 21 20 52 25 69 8 25 7 27 -5 15 -8 -8 -27 -40
-42 -70 -15 -30 -36 -67 -46 -82 -23 -33 -23 -42 1 -35 10 2 26 0 36 -5 12 -8
20 -6 26 3 6 10 9 8 9 -8 l0 -22 38 21 c29 18 34 19 23 5 -8 -10 -11 -20 -7
-24 3 -3 6 -2 6 4 0 15 69 14 183 -1 88 -13 115 -13 202 -1 120 18 128 18 120
5 -3 -6 -24 -10 -46 -10 -40 0 -52 -13 -23 -24 22 -9 76 -7 71 2 -3 4 2 14 11
22 14 13 15 12 9 -3 -5 -13 -1 -17 14 -17 13 0 19 6 17 18 -2 10 3 17 12 17
10 0 14 -8 12 -22 -2 -13 1 -23 7 -23 6 0 8 7 5 15 -4 8 -1 15 5 15 6 0 11 -5
11 -12 0 -6 3 -8 7 -4 5 4 -1 14 -11 22 -29 21 -12 28 23 10 47 -25 53 -21 47
27 -4 29 -3 35 3 17 8 -23 9 -23 16 -6 5 11 3 32 -5 50 -7 17 -16 49 -20 71
-4 22 -8 32 -9 23 -2 -28 -18 -21 -30 12 -5 16 -12 30 -15 30 -7 0 12 -50 23
-65 10 -12 20 -98 10 -87 -4 4 -17 35 -29 70 -41 113 -50 74 -10 -46 l17 -53
-23 22 c-12 11 -28 34 -35 50 -18 45 -21 28 -4 -21 8 -23 15 -44 15 -45 0 -1
-30 -5 -67 -9 -38 -4 -96 -10 -130 -14 l-63 -8 0 102 0 102 128 7 c157 8 526
23 529 21 7 -6 -19 -81 -37 -108 l-22 -33 6 38 c4 34 3 37 -10 26 -16 -13 -15
-40 1 -99 3 -14 -3 -5 -15 19 -11 25 -21 60 -22 78 -2 47 -18 29 -18 -20 0
-29 8 -54 25 -79 22 -33 28 -36 74 -36 36 -1 54 4 67 19 22 25 38 25 24 0 -16
-30 -12 -35 15 -17 26 17 34 9 13 -13 -7 -7 6 -4 30 8 23 12 41 25 38 29 -3 5
-1 14 3 20 12 21 293 42 636 50 320 6 335 14 55 27 -225 11 -707 -30 -743 -62
-35 -32 -25 -6 18 47 24 29 42 57 39 62 -10 16 -33 7 -68 -26 -39 -36 -45 -27
-22 29 l15 35 93 1 c176 1 350 8 486 19 75 6 155 12 176 14 22 2 42 8 43 13 6
16 -395 2 -621 -22 l-40 -4 29 23 c17 14 26 29 23 38 -4 10 5 20 28 31 19 9
34 21 34 27 0 7 -7 7 -21 0 -28 -16 -36 -5 -9 12 23 14 64 92 57 111 -4 12
-23 -6 -89 -82 -21 -23 -38 -47 -38 -52 0 -5 -12 -16 -27 -26 -74 -47 -94 -65
-82 -80 10 -11 9 -12 -5 -7 -20 8 -20 17 0 57 25 49 52 79 93 107 39 26 44 50
10 50 -27 0 -24 12 11 45 27 25 56 92 46 103 -3 2 -13 -1 -23 -6 -22 -12 -66
-86 -56 -96 3 -3 2 -6 -3 -6 -5 0 -15 14 -21 31 -7 18 -16 28 -23 24 -8 -5 -7
-12 4 -24 20 -22 21 -41 2 -41 -9 0 -16 -19 -20 -61 -4 -34 -17 -81 -29 -106
l-22 -45 -6 38 c-4 22 -2 47 3 58 17 32 0 167 -25 194 -25 27 -33 28 -47 2 -8
-15 -6 -31 11 -71 16 -36 19 -53 11 -58 -7 -4 -5 -11 8 -19 18 -11 20 -9 20
16 0 15 -6 34 -12 41 -11 11 -10 13 2 9 17 -5 27 -75 12 -90 -6 -6 -21 1 -40
17 -37 31 -52 17 -16 -16 32 -30 66 -95 62 -117 -3 -12 -9 -7 -22 18 -23 44
-35 51 -56 37 -14 -8 -16 -16 -9 -41 5 -17 9 -33 9 -36 0 -3 -66 -7 -148 -9
-81 -1 -229 -6 -330 -10 l-182 -6 -1 75 c0 41 -2 242 -4 445 -2 204 -10 627
-17 940 -15 669 -16 1027 -5 1715 6 316 5 563 -1 660 -5 85 -9 156 -7 158 1 1
54 -27 116 -63 63 -35 119 -65 126 -65 9 0 13 -35 15 -127 l3 -127 110 -39
c61 -22 112 -41 114 -43 2 -2 5 -178 7 -391 2 -213 9 -836 16 -1383 7 -547 12
-1158 11 -1358 -2 -279 1 -362 10 -359 8 2 14 47 18 138 10 215 10 928 -1
1263 -6 170 -12 619 -14 997 -3 379 -7 693 -10 697 -8 13 -9 364 -1 384 8 21
30 14 208 -71 228 -109 504 -221 541 -221 23 0 -335 165 -608 280 -54 22 -109
48 -121 56 -13 8 -43 17 -67 19 -23 2 -72 15 -108 28 l-65 25 -3 71 c-2 45 1
71 8 71 6 0 10 48 10 134 l0 134 -32 27 c-53 45 -471 245 -588 281 -9 3 -103
-59 -221 -143z m818 -375 c-3 -8 -6 -5 -6 6 -1 11 2 17 5 13 3 -3 4 -12 1 -19z
m666 -3507 c-3 -11 -14 -28 -25 -38 -21 -18 -21 -18 -8 7 13 26 30 50 35 50 2
0 1 -9 -2 -19z m-206 -3 c6 -7 13 -20 16 -29 4 -13 1 -16 -14 -12 -10 3 -19 9
-19 13 0 5 -3 15 -6 24 -7 19 9 21 23 4z m-1116 -77 c-11 -19 -43 -43 -75 -54
-17 -7 -17 -5 -5 10 38 51 102 86 80 44z m1246 -18 c-2 -10 -8 -27 -12 -38 -3
-11 2 -6 11 10 10 17 19 25 22 17 2 -6 8 -10 12 -7 5 3 12 0 16 -6 5 -8 1 -10
-13 -7 -13 3 -24 -1 -32 -13 -6 -11 -17 -19 -25 -19 -11 0 -11 8 -3 40 6 22
15 40 20 40 5 0 7 -8 4 -17z m122 -66 c-14 -13 -28 -31 -32 -40 -3 -9 -12 -17
-18 -17 -8 0 -7 5 2 18 30 39 53 62 63 62 6 0 -1 -11 -15 -23z m-1469 -42
c-13 -14 -25 -23 -27 -21 -8 7 10 35 25 39 10 3 19 5 21 6 3 0 -6 -10 -19 -24z
m1240 15 c0 -5 -2 -10 -4 -10 -3 0 -8 5 -11 10 -3 6 -1 10 4 10 6 0 11 -4 11
-10z m-40 -79 c1 -9 7 -27 14 -40 15 -27 10 -72 -6 -49 -7 10 -8 8 -7 -7 1
-11 0 -31 -1 -45 -2 -21 -4 -19 -15 15 -19 56 -19 81 -1 66 20 -17 28 9 10 30
-8 8 -16 31 -20 50 -5 32 -5 33 10 15 9 -11 16 -27 16 -35z m170 10 c0 -13
-29 -35 -37 -28 -7 8 15 37 28 37 5 0 9 -4 9 -9z m36 -16 c-26 -19 -42 -19
-26 0 7 8 20 15 29 15 13 -1 13 -3 -3 -15z m-237 -161 c1 -24 -5 -46 -13 -53
-12 -10 -13 -6 -5 26 14 61 10 71 -11 28 -21 -42 -20 -27 2 37 10 30 14 34 20
20 3 -9 7 -36 7 -58z m132 49 c-11 -21 -61 -70 -61 -60 0 7 60 77 66 77 3 0 0
-8 -5 -17z m-78 -88 c-3 -9 -8 -14 -10 -11 -3 3 -2 9 2 15 9 16 15 13 8 -4z"/>
<path d="M7018 7225 c-36 -24 -70 -50 -74 -56 -4 -7 27 11 69 40 67 47 85 61
74 61 -1 0 -32 -20 -69 -45z"/>
<path d="M6754 6931 c-173 -113 -563 -455 -602 -526 -14 -25 -16 -57 -15 -184
3 -170 10 -206 52 -243 26 -23 29 -24 39 -8 26 42 431 311 633 421 74 40 135
73 136 74 1 0 -14 92 -33 205 -19 112 -34 220 -34 240 0 19 -4 40 -8 45 -7 11
-57 35 -71 35 -5 0 -49 -26 -97 -59z m148 -181 c21 -113 37 -212 38 -221 0 -9
-14 -22 -32 -30 -17 -7 -65 -35 -106 -62 -90 -58 -544 -380 -586 -414 -19 -16
-32 -21 -39 -14 -5 5 -14 83 -20 174 -10 161 -9 166 12 211 48 98 623 574 681
564 11 -3 24 -55 52 -208z"/>
<path d="M6597 6708 c-17 -13 -18 -25 -11 -150 6 -130 8 -136 25 -125 15 9 19
24 19 69 0 69 16 77 26 12 5 -34 10 -44 23 -42 13 3 15 15 12 73 -1 39 -8 78
-13 88 -9 18 -11 18 -33 -3 l-24 -22 -3 56 c-3 53 -4 56 -21 44z"/>
<path d="M6732 6697 c-20 -22 -29 -47 -17 -47 3 0 17 7 30 16 36 23 32 -1 -5
-36 -54 -51 -33 -144 22 -100 14 10 28 17 31 14 7 -7 57 25 57 37 0 5 -7 9
-15 9 -11 0 -15 11 -15 39 0 87 -41 118 -88 68z m29 -120 c-16 -16 -26 0 -10
19 9 11 15 12 17 4 2 -6 -1 -17 -7 -23z"/>
<path d="M6469 6594 c-5 -15 -9 -59 -8 -98 0 -39 -2 -90 -6 -113 -8 -51 9 -58
38 -17 15 20 16 28 7 39 -10 12 -9 15 3 15 8 0 17 -7 21 -15 6 -16 41 -21 50
-7 3 5 -3 24 -13 42 -15 29 -16 38 -5 69 16 43 17 71 5 71 -17 0 -41 -43 -41
-72 0 -15 -4 -30 -10 -33 -6 -4 -10 22 -10 69 0 78 -12 98 -31 50z"/>
<path d="M6233 6403 c-41 -36 -55 -88 -37 -133 12 -28 18 -32 44 -28 16 3 30
1 30 -3 0 -14 -52 -69 -63 -66 -7 1 -12 -9 -12 -23 0 -34 29 -37 59 -7 27 27
46 83 46 140 0 36 -1 37 -35 37 -23 0 -35 5 -35 13 0 16 32 47 48 47 7 0 12
11 12 25 0 32 -18 32 -57 -2z"/>
<path d="M6330 6403 c-21 -28 -11 -48 13 -24 15 15 27 14 27 -3 0 -8 -7 -17
-15 -20 -22 -8 -48 -74 -41 -102 8 -30 32 -31 41 -3 5 13 12 18 22 14 9 -3 24
2 34 11 18 16 19 54 3 132 -7 33 -56 30 -84 -5z m50 -92 c0 -6 -4 -13 -10 -16
-5 -3 -10 1 -10 9 0 9 5 16 10 16 6 0 10 -4 10 -9z"/>
<path d="M7352 6946 c-18 -13 -36 -27 -40 -31 -11 -12 41 16 67 36 34 27 12
22 -27 -5z"/>
<path d="M8016 6058 c-3 -123 -3 -452 1 -733 l8 -510 8 305 c4 171 4 369 -2
451 -5 81 -6 273 -3 428 3 154 3 281 0 281 -3 0 -9 -100 -12 -222z"/>
<path d="M6645 6174 c-77 -51 -111 -79 -54 -46 20 12 44 22 53 22 10 0 14 5
11 10 -3 6 -3 10 2 10 9 1 71 50 63 50 -3 0 -37 -21 -75 -46z"/>
<path d="M6476 5419 c-8 -636 -3 -900 15 -804 9 47 9 1091 0 1315 -4 107 -9
-52 -15 -511z"/>
<path d="M6513 6025 c0 -22 2 -30 4 -17 2 12 2 30 0 40 -3 9 -5 -1 -4 -23z"/>
<path d="M7205 6033 c-37 -9 -239 -111 -396 -200 -193 -109 -195 -110 -189
-117 3 -3 104 50 225 116 212 116 372 194 381 185 6 -5 -67 -50 -313 -191
-112 -63 -231 -134 -266 -156 l-64 -40 -5 -97 c-3 -54 -3 -122 1 -150 l6 -53
290 135 c301 140 379 179 406 201 12 11 14 25 8 71 -4 32 -8 110 -8 174 -1
133 -5 139 -76 122z m49 -297 c6 -38 4 -42 -27 -62 -18 -12 -89 -48 -158 -79
-68 -32 -200 -95 -293 -142 -93 -46 -170 -83 -171 -81 -1 2 -5 59 -8 128 -6
122 -6 125 16 136 106 51 559 311 601 346 21 16 21 16 28 -95 3 -61 9 -129 12
-151z"/>
<path d="M7157 5840 c-15 -12 -27 -29 -28 -38 0 -14 -2 -13 -9 3 -9 19 -9 19
-16 -2 -6 -23 -24 -32 -24 -13 0 6 -4 10 -10 10 -5 0 -10 -6 -10 -14 0 -14
-33 -29 -77 -34 -7 -1 -19 -14 -27 -29 -14 -26 -15 -27 -16 -5 0 12 -4 22 -10
22 -6 0 -10 -32 -10 -77 1 -59 3 -74 11 -60 6 9 14 15 18 12 15 -9 34 24 29
50 -3 14 1 33 8 42 12 16 13 13 14 -25 0 -36 3 -43 18 -40 13 2 18 15 20 56 3
57 22 73 22 18 0 -47 23 -64 44 -34 21 30 20 37 -4 31 -11 -3 -20 -1 -20 5 0
14 26 33 34 25 4 -4 9 3 13 15 4 18 8 20 26 11 20 -11 20 -12 -4 -30 -19 -14
-21 -20 -12 -30 10 -10 18 -8 38 11 30 29 31 40 4 68 -11 12 -17 27 -13 33 4
8 9 7 15 -2 6 -11 9 -10 15 4 11 31 -10 40 -39 17z m-210 -197 c-3 -10 -5 -2
-5 17 0 19 2 27 5 18 2 -10 2 -26 0 -35z"/>
<path d="M6884 5735 c-9 -22 1 -29 15 -11 8 10 9 16 1 21 -5 3 -13 -1 -16 -10z"/>
<path d="M6886 5683 c-3 -4 -14 -8 -24 -9 -9 -2 -18 -7 -20 -13 -2 -5 -9 -8
-17 -5 -7 3 -23 -4 -34 -15 -12 -12 -21 -15 -23 -9 -7 19 -28 -2 -28 -27 0
-12 -6 -25 -14 -28 -9 -4 -16 -24 -19 -49 -2 -29 -4 -19 -5 30 -2 78 -22 95
-22 19 0 -26 -4 -37 -8 -29 -5 8 -16 10 -27 6 -15 -6 -17 -4 -12 10 4 10 7 19
7 22 0 2 8 0 17 -3 13 -5 15 -2 10 11 -4 10 -7 20 -7 22 0 2 -7 4 -15 4 -24 0
-35 -35 -35 -116 0 -68 2 -75 16 -64 8 7 14 23 13 34 -2 35 1 46 12 46 8 0 9
-11 5 -31 -5 -27 -4 -30 9 -19 11 9 15 9 15 1 0 -7 16 -2 40 11 37 21 40 26
41 68 0 40 1 42 10 20 6 -14 8 -33 5 -43 -3 -11 0 -17 7 -14 7 2 13 27 15 55
3 57 22 72 22 19 0 -19 3 -37 7 -40 12 -13 33 16 33 47 0 17 5 38 10 46 7 11
10 5 10 -22 0 -39 13 -51 24 -22 3 9 6 33 6 55 0 37 -8 48 -24 32z m-149 -165
c-3 -7 -5 -2 -5 12 0 14 2 19 5 13 2 -7 2 -19 0 -25z"/>
<path d="M7630 5883 c0 -175 19 -713 27 -763 6 -33 6 -33 13 -10 4 17 12 24
26 23 60 -6 162 -25 174 -33 12 -7 16 -48 20 -207 3 -109 6 88 5 437 l0 634
-110 32 c-169 50 -155 61 -155 -113z m99 108 c36 -11 86 -23 111 -28 l45 -9 0
-417 c0 -410 0 -417 -20 -417 -19 0 -20 8 -23 228 -1 125 -5 304 -8 398 -6
152 -5 172 10 177 9 4 16 12 16 18 0 8 -7 7 -22 -3 -24 -15 -59 -12 -147 12
-34 9 -41 15 -41 35 0 30 -3 30 79 6z m1 -219 l0 -134 -32 7 c-18 4 -36 9 -40
12 -5 2 -8 67 -8 143 l0 139 40 -17 40 -17 0 -133z m54 128 l26 -10 0 -139 0
-139 -30 11 -30 11 0 138 c0 76 2 138 4 138 3 0 16 -4 30 -10z m-62 -289 c4
-3 10 -60 14 -125 l7 -119 -24 6 c-13 4 -32 7 -41 7 -16 0 -18 13 -18 125 l0
125 28 -6 c15 -4 30 -9 34 -13z m87 -17 c2 -2 6 -56 9 -120 l5 -117 -29 7
c-16 4 -30 8 -30 9 -1 1 -5 55 -9 120 l-7 118 28 -7 c16 -4 31 -8 33 -10z
m-74 -256 c6 -5 12 -49 13 -98 4 -89 4 -90 -20 -90 -47 0 -56 18 -60 117 l-3
92 30 -6 c17 -3 35 -10 40 -15z m72 -6 c6 -4 15 -49 19 -106 6 -92 6 -99 -10
-93 -10 4 -25 7 -34 7 -15 0 -17 14 -18 100 0 84 2 100 15 100 9 0 21 -4 28
-8z"/>
<path d="M3701 5859 c-52 -28 -61 -29 -187 -29 -153 0 -190 8 -129 26 39 12
39 12 -38 13 -45 1 -91 -5 -111 -13 -42 -18 -76 -61 -76 -98 l0 -29 -27 19
c-16 11 -38 23 -51 26 -35 11 -90 -12 -107 -45 -17 -32 -12 -35 25 -14 26 15
77 19 104 9 28 -11 17 -19 -24 -19 -33 -1 -45 -7 -75 -40 -89 -100 -117 -187
-113 -352 l3 -108 20 33 c43 71 44 72 43 7 -1 -73 17 -119 65 -165 19 -19 56
-55 81 -80 l46 -45 -30 -10 c-17 -6 -36 -21 -43 -34 -13 -26 -37 -36 -126 -51
-41 -7 -63 -18 -87 -42 -19 -18 -33 -37 -34 -43 0 -5 5 -3 11 5 9 12 10 12 5
-3 -3 -10 -6 -21 -6 -24 0 -3 -6 0 -13 6 -10 8 -14 7 -14 -4 0 -8 3 -15 6 -15
12 0 4 -131 -9 -143 -10 -9 -11 -9 -5 2 5 10 4 12 -4 7 -6 -4 -9 -11 -6 -17 3
-5 -6 -26 -20 -46 l-25 -38 5 95 c7 112 23 211 37 231 7 10 8 6 4 -16 -4 -19
-3 -25 2 -17 5 8 12 13 16 13 19 -3 26 0 26 13 0 8 4 16 9 18 5 2 12 17 16 33
6 27 5 28 -8 13 -15 -19 -47 -25 -47 -9 0 19 44 63 83 83 35 17 52 20 109 14
37 -3 68 -4 68 -1 0 4 -20 15 -45 26 -43 19 -55 20 -164 10 -134 -11 -205 -33
-285 -86 -62 -41 -138 -135 -187 -232 -34 -66 -35 -79 -24 -184 7 -60 4 -77
-30 -178 l-37 -112 2 -232 c2 -284 6 -311 56 -354 62 -55 133 -76 267 -81
l118 -4 -7 -58 -6 -58 35 -11 c35 -12 35 -12 43 -89 12 -112 7 -236 -10 -320
-9 -40 -16 -93 -16 -117 0 -24 -4 -46 -9 -50 -17 -10 -137 -188 -174 -255 -19
-36 -40 -82 -47 -103 -7 -21 -18 -41 -26 -44 -7 -2 -21 -25 -30 -49 -13 -34
-14 -50 -6 -68 9 -21 4 -35 -35 -102 -25 -44 -53 -90 -62 -104 -10 -14 -20
-32 -23 -41 -11 -28 19 -75 67 -107 l48 -31 -134 -4 -134 -3 150 -3 c109 -3
136 -6 100 -11 l-50 -7 62 -1 c98 -3 88 -22 -11 -22 -47 0 -87 -3 -89 -7 -3
-5 36 -7 85 -5 77 3 102 0 162 -22 97 -34 160 -41 246 -26 96 16 120 38 120
112 0 64 -16 91 -73 119 -67 34 -113 97 -88 122 18 18 13 45 -9 52 -21 7 -27
21 -11 27 11 4 61 103 61 122 0 8 19 39 43 68 143 178 157 207 248 510 13 42
27 74 31 72 5 -3 34 -56 64 -117 31 -62 80 -148 109 -192 44 -66 56 -93 65
-150 13 -77 57 -195 98 -265 14 -25 27 -59 27 -76 2 -34 42 -93 81 -118 13 -9
24 -25 24 -35 0 -10 14 -49 31 -87 18 -38 35 -83 39 -100 l7 -31 -133 -12
c-73 -7 -150 -10 -171 -7 -34 5 -35 5 -9 -4 46 -14 439 -24 651 -15 144 6 182
10 156 17 -19 5 -73 8 -122 6 -48 -2 -85 0 -83 3 2 4 -14 9 -37 11 -22 2 -43
0 -45 -4 -3 -4 -14 -8 -25 -8 -27 0 76 92 140 125 72 36 175 136 207 201 32
67 28 92 -28 145 -34 32 -48 39 -82 39 -23 0 -65 -12 -96 -26 -30 -14 -56 -21
-58 -16 -2 6 -20 8 -42 5 -37 -5 -38 -4 -58 40 -14 32 -28 48 -45 52 -18 5
-26 15 -30 40 -3 18 -21 69 -39 112 -19 43 -47 119 -62 168 -15 50 -49 135
-76 190 -26 55 -51 114 -54 130 -3 17 -25 90 -48 163 l-42 132 22 16 c18 12
22 25 22 64 0 39 5 54 25 74 22 22 25 34 25 93 0 37 -5 86 -10 108 -12 45 -14
149 -5 199 l7 32 32 -32 c40 -40 76 -50 124 -35 42 12 206 146 331 268 77 76
83 85 79 115 -4 27 1 40 28 72 52 61 67 132 37 176 -9 13 -17 33 -18 45 -1 26
-83 115 -106 115 -22 0 -38 -20 -45 -58 l-6 -30 -34 14 c-25 11 -40 12 -54 4
-23 -12 -26 -42 -6 -59 34 -28 27 -131 -9 -131 -7 0 -28 -19 -46 -42 -39 -49
-149 -132 -160 -121 -25 25 -97 195 -103 243 -10 74 -89 219 -128 234 -16 6
-28 18 -28 28 0 23 13 23 78 -2 101 -39 154 -24 220 62 52 67 81 133 82 179 0
23 7 42 20 54 27 24 25 49 -4 72 -22 18 -23 23 -18 113 l4 95 43 1 c25 0 57
10 76 22 19 12 45 27 59 34 14 7 26 13 28 14 1 1 -12 17 -30 37 -18 19 -47 55
-64 79 l-31 44 24 17 c28 22 49 61 58 110 5 25 4 37 -4 37 -6 0 -11 -4 -11 -8
0 -15 -50 -32 -94 -32 -30 0 -55 8 -80 25 -20 14 -52 36 -71 49 -20 14 -41 26
-46 28 -7 2 0 20 15 42 14 21 26 47 26 57 0 11 -1 18 -2 18 -2 -1 -27 -15 -57
-30z m-391 -13 c0 -2 -18 -15 -40 -30 -23 -15 -50 -41 -60 -59 -16 -26 -20
-28 -20 -12 0 32 29 65 74 86 45 20 46 21 46 15z m384 -27 c-3 -6 -27 -20 -53
-32 -39 -17 -65 -20 -171 -19 -135 2 -182 -7 -205 -41 -22 -31 -18 -8 5 30 31
52 46 55 213 49 121 -5 158 -3 182 8 38 18 37 18 29 5z m72 -114 c86 -61 131
-78 175 -67 47 12 49 8 9 -13 -60 -31 -106 -18 -180 50 -19 18 -48 40 -65 48
-26 14 -27 16 -9 17 12 0 44 -16 70 -35z m-708 -66 c-56 -58 -86 -107 -114
-185 -21 -57 -24 -62 -20 -29 15 109 69 213 126 242 45 23 47 14 8 -28z m617
-220 c28 -20 73 -48 101 -62 62 -31 67 -46 58 -159 -7 -79 -7 -82 19 -102 32
-26 24 -45 -24 -56 -31 -7 -32 -9 -11 -15 26 -9 26 -14 9 -81 -16 -62 -94
-166 -137 -184 -37 -15 -79 -7 -179 35 -45 19 -66 24 -74 16 -8 -8 -8 -14 1
-23 16 -16 15 -43 -4 -79 l-15 -30 -35 30 c-18 17 -59 46 -89 66 l-55 35 23
52 c13 29 34 83 46 121 14 41 28 67 37 67 24 0 15 14 -23 35 -46 25 -72 60
-80 108 -12 76 37 127 94 96 25 -14 53 -57 53 -83 0 -8 4 -26 10 -40 9 -25 10
-25 39 -8 33 18 46 44 55 106 6 47 23 68 36 46 7 -11 13 -12 34 -2 33 15 48
54 44 114 -2 29 1 44 7 40 6 -3 33 -22 60 -43z m-838 -475 c-74 -77 -116 -198
-117 -335 l0 -67 -157 -4 c-102 -2 -161 0 -165 7 -21 29 -7 92 36 165 96 162
205 242 352 259 38 5 73 9 78 10 4 0 -8 -15 -27 -35z m344 -46 c36 -20 49 -45
33 -61 -4 -4 -19 2 -34 13 -16 11 -34 20 -41 20 -24 0 45 -61 109 -97 70 -39
166 -112 159 -120 -3 -2 -16 2 -29 11 -12 8 -35 17 -50 20 -14 2 -35 9 -46 15
-12 6 -29 11 -39 11 -23 0 -87 32 -132 65 -40 29 -111 33 -176 10 -66 -24 -51
-9 30 30 59 28 83 34 109 30 31 -6 33 -5 34 24 1 57 14 62 73 29z m-85 -143
c42 -27 69 -102 72 -202 5 -132 -31 -240 -122 -368 -38 -52 -47 -54 -21 -5 8
15 28 77 45 136 57 203 34 387 -52 418 -36 13 -93 -1 -129 -31 -27 -23 -31
-24 -28 -7 4 20 93 69 139 77 33 6 70 -1 96 -18z m-72 -71 c25 -24 33 -45 41
-95 9 -59 -24 -182 -69 -259 -17 -30 -38 -67 -46 -82 -7 -16 -16 -28 -19 -28
-3 1 -19 19 -34 41 -36 52 -43 45 -17 -15 11 -26 20 -57 20 -69 0 -21 -1 -20
-23 6 -23 29 -85 53 -100 38 -4 -4 13 -14 38 -21 25 -7 48 -17 51 -21 6 -11 6
-11 -34 0 -20 6 -42 6 -55 1 -20 -8 -18 -9 11 -9 62 -2 101 -26 123 -78 11
-26 28 -66 37 -88 9 -22 32 -61 50 -87 17 -26 32 -54 32 -62 0 -30 -143 -136
-183 -136 -17 0 -163 235 -207 334 -56 122 -43 158 159 455 110 161 183 218
225 175z m232 -12 c28 -23 44 -92 44 -192 0 -64 3 -82 16 -87 8 -3 22 1 31 9
13 13 13 28 3 112 -7 53 -10 100 -6 103 3 3 0 13 -7 21 -10 13 -8 14 13 7 37
-11 77 -38 63 -42 -7 -3 -22 1 -33 7 -12 6 -24 9 -27 6 -3 -2 12 -12 33 -21
30 -12 44 -14 63 -5 l24 11 -6 -99 c-6 -83 -4 -102 8 -112 30 -24 40 4 40 108
0 53 4 99 9 102 15 8 34 -82 41 -189 4 -55 0 -208 -9 -356 -15 -241 -15 -267
0 -356 19 -105 14 -165 -14 -173 -9 -2 -44 -10 -77 -17 -87 -18 -95 -33 -12
-25 l67 7 0 -40 0 -39 -137 -7 c-168 -9 -356 -1 -483 21 -140 24 -140 24 -127
74 10 35 15 40 32 35 11 -3 79 -19 150 -35 146 -33 275 -46 357 -36 75 10 79
20 77 212 l-2 153 -126 3 c-122 3 -127 2 -154 -22 -31 -27 -47 -18 -40 23 4
19 -15 57 -77 154 -13 20 -11 25 26 65 54 58 108 156 146 264 26 77 31 104 32
199 0 61 -2 125 -6 143 -7 30 -6 32 20 32 15 0 37 -8 48 -18z m271 -25 c-3 -8
-14 -17 -25 -19 -16 -4 -19 -1 -15 16 11 49 13 51 30 34 9 -9 13 -23 10 -31z
m-212 11 c11 -34 23 -224 15 -232 -7 -7 -10 15 -10 60 -1 68 -10 132 -25 167
-4 10 -3 17 4 17 7 0 14 -6 16 -12z m141 -35 c-3 -3 -13 -2 -23 1 -17 7 -17 8
2 22 18 13 20 13 23 -1 2 -9 1 -19 -2 -22z m674 -26 c0 -6 -3 -7 -7 -3 -4 4
-15 -8 -25 -26 l-17 -33 -1 37 c0 20 3 44 6 53 6 14 8 14 25 -1 11 -9 19 -22
19 -27z m-544 -29 c9 -17 17 -64 20 -107 l4 -76 -14 80 c-7 44 -21 95 -30 114
-10 18 -13 30 -7 26 6 -3 18 -20 27 -37z m-87 -90 c1 -26 -2 -49 -6 -51 -5 -3
-8 36 -9 86 0 69 2 82 7 52 4 -22 8 -61 8 -87z m533 66 c43 -30 78 -81 78
-112 0 -31 18 -37 26 -8 6 24 6 24 26 4 11 -11 26 -17 34 -14 28 11 13 -24
-31 -70 -24 -27 -46 -52 -48 -58 -4 -11 -82 40 -111 72 -18 21 -16 59 3 47 15
-9 1 64 -20 111 -10 22 -19 43 -19 47 0 14 25 6 62 -19z m98 -4 c-6 -12 -14
-19 -17 -17 -2 3 1 15 7 27 6 12 14 19 17 17 2 -3 -1 -15 -7 -27z m50 2 c0
-18 -10 -37 -27 -53 -23 -21 -25 -22 -19 -4 4 11 10 35 13 53 7 40 33 43 33 4z
m-1511 -38 c33 -4 61 -11 61 -17 0 -6 -27 -52 -61 -104 -33 -51 -69 -114 -80
-138 l-20 -45 -118 0 -119 0 25 78 c13 42 32 109 42 147 17 63 22 71 47 76 40
9 149 10 223 3z m1545 -30 c10 -26 7 -34 -13 -34 -26 0 -36 17 -21 35 16 19
26 19 34 -1z m-215 -155 c29 -28 69 -57 88 -65 l35 -15 -22 -24 -23 -24 -41
29 c-22 15 -57 45 -77 67 -30 31 -35 42 -28 61 4 12 10 22 12 22 2 0 27 -23
56 -51z m-320 -95 c-14 -7 -35 -23 -46 -38 -12 -14 -23 -26 -26 -26 -3 0 1 22
8 50 7 27 16 73 20 101 l7 52 32 -64 31 -64 -26 -11z m267 36 c26 -28 63 -60
82 -72 l36 -22 -60 -54 c-32 -30 -103 -90 -157 -133 -119 -96 -133 -98 -206
-33 -49 44 -51 48 -50 97 0 29 3 59 7 68 8 18 112 112 118 106 2 -2 -7 -29
-22 -60 -14 -32 -24 -69 -22 -84 l4 -28 8 30 c15 53 56 115 94 139 20 13 53
40 72 59 19 19 38 35 42 36 4 0 28 -22 54 -49z m-971 -83 c-15 -35 -35 -58
-35 -38 0 13 41 83 46 78 3 -2 -2 -20 -11 -40z m-401 -44 c3 -21 17 -64 30
-96 17 -41 21 -59 12 -64 -6 -4 -60 -9 -119 -11 l-109 -4 4 106 3 106 86 0 86
0 7 -37z m-219 -95 l0 -103 132 1 c134 1 166 -8 70 -21 -68 -9 -131 -37 -150
-67 -9 -12 -23 -54 -32 -92 l-18 -70 29 -24 c20 -16 22 -20 7 -13 -12 6 -31
23 -43 38 -22 27 -22 32 -15 233 6 178 9 220 18 220 1 0 2 -46 2 -102z m335
-158 c6 -11 8 -20 6 -20 -3 0 -10 9 -16 20 -6 11 -8 20 -6 20 3 0 10 -9 16
-20z m66 -117 c8 -30 -4 -63 -23 -63 -13 0 -13 3 -3 15 7 8 9 15 5 15 -4 0 -2
7 5 15 7 8 8 15 3 15 -5 0 -15 17 -21 38 l-11 37 19 -25 c11 -14 23 -35 26
-47z m614 35 c0 -11 -227 -10 -234 1 -4 5 45 9 114 8 66 0 120 -4 120 -9z
m-321 -25 c11 -24 9 -29 -33 -72 -26 -26 -59 -54 -75 -64 -28 -16 -28 -16 -40
9 -7 16 -17 24 -25 21 -8 -3 -17 -3 -20 0 -3 4 22 23 57 44 34 20 73 49 86 63
30 32 35 32 50 -1z m56 -63 c-19 -37 -81 -107 -106 -120 -10 -6 -24 -7 -33 -4
-11 4 2 23 55 75 38 39 75 82 81 97 11 26 12 26 15 5 2 -12 -3 -36 -12 -53z
m169 60 l92 0 3 -124 c3 -142 5 -138 -85 -150 -56 -7 -252 17 -285 34 -19 11
-18 13 20 40 48 35 107 120 122 173 7 28 14 37 25 33 9 -3 57 -6 108 -6z
m-318 -237 c-3 -3 -39 3 -81 13 -91 21 -99 32 -89 111 l7 57 84 -89 c46 -48
81 -90 79 -92z m-373 70 c-7 -2 -19 -2 -25 0 -7 3 -2 5 12 5 14 0 19 -2 13 -5z
m901 -265 c41 -149 109 -354 143 -426 24 -51 43 -95 43 -98 0 -2 -8 -4 -19 -4
-10 0 -34 -7 -54 -15 -19 -8 -37 -11 -41 -8 -3 4 -6 1 -6 -6 0 -7 8 -10 18 -7
59 17 105 27 108 23 3 -2 -16 -10 -41 -16 -58 -15 -58 -26 0 -18 41 6 47 4 55
-16 40 -94 110 -290 110 -306 0 -15 -13 -23 -57 -36 -32 -9 -75 -30 -97 -47
-42 -34 -40 -35 -78 37 -19 37 -88 291 -88 326 0 9 7 19 15 23 8 3 15 10 15
16 0 7 -6 8 -18 1 -15 -8 -29 6 -93 92 -79 106 -149 219 -149 240 0 7 -4 6
-11 -3 -9 -12 -10 -13 -7 0 3 8 26 20 52 26 50 13 90 38 45 28 -13 -3 -1 6 26
19 57 29 51 33 -19 12 -43 -13 -47 -13 -36 0 7 8 17 15 22 15 5 0 30 16 55 35
48 37 44 46 -8 19 -37 -19 -46 -13 -31 21 7 14 12 37 12 50 0 21 5 24 48 28
26 2 55 4 65 5 10 1 19 -4 21 -10z m-542 -22 c4 -6 5 -18 2 -26 -8 -23 -48
-79 -53 -75 -2 3 8 22 23 43 37 54 32 64 -9 17 l-35 -40 0 52 0 53 33 -7 c17
-3 35 -11 39 -17z m303 15 l80 -8 -82 -1 c-45 -1 -85 -7 -88 -12 -4 -7 20 -8
74 -4 92 8 91 8 65 -68 -26 -77 -68 -103 -134 -82 -22 7 -24 6 -11 -9 11 -14
11 -17 0 -21 -41 -13 -43 -14 -22 -15 12 -1 24 -5 28 -10 6 -10 -79 -299 -98
-336 -6 -11 -13 -33 -17 -50 -4 -16 -11 -29 -16 -29 -98 13 -124 13 -124 0 0
-8 21 -25 46 -37 25 -13 47 -26 49 -29 2 -3 -34 -57 -81 -119 -46 -63 -84
-118 -84 -122 0 -5 -12 -9 -27 -9 -31 1 -192 35 -200 43 -2 3 14 30 36 61 23
30 41 57 41 60 0 3 20 36 44 73 24 37 55 92 70 121 24 47 29 51 47 41 11 -6
23 -8 26 -6 2 3 -5 10 -16 17 -33 17 -25 32 14 24 43 -8 46 3 5 17 -32 12 -41
39 -13 39 15 0 14 2 -3 18 -19 18 -19 18 -26 -20 -15 -82 -206 -413 -247 -426
-46 -15 110 268 208 377 21 23 31 45 31 66 0 17 9 80 20 140 11 60 20 125 20
145 0 49 8 55 39 28 14 -13 20 -15 12 -6 -11 15 -9 22 13 51 14 18 32 49 40
69 l15 35 93 1 c51 0 129 -3 173 -7z m85 -55 c-6 -20 -9 -40 -6 -45 3 -5 -2
-15 -11 -22 -14 -12 -15 -11 -10 6 3 11 11 40 17 64 6 23 14 41 17 38 3 -3 0
-22 -7 -41z m46 -413 c44 -63 81 -120 81 -127 1 -14 37 -155 64 -256 11 -41
34 -96 49 -122 16 -25 26 -49 23 -52 -4 -3 -23 24 -44 61 -39 72 -73 177 -83
255 -6 48 -39 123 -60 136 -22 13 -87 123 -122 206 -39 93 -42 107 -11 53 12
-22 58 -91 103 -154z m-361 -193 c4 -7 -3 -8 -22 -4 -38 9 -42 14 -10 14 14 0
29 -5 32 -10z m-18 -26 c-3 -3 -12 -4 -19 -1 -8 3 -5 6 6 6 11 1 17 -2 13 -5z
m-302 -281 c61 -15 111 -28 113 -29 2 -1 -4 -17 -13 -34 -17 -33 -17 -33 -80
-27 -67 5 -195 56 -195 77 0 28 22 52 43 46 12 -3 72 -18 132 -33z m1167 10
c34 -31 23 -50 -39 -68 -79 -23 -111 -41 -159 -86 l-40 -39 -17 36 c-17 34
-17 36 4 65 60 84 202 137 251 92z m329 -50 c12 -14 12 -17 -1 -21 -8 -2 -60
-50 -115 -107 -64 -66 -120 -113 -155 -131 -30 -16 -76 -50 -102 -76 -27 -27
-50 -48 -53 -48 -2 0 -9 9 -14 19 -9 16 -8 18 8 14 12 -3 23 2 30 15 8 15 3
29 -24 73 -19 29 -35 58 -35 64 0 8 21 9 65 4 94 -9 169 19 180 69 11 51 42
89 96 116 61 30 101 33 120 9z m-246 -23 c-3 -5 -12 -10 -18 -10 -7 0 -6 4 3
10 19 12 23 12 15 0z m-1332 -58 c12 -26 5 -36 -20 -28 -34 12 -66 43 -60 59
5 13 11 14 38 4 17 -7 36 -22 42 -35z m1254 32 c-3 -3 -12 -4 -19 -1 -8 3 -5
6 6 6 11 1 17 -2 13 -5z m63 -2 c0 -4 -10 -9 -22 -9 -18 -2 -20 0 -8 7 18 12
30 13 30 2z m290 -16 c-19 -13 -68 -60 -108 -105 -48 -53 -97 -95 -143 -122
-38 -23 -97 -66 -130 -96 -34 -30 -63 -52 -65 -50 -10 10 118 123 181 160 71
43 98 67 197 175 38 42 64 62 79 62 21 0 20 -2 -11 -24z m-433 8 c-3 -4 -2
-15 4 -25 8 -16 4 -21 -24 -32 -18 -8 -45 -28 -59 -45 l-26 -31 -6 25 c-8 31
4 48 63 86 43 27 62 35 48 22z m-1127 -18 c0 -2 -7 -9 -15 -16 -12 -10 -15
-10 -15 4 0 9 7 16 15 16 8 0 15 -2 15 -4z m11 -29 c-10 -9 -11 -8 -5 6 3 10
9 15 12 12 3 -3 0 -11 -7 -18z m106 17 c-3 -3 -12 -4 -19 -1 -8 3 -5 6 6 6 11
1 17 -2 13 -5z m1079 -9 c17 -16 14 -18 -10 -9 -9 3 -16 10 -16 15 0 13 9 11
26 -6z m-1334 -30 c6 -14 15 -25 20 -25 5 0 6 4 3 10 -3 5 0 8 7 5 7 -3 26
-28 42 -56 18 -33 49 -66 88 -95 l60 -43 28 21 c39 29 121 36 155 14 21 -14
26 -24 23 -49 -3 -28 -7 -33 -43 -39 -62 -11 -176 -9 -220 3 -42 12 -137 73
-169 108 -10 11 -22 19 -26 16 -4 -2 -16 4 -28 15 -16 15 -19 25 -12 52 19 84
50 111 72 63z m278 -5 c-6 -11 -16 -20 -22 -20 -7 0 -7 4 1 13 6 8 8 17 4 20
-3 4 1 7 11 7 14 0 15 -4 6 -20z m1145 1 c-3 -6 -14 -11 -23 -11 -13 0 -13 2
4 14 21 15 30 14 19 -3z m-1255 5 c0 -3 -4 -8 -10 -11 -5 -3 -10 -1 -10 4 0 6
5 11 10 11 6 0 10 -2 10 -4z m1170 -21 c0 -8 -4 -15 -10 -15 -5 0 -7 7 -4 15
4 8 8 15 10 15 2 0 4 -7 4 -15z m-1160 -9 c0 -2 -7 -6 -15 -10 -8 -3 -15 -1
-15 4 0 6 7 10 15 10 8 0 15 -2 15 -4z m55 -36 c3 -5 -3 -10 -14 -10 -12 0
-21 5 -21 10 0 6 6 10 14 10 8 0 18 -4 21 -10z m-110 -10 c-3 -5 -10 -10 -16
-10 -5 0 -9 5 -9 10 0 6 7 10 16 10 8 0 12 -4 9 -10z m16 -33 c-10 -9 -11 -8
-5 6 3 10 9 15 12 12 3 -3 0 -11 -7 -18z m164 13 c3 -5 2 -10 -4 -10 -5 0 -13
5 -16 10 -3 6 -2 10 4 10 5 0 13 -4 16 -10z m892 -32 c0 -40 -1 -41 -9 -15 -9
24 -6 57 5 57 2 0 4 -19 4 -42z m-947 6 c0 -11 7 -14 23 -10 22 6 22 6 -1 -6
-19 -9 -25 -9 -33 3 -12 19 -11 42 1 34 6 -3 10 -13 10 -21z m-260 -84 c102
-78 162 -104 250 -108 47 -3 97 2 135 12 32 8 61 13 64 11 11 -12 -82 -38
-151 -42 -95 -7 -184 21 -255 80 -26 21 -64 47 -84 58 -37 19 -79 62 -79 83 0
6 12 -2 28 -17 15 -15 56 -50 92 -77z m233 50 c-7 -8 -22 24 -16 34 4 5 10 1
13 -10 4 -10 6 -21 3 -24z m1017 -200 c11 -7 -4 -10 -48 -10 -40 0 -61 4 -57
10 8 13 85 13 105 0z"/>
<path d="M3722 5314 c-34 -23 -27 -31 28 -30 54 1 59 6 34 30 -19 20 -34 20
-62 0z"/>
<path d="M3282 5258 c-7 -7 -12 -19 -12 -27 0 -11 3 -11 13 4 8 10 19 15 26
11 9 -6 8 -13 -4 -27 -16 -17 -16 -20 5 -54 12 -19 26 -35 31 -35 5 0 0 13
-12 30 -13 16 -19 33 -15 37 4 4 11 2 15 -6 6 -10 10 -9 15 4 3 10 -3 29 -15
46 -23 32 -29 35 -47 17z"/>
<path d="M3741 5211 c-14 -25 -14 -88 -1 -96 23 -14 41 17 38 63 -3 50 -20 65
-37 33z"/>
<path d="M3651 4987 c-17 -45 -13 -95 10 -118 27 -27 45 -22 86 28 l35 42 -41
11 c-23 6 -48 22 -60 38 l-20 27 -10 -28z m78 -63 c11 -3 11 -7 1 -19 -16 -19
-29 -19 -52 2 -34 31 -15 38 51 17z"/>
<path d="M3531 3974 c0 -11 3 -14 6 -6 3 7 2 16 -1 19 -3 4 -6 -2 -5 -13z"/>
<path d="M3521 3934 c0 -11 3 -14 6 -6 3 7 2 16 -1 19 -3 4 -6 -2 -5 -13z"/>
<path d="M2525 4495 c-5 -2 -30 -6 -55 -9 l-45 -7 -3 -57 c-2 -41 0 -53 8 -42
5 8 10 32 10 53 0 21 3 36 8 34 4 -3 7 -41 7 -86 0 -81 8 -98 36 -80 11 7 10
11 -6 23 -17 13 -17 15 -3 16 11 0 15 6 11 19 -3 10 0 22 6 25 5 4 8 13 5 21
-5 12 5 13 61 8 l66 -6 -3 44 -3 44 -45 2 c-25 1 -49 0 -55 -2z m85 -54 c0 -5
-29 -11 -65 -13 -47 -2 -65 0 -65 10 0 8 20 12 65 12 36 0 65 -4 65 -9z"/>
<path d="M2600 4390 c0 -5 7 -10 15 -10 8 0 15 5 15 10 0 6 -7 10 -15 10 -8 0
-15 -4 -15 -10z"/>
<path d="M3756 4169 c-7 -18 -11 -41 -8 -53 6 -20 6 -20 10 -1 2 11 7 35 12
53 11 41 3 41 -14 1z"/>
<path d="M3646 4139 c-10 -17 -16 -33 -13 -36 3 -3 13 9 22 27 9 18 15 34 13
36 -2 2 -12 -10 -22 -27z"/>
<path d="M2981 3314 c0 -11 3 -14 6 -6 3 7 2 16 -1 19 -3 4 -6 -2 -5 -13z"/>
<path d="M3048 3293 c6 -2 18 -2 25 0 6 3 1 5 -13 5 -14 0 -19 -2 -12 -5z"/>
<path d="M6189 5832 c-145 -104 -279 -204 -279 -208 0 -7 75 45 223 154 109
81 137 104 125 102 -2 -1 -33 -22 -69 -48z"/>
<path d="M7235 5583 c-11 -8 -156 -82 -323 -164 l-303 -149 7 -212 c4 -117 8
-215 10 -217 13 -15 601 172 622 198 9 12 11 59 6 201 -3 102 -1 222 3 268 5
46 7 85 3 87 -3 2 -14 -4 -25 -12z m15 -21 c0 -5 -33 -29 -72 -54 -206 -128
-425 -239 -487 -246 -25 -2 -43 -2 -40 2 3 4 109 57 235 119 126 62 258 129
294 149 36 20 66 36 68 37 1 0 2 -3 2 -7z m-11 -130 c2 -100 1 -101 -71 -125
l-48 -16 0 70 c0 44 -4 68 -10 64 -5 -3 -10 -37 -10 -74 0 -63 -2 -69 -25 -79
-40 -18 -44 -15 -47 40 -4 76 -23 71 -23 -7 l0 -66 -95 -44 -95 -43 -5 46 c-3
26 -4 54 -2 63 2 8 36 32 75 52 104 53 266 145 312 178 22 15 41 28 41 29 1 0
2 -40 3 -88z m1 -226 c0 -57 2 -110 5 -118 4 -10 -23 -23 -96 -47 -55 -18
-102 -31 -103 -29 -2 1 -6 49 -9 105 -6 97 -5 103 16 118 43 30 47 22 47 -85
0 -60 4 -100 10 -100 6 0 10 42 10 105 l0 105 48 24 c26 14 53 25 60 26 9 0
12 -27 12 -104z m-450 -4 c0 -57 -1 -58 -33 -70 -18 -7 -36 -12 -40 -12 -4 0
-7 26 -7 59 0 57 1 58 33 69 17 5 35 10 40 11 4 1 7 -25 7 -57z m-117 42 c12
-4 15 -37 16 -181 1 -97 4 -180 6 -184 5 -6 -45 -23 -50 -17 -1 2 -5 90 -8
196 -7 202 -7 203 36 186z m343 -136 l-1 -112 -95 -28 c-52 -15 -98 -28 -102
-28 -5 0 -8 42 -8 94 l0 94 48 17 c26 9 72 29 102 45 30 16 55 29 56 30 1 0 1
-50 0 -112z m-223 -96 l4 -83 -35 -15 c-19 -7 -36 -14 -38 -14 -2 0 -4 44 -4
99 l0 98 33 10 c37 11 34 17 40 -95z m437 40 c0 -19 -492 -184 -506 -169 -3 3
109 43 248 89 139 47 254 86 256 86 1 1 2 -1 2 -6z"/>
<path d="M6135 5438 c-110 -74 -199 -140 -197 -147 1 -6 5 -124 9 -262 6 -236
5 -250 -13 -270 -19 -22 -19 -22 1 -12 11 6 99 38 195 71 252 87 240 82 233
99 -3 8 -9 11 -12 6 -10 -14 -131 -62 -260 -103 l-121 -38 -2 192 c-1 105 -2
221 -2 257 l-1 66 175 116 175 116 8 -37 c4 -20 6 -41 3 -47 -7 -19 -296 -187
-314 -183 -16 4 -17 -14 -19 -231 0 -130 2 -213 6 -184 3 28 9 53 11 55 48 31
50 30 50 -16 0 -67 18 -66 22 0 4 74 27 87 30 17 l1 -48 6 55 c5 47 9 55 28
58 16 2 20 -1 17 -15 -2 -10 0 -31 5 -48 8 -27 9 -24 10 26 l1 56 43 18 c23
10 45 20 50 23 4 2 8 -27 8 -65 l2 -68 7 68 c7 76 34 121 44 76 3 -13 7 -42 9
-64 6 -70 5 294 -2 449 l-6 149 -200 -135z m195 -197 c0 -134 -3 -170 -14
-174 -17 -7 -26 60 -26 209 0 104 7 134 32 134 4 0 8 -76 8 -169z m-50 -26 l0
-165 -50 -25 -50 -25 0 158 c0 152 5 182 32 182 4 0 8 -69 9 -152 0 -95 4
-145 9 -133 5 11 9 83 9 161 1 134 7 164 33 164 4 0 8 -74 8 -165z m-121 -221
c-6 -8 -15 -14 -20 -14 -5 0 -9 70 -9 155 0 136 2 155 18 164 16 9 17 -1 20
-141 2 -102 -1 -155 -9 -164z m-39 132 c0 -131 -2 -155 -16 -160 -9 -3 -18 -6
-20 -6 -2 0 -4 67 -4 148 0 142 6 172 32 172 4 0 8 -69 8 -154z m-82 -188
c-13 -9 -23 -16 -24 -15 0 1 3 72 9 157 5 96 13 158 21 162 8 5 12 -32 14
-140 2 -142 2 -147 -20 -164z"/>
<path d="M5472 5209 c-25 -27 -32 -30 -51 -20 -12 7 -26 9 -31 6 -6 -3 -10 -2
-10 3 0 10 -66 10 -76 -1 -4 -4 -16 -7 -26 -7 -10 0 -18 -4 -18 -10 0 -5 -21
-19 -48 -30 -57 -24 -122 -105 -122 -150 0 -16 -4 -32 -10 -35 -15 -10 -9 -75
8 -75 10 0 13 8 10 25 -3 14 -1 28 3 31 5 3 9 14 9 25 0 11 5 17 10 14 6 -3
10 -1 10 4 0 6 -4 11 -10 11 -5 0 -10 5 -10 11 0 5 5 7 12 3 7 -5 9 -2 5 9 -3
8 1 21 10 28 8 7 19 24 24 37 6 16 14 22 25 18 8 -3 12 -2 9 3 -9 16 15 24 31
10 12 -10 13 -9 8 6 -6 14 -4 16 6 10 8 -5 19 0 31 16 17 23 17 23 40 4 l22
-20 -12 23 c-7 13 -11 26 -8 28 7 7 37 -7 37 -18 0 -6 6 -6 14 1 11 9 16 9 21
0 6 -8 10 -8 16 2 6 11 13 9 32 -9 27 -25 42 -29 33 -7 -3 8 0 14 7 12 7 -1
13 10 15 25 2 19 8 25 18 21 15 -6 20 12 5 22 -5 3 -23 -9 -39 -26z"/>
<path d="M2958 4953 c6 -2 18 -2 25 0 6 3 1 5 -13 5 -14 0 -19 -2 -12 -5z"/>
<path d="M5076 4841 c5 -34 4 -39 -17 -45 -13 -3 -30 -10 -37 -14 -14 -9 -6
-42 10 -42 6 0 7 7 4 16 -4 11 -2 15 8 11 8 -3 17 -1 19 6 3 8 10 7 24 -5 30
-27 52 -23 49 9 -2 15 -8 29 -15 31 -6 2 -11 10 -11 17 0 7 -6 16 -12 18 -10
4 -10 6 -1 6 17 1 4 31 -13 31 -11 0 -13 -9 -8 -39z"/>
<path d="M2787 4748 c8 -46 13 -48 13 -5 0 21 -4 37 -10 37 -5 0 -7 -14 -3
-32z"/>
<path d="M4980 4751 c0 -18 -32 -41 -56 -41 -13 0 -24 -4 -24 -9 0 -5 -13 -14
-30 -21 -16 -7 -32 -21 -35 -31 -4 -10 -10 -19 -14 -19 -4 0 -13 -12 -20 -27
-10 -21 -9 -28 1 -34 7 -5 15 -4 16 1 2 6 8 8 13 4 5 -3 9 -1 9 5 0 5 -6 12
-12 14 -8 4 -4 8 9 12 13 4 20 11 17 16 -5 8 9 13 29 10 4 0 7 4 7 9 0 6 -5
10 -12 10 -9 0 -9 3 -1 11 6 6 23 12 37 12 14 0 23 3 20 8 -5 8 12 13 44 12 6
-1 12 5 12 13 0 8 7 14 15 14 18 0 19 12 3 28 -14 14 -28 16 -28 3z"/>
<path d="M7554 4575 c0 -88 2 -123 3 -77 2 46 2 118 0 160 -1 42 -3 5 -3 -83z"/>
<path d="M2780 4629 c0 -11 4 -18 10 -14 5 3 7 12 3 20 -7 21 -13 19 -13 -6z"/>
<path d="M6479 4555 c-8 -7 -90 -27 -184 -45 -93 -17 -226 -42 -295 -55 -69
-13 -142 -26 -163 -30 -32 -5 -37 -9 -31 -23 4 -9 9 -185 10 -390 l2 -373 -46
-20 c-57 -25 -127 -35 -136 -21 -4 6 -13 9 -21 6 -18 -7 -105 34 -105 49 0 7
-12 23 -25 36 l-25 23 -11 -30 c-7 -21 -15 -29 -28 -25 -11 3 -29 -7 -47 -27
-21 -22 -35 -29 -51 -25 -13 3 -23 1 -23 -4 0 -5 -9 -11 -20 -14 -11 -3 -20
-1 -20 4 0 4 -6 6 -14 3 -7 -3 -26 6 -42 20 -24 21 -27 27 -14 35 8 6 11 13 7
17 -3 4 -12 2 -19 -3 -7 -6 -24 -11 -38 -11 -14 0 -29 -1 -35 -3 -23 -8 -108
25 -113 43 -2 10 -13 18 -23 18 -12 0 -16 5 -13 15 4 10 0 15 -14 15 -17 0
-21 6 -19 27 2 23 -2 27 -28 27 -16 1 -40 11 -54 24 -25 23 -46 18 -36 -9 7
-18 61 -43 75 -34 6 3 13 -2 17 -12 9 -23 21 -38 62 -80 43 -44 72 -56 139
-58 42 -2 59 -8 80 -28 30 -29 73 -43 99 -32 10 4 30 9 45 10 16 1 38 9 51 18
22 14 26 12 101 -61 99 -95 116 -139 115 -300 -1 -144 -9 -196 -32 -200 -13
-3 -18 2 -17 15 4 32 1 41 -26 72 -14 17 -34 31 -45 31 -14 0 -19 7 -19 30 0
22 -6 33 -23 41 -19 9 -23 19 -25 62 -2 71 -5 82 -31 118 -28 37 -120 82 -170
82 -40 0 -121 -37 -121 -55 0 -7 -10 -1 -21 11 -43 46 -134 66 -192 42 -40
-16 -114 -78 -120 -101 -3 -11 1 -21 9 -24 8 -3 14 1 14 10 0 18 24 44 40 44
6 0 15 10 20 23 5 12 9 16 9 10 1 -18 21 -16 21 2 0 9 10 15 26 15 17 0 23 4
18 12 -5 8 -2 9 12 3 10 -4 38 -12 60 -17 23 -5 52 -20 65 -34 25 -26 44 -31
52 -11 2 6 22 21 43 32 33 18 47 19 92 12 35 -6 52 -13 52 -23 0 -9 5 -12 10
-9 18 11 61 -24 77 -63 17 -42 20 -115 4 -120 -21 -7 -11 -32 13 -32 32 0 50
-24 43 -59 -6 -28 -4 -30 25 -29 34 1 68 -30 68 -62 0 -25 -12 -26 -475 -50
-214 -11 -444 -25 -510 -30 -173 -15 -569 -39 -573 -35 -7 7 20 46 42 60 13 9
42 17 64 18 28 1 38 5 35 14 -3 7 6 17 19 23 19 9 23 18 22 53 -2 41 8 71 31
93 25 25 73 43 109 39 39 -3 86 -38 86 -63 0 -10 5 -12 18 -7 9 5 49 9 87 10
69 2 70 3 73 31 3 25 72 108 72 87 0 -4 5 -2 12 5 8 8 17 8 31 1 15 -9 18 -8
11 3 -6 10 -4 10 9 -1 10 -8 20 -11 24 -8 3 4 13 1 21 -6 13 -10 15 -9 9 5 -4
12 0 19 15 24 19 6 20 7 4 16 -11 6 -22 6 -32 -3 -8 -7 -28 -9 -48 -6 -59 9
-145 -50 -146 -100 0 -20 -5 -23 -44 -23 -25 0 -56 -4 -71 -10 -22 -8 -27 -7
-37 15 -6 13 -25 31 -43 40 -100 47 -215 -23 -215 -131 0 -34 -4 -43 -21 -47
-13 -4 -19 -11 -16 -19 3 -10 -5 -14 -30 -15 -43 -1 -83 -29 -103 -71 -12 -25
-21 -32 -45 -32 -16 -1 -57 -7 -90 -14 l-60 -14 130 -1 c121 -1 223 4 850 44
132 8 373 22 535 31 162 9 298 18 303 21 4 2 7 -9 7 -26 0 -26 -4 -30 -32 -33
-31 -3 -33 -6 -36 -45 l-3 -43 -97 -2 -97 -1 98 -6 c71 -4 100 -10 107 -21 8
-12 12 -12 18 -2 9 14 35 11 409 -40 l232 -32 92 18 c50 10 133 20 183 23 77
5 94 3 105 -11 7 -9 17 -16 22 -16 13 0 11 37 -2 62 -11 21 -11 21 16 0 16
-12 30 -20 33 -18 7 7 -87 146 -98 146 -7 0 -10 259 -10 725 0 709 0 725 19
725 16 0 21 10 26 55 4 31 6 57 4 59 -2 1 -20 12 -40 23 -31 17 -39 19 -50 8z
m20 -73 l-2 -47 -216 -43 c-185 -37 -329 -68 -418 -89 -22 -5 -23 -2 -23 44
l0 50 78 12 c91 15 506 106 542 119 35 13 41 7 39 -46z m41 -7 c0 -25 -4 -45
-10 -45 -5 0 -10 20 -10 45 0 25 5 45 10 45 6 0 10 -20 10 -45z m-54 -660 l2
-595 -62 0 -61 0 -3 509 -3 510 23 3 c22 3 23 7 22 80 -1 84 -4 80 66 86 13 2
15 -71 16 -593z m-106 500 c0 -40 -3 -45 -22 -45 -13 -1 -111 -18 -218 -39
-107 -21 -199 -35 -203 -31 -5 4 -7 23 -5 41 3 39 -10 34 258 87 201 40 190
41 190 -13z m-460 -90 c0 -65 0 -65 25 -59 25 6 25 6 25 -67 0 -41 -5 -251
-12 -466 l-12 -393 -48 0 -48 0 -2 238 c-6 629 -4 801 12 806 55 15 60 10 60
-59z m430 -35 c0 -36 -3 -40 -25 -40 -23 0 -270 -45 -307 -56 -33 -10 -18 -23
20 -19 l37 5 -35 -11 -35 -10 0 -393 0 -393 110 -7 c61 -3 136 -6 168 -6 51 0
57 -2 57 -21 0 -20 -4 -21 -57 -15 -32 3 -101 8 -153 11 -52 3 -108 8 -124 11
-28 6 -28 7 -22 58 3 28 6 234 6 459 l0 407 28 0 c15 0 90 14 167 29 77 16
146 30 153 30 8 1 12 -13 12 -39z m-7 -352 c2 -266 -1 -561 -6 -563 -1 0 -30
1 -64 3 l-63 4 0 128 c0 75 4 131 10 135 6 3 10 1 10 -4 0 -21 18 -10 24 14 4
17 1 31 -8 40 -20 20 -24 19 -29 -7 -2 -13 -6 48 -7 135 -2 86 -3 163 -4 170
-1 7 19 16 47 21 29 6 47 15 47 23 0 11 -9 12 -37 7 -21 -3 -42 -7 -47 -8 -8
-1 -9 131 0 145 2 3 26 9 53 13 71 9 80 30 10 23 -38 -4 -45 -3 -24 2 17 5 42
9 58 10 l27 1 3 -292z m-130 265 c-7 -2 -19 -2 -25 0 -7 3 -2 5 12 5 14 0 19
-2 13 -5z m-63 -13 c-14 -4 -36 -8 -50 -8 -22 0 -22 1 5 8 17 4 39 8 50 8 16
0 15 -2 -5 -8z m40 -411 c0 -242 -4 -397 -10 -403 -7 -7 -10 129 -10 390 0
356 3 424 17 410 2 -2 4 -181 3 -397z m-37 154 c-2 -131 -3 -307 -3 -390 l0
-153 -65 0 -65 0 0 379 0 380 48 6 c26 4 52 8 57 10 6 2 15 4 20 4 7 1 10 -79
8 -236z m-670 -234 c21 -17 42 -27 48 -23 8 5 9 3 5 -5 -5 -8 -3 -11 5 -10 22
4 72 -13 60 -20 -6 -4 9 -30 37 -65 46 -56 47 -57 57 -34 10 23 83 128 90 128
1 0 -13 -33 -33 -72 -35 -70 -37 -77 -36 -173 0 -55 4 -133 8 -173 6 -58 5
-73 -6 -71 -7 1 -23 1 -36 0 -20 -1 -23 -6 -20 -33 3 -30 0 -33 -28 -36 l-32
-3 10 48 c5 26 9 107 10 178 2 119 0 137 -26 212 -16 46 -35 88 -43 95 -12 10
-13 7 -8 -15 7 -26 7 -26 -31 8 -21 20 -53 45 -71 58 -18 12 -33 25 -33 30 0
17 38 5 73 -24z m325 -360 c-7 -5 -13 -23 -13 -41 0 -24 -5 -34 -19 -36 -17
-4 -18 3 -14 130 4 121 6 136 28 170 l25 37 3 -126 c2 -94 -1 -128 -10 -134z
m392 -39 c91 -6 182 -10 203 -10 36 0 37 -1 37 -35 l0 -35 -82 5 c-46 4 -138
10 -206 16 -68 5 -154 9 -191 9 -100 0 -128 8 -134 36 -6 36 -5 36 373 14z
m290 -189 l0 -178 -107 -17 c-142 -21 -150 -21 -148 6 1 12 12 26 24 32 19 8
22 15 16 43 -6 33 -6 33 35 33 40 0 40 0 40 39 0 36 3 40 28 43 20 2 26 8 25
23 -2 11 0 30 2 43 4 18 10 21 30 16 24 -6 25 -4 25 45 0 39 4 51 15 51 13 0
15 -27 15 -179z m-317 103 c98 -8 185 -14 193 -14 15 0 21 -55 7 -63 -9 -5
-130 3 -398 27 -93 9 -180 16 -192 16 -19 0 -23 6 -23 31 l0 30 118 -6 c64 -4
197 -13 295 -21z m-113 -80 c102 -8 203 -15 225 -17 37 -2 40 -4 43 -34 3 -33
3 -33 -40 -33 -24 0 -88 5 -143 10 -82 8 -442 40 -452 40 -6 0 -3 47 4 54 7 7
59 4 363 -20z m-86 -79 c147 -14 269 -25 272 -25 2 0 4 -14 4 -31 l0 -32 -84
6 c-74 5 -450 49 -532 63 -26 4 -31 8 -27 24 7 27 34 26 367 -5z m565 -67 c1
-16 -3 -28 -9 -28 -5 0 -10 21 -9 48 0 35 3 42 9 27 5 -11 9 -32 9 -47z m-617
-10 l276 -32 4 -28 c3 -16 3 -29 2 -31 -6 -5 -160 13 -377 43 -114 17 -226 30
-248 30 -37 0 -39 2 -39 31 l0 30 53 -5 c28 -3 177 -20 329 -38z"/>
<path d="M5872 4048 c-7 -7 -12 -40 -12 -78 0 -68 10 -90 42 -90 25 0 38 31
38 90 0 28 -5 60 -10 71 -12 21 -40 25 -58 7z m38 -60 c0 -56 -14 -96 -24 -68
-11 36 -13 109 -2 114 23 9 26 5 26 -46z"/>
<path d="M6053 3913 c-7 -2 -13 -9 -13 -14 0 -14 54 -10 76 6 18 13 17 14 -16
14 -19 0 -41 -3 -47 -6z"/>
<path d="M6112 3602 c4 -45 22 -49 26 -6 2 22 -2 33 -13 38 -13 5 -16 -1 -13
-32z"/>
<path d="M5696 3398 c-3 -13 -5 -54 -4 -93 l1 -70 7 90 c8 93 7 112 -4 73z"/>
<path d="M4783 4545 c-8 -22 5 -91 23 -127 12 -22 13 -33 4 -43 -7 -8 -9 -19
-5 -25 3 -5 0 -10 -8 -10 -14 0 -32 -26 -29 -41 1 -3 -10 -12 -23 -19 -27 -14
-31 -25 -15 -35 6 -4 3 -16 -6 -31 -9 -13 -14 -27 -10 -31 3 -3 0 -13 -7 -21
-13 -17 -19 -94 -5 -86 4 3 8 1 8 -5 0 -5 -6 -12 -12 -15 -10 -5 -10 -7 0 -12
6 -3 12 -16 12 -29 0 -12 7 -28 15 -35 11 -9 14 -22 10 -41 -7 -31 14 -111 26
-103 5 3 9 0 9 -5 0 -6 5 -11 10 -11 17 0 11 36 -11 64 -17 22 -19 32 -12 49
7 15 7 30 -1 46 -8 19 -8 25 2 29 24 8 12 24 -14 18 -23 -6 -24 -5 -14 15 7
11 9 23 6 26 -3 3 2 12 12 19 15 12 14 13 -13 14 l-30 0 25 20 25 20 -25 1
c-21 1 -22 2 -5 6 11 3 25 10 30 15 7 8 5 9 -7 5 -27 -9 -6 35 23 50 l23 12
-24 9 -24 9 27 18 c21 13 25 21 17 30 -9 10 -6 14 12 17 13 2 24 9 24 16 1 6
2 17 3 23 0 5 6 7 11 4 14 -9 12 19 -2 33 -8 8 -8 12 -1 12 8 0 8 7 0 25 -7
14 -15 25 -19 25 -4 0 -5 7 -2 15 4 8 1 15 -6 15 -6 0 -9 4 -5 9 3 5 0 13 -5
16 -8 5 -6 13 4 24 9 10 13 21 9 24 -11 11 -23 8 -30 -8z"/>
<path d="M7652 3971 l-4 -401 99 0 c54 0 114 3 133 6 l35 6 0 266 c0 147 -1
317 -2 378 l-3 112 -66 11 c-36 7 -94 15 -128 18 l-61 5 -3 -401z m158 361
l85 -17 4 -360 4 -360 -114 0 c-113 0 -114 0 -117 24 -4 24 -3 24 74 19 45 -3
80 -10 82 -17 16 -48 22 34 24 339 l3 350 -25 1 c-14 0 -56 9 -95 19 -91 23
-40 25 75 2z m-92 -31 c21 -5 24 -13 28 -79 2 -40 2 -76 0 -81 -3 -4 -21 -5
-41 -3 l-36 4 3 84 c2 48 7 83 13 83 6 -1 20 -4 33 -8z m97 -17 c21 -5 20 -3
16 -145 -1 -11 -9 -14 -30 -11 -29 4 -30 4 -33 83 -3 84 -2 86 47 73z m-65
-264 l0 -90 -40 0 -40 0 0 90 0 90 40 0 40 0 0 -90z m80 -6 l0 -84 -30 0 -30
0 0 88 0 89 30 -5 30 -4 0 -84z m-79 -206 c2 -143 17 -164 18 -25 l1 117 30 0
30 0 0 -120 0 -120 -80 0 -80 0 0 120 0 120 40 0 40 0 1 -92z"/>
<path d="M7120 4289 c-77 -16 -382 -83 -477 -104 -22 -5 -23 -9 -23 -123 0
-64 3 -209 7 -321 l6 -204 221 6 c122 3 267 11 324 18 l104 12 -9 36 c-4 20
-6 186 -4 369 l4 332 -29 -1 c-16 0 -72 -9 -124 -20z m124 -19 c-12 -12 -217
-70 -394 -111 -114 -27 -146 -31 -169 -22 -28 10 -28 10 -16 -14 10 -19 12
-87 8 -291 -3 -147 -9 -271 -14 -276 -5 -6 -9 32 -10 90 -1 54 -4 195 -8 312
l-6 212 24 0 c13 0 101 18 195 39 178 42 388 81 395 74 3 -2 0 -8 -5 -13z m6
-149 l0 -109 -42 -7 c-24 -3 -51 -9 -60 -11 -15 -5 -18 6 -20 98 l-3 103 60
16 c33 9 61 17 63 18 1 0 2 -48 2 -108z m-140 -31 l0 -99 -35 -7 c-20 -3 -38
-5 -40 -3 -2 3 -5 47 -6 99 l-2 95 29 6 c56 12 54 16 54 -91z m-100 -19 l0
-98 -69 -12 c-39 -6 -75 -11 -80 -11 -7 0 -11 32 -11 85 0 50 -4 85 -10 85 -6
0 -10 -36 -10 -89 0 -83 -1 -89 -22 -94 -12 -4 -23 -5 -24 -4 -1 1 -4 42 -5
91 -3 72 0 91 11 94 15 5 197 49 213 51 4 1 7 -43 7 -98z m-250 -51 c0 -88 -1
-91 -26 -100 -14 -6 -27 -10 -30 -10 -2 0 -4 42 -4 94 0 82 2 95 18 99 41 11
42 10 42 -83z m487 -142 c-4 -61 -8 -112 -10 -114 -1 -1 -26 -6 -55 -10 l-52
-7 0 111 0 111 38 6 c20 4 42 8 47 10 37 13 38 8 32 -107z m-137 -23 c0 -63
-4 -115 -9 -115 -5 0 -23 -3 -40 -6 l-32 -7 3 114 c3 111 3 113 28 120 51 14
50 16 50 -106z m-95 -15 l0 -109 -37 -6 c-21 -3 -56 -8 -78 -11 l-40 -6 -2 91
c-1 50 -2 99 -2 109 -1 13 12 20 59 28 109 21 100 29 100 -96z m-176 -52 l1
-88 -30 0 -30 0 0 104 c0 101 1 105 23 108 29 4 35 -15 36 -124z m-79 7 l0
-105 -37 0 -36 0 6 96 c4 52 9 99 12 105 4 5 17 9 31 9 24 0 24 0 24 -105z
m493 -161 l5 -42 -46 -6 c-91 -12 -87 -15 -84 68 l3 73 52 9 52 9 6 -35 c4
-19 9 -54 12 -76z m-145 14 l-3 -73 -38 -3 -38 -3 3 67 c3 63 5 69 28 75 51
14 51 14 48 -63z m-98 -12 l0 -63 -52 -7 c-102 -12 -98 -14 -98 58 l0 65 43 4
c23 2 57 4 75 5 l32 2 0 -64z m-170 -16 c0 -52 -2 -60 -19 -60 -42 0 -51 11
-51 60 0 42 3 49 23 53 47 9 47 9 47 -53z m-83 0 c-1 -27 -6 -50 -12 -50 -5 0
-19 -3 -31 -6 -19 -5 -21 -1 -23 42 -1 50 8 64 46 64 20 0 21 -5 20 -50z"/>
<path d="M1499 4052 c-25 -11 -118 -86 -119 -95 0 -5 -7 -15 -16 -24 -8 -9
-13 -22 -10 -29 9 -23 -14 -74 -34 -74 -26 0 -67 -36 -74 -65 -4 -14 -1 -35 5
-46 8 -16 8 -20 0 -15 -15 10 -68 -45 -77 -78 -4 -17 0 -43 10 -69 16 -40 16
-43 -2 -57 -10 -9 -17 -20 -15 -26 2 -6 0 -29 -5 -50 -11 -50 3 -96 48 -156
41 -54 61 -66 115 -70 29 -2 46 -10 63 -30 31 -36 88 -52 132 -36 33 11 35 10
71 -31 28 -31 41 -58 50 -99 14 -71 6 -181 -18 -230 -16 -33 -23 -37 -61 -40
l-43 -3 36 52 c37 54 42 91 14 97 -16 3 -65 -38 -86 -73 -10 -17 -12 -12 -12
37 -1 31 4 60 9 63 16 10 12 23 -7 21 -11 0 -19 7 -21 20 -4 29 -37 58 -57 51
-24 -10 -18 -57 13 -96 40 -53 70 -152 45 -150 -12 0 -73 99 -62 99 5 0 9 -4
9 -9 0 -5 7 -11 15 -15 24 -9 17 12 -10 30 -43 28 -45 6 -5 -66 l38 -69 -31
-5 c-18 -3 -59 -8 -92 -11 -81 -8 -345 -55 -370 -67 -14 -6 -8 -7 20 -3 22 3
108 14 190 25 83 11 359 38 615 60 753 65 861 77 900 102 15 9 -57 6 -222 -9
-57 -5 -68 -3 -68 10 0 26 -50 77 -76 77 -17 0 -24 6 -24 18 0 29 -42 62 -79
62 -18 0 -30 4 -26 10 9 14 -19 72 -49 99 -19 18 -41 26 -80 29 -51 4 -56 2
-96 -34 -24 -22 -46 -38 -49 -37 -3 0 -18 -6 -33 -15 -28 -16 -53 -58 -62
-103 -3 -14 -16 -31 -31 -37 -24 -11 -25 -11 -25 28 0 21 5 62 11 91 13 59 52
102 127 140 38 20 82 61 94 86 1 4 26 20 53 34 40 20 55 36 78 79 36 71 35
116 -2 168 -16 22 -34 43 -40 46 -6 4 -4 16 5 34 17 32 11 73 -18 120 -11 18
-18 36 -14 39 10 11 -34 78 -67 100 -18 12 -49 25 -69 28 -21 4 -35 11 -32 16
3 5 0 9 -5 9 -6 0 -11 10 -11 23 -1 29 -16 48 -64 81 -46 31 -91 33 -126 6
-25 -19 -25 -19 -58 6 -34 27 -86 39 -113 26z m105 -46 c27 -30 61 -34 75 -8
6 9 11 13 11 8 0 -5 6 -4 13 2 10 8 42 10 67 3 3 0 20 -14 38 -29 27 -24 33
-36 35 -75 1 -30 6 -46 13 -43 6 3 17 -1 23 -7 8 -8 11 -8 11 0 0 22 64 -6 98
-42 23 -25 31 -42 27 -55 -4 -13 3 -31 18 -52 36 -49 39 -69 17 -113 -24 -47
-24 -45 -5 -45 8 0 28 -19 45 -42 36 -49 40 -97 10 -105 -15 -4 -18 -11 -14
-30 7 -27 -15 -57 -59 -80 -26 -13 -31 -13 -46 1 -24 22 -28 20 -23 -13 3 -22
-4 -36 -30 -64 -32 -32 -92 -57 -106 -43 -3 4 -21 -8 -39 -26 -29 -28 -39 -32
-91 -32 -48 -1 -66 4 -99 27 -35 24 -43 26 -71 16 -47 -16 -97 -4 -121 30 -16
22 -28 28 -62 29 -51 2 -83 22 -104 62 -9 17 -20 30 -25 30 -5 0 -15 18 -21
41 -10 32 -10 48 0 75 7 18 10 38 6 43 -3 5 4 16 16 24 20 15 20 16 3 52 -30
65 -16 127 32 139 23 6 25 10 20 44 -9 57 32 95 89 84 28 -5 29 -4 16 12 -10
12 -11 20 -4 24 6 4 14 18 18 31 5 18 4 22 -6 16 -9 -5 -8 -1 2 11 9 10 15 24
13 29 -2 6 9 19 26 28 16 10 30 22 30 27 0 4 15 18 33 29 41 27 88 22 121 -13z
m226 -865 c0 -5 -7 -14 -15 -21 -16 -14 -18 -10 -9 14 6 17 24 22 24 7z m248
-46 c44 -18 72 -59 72 -107 0 -33 1 -33 39 -30 33 3 42 0 56 -21 9 -14 15 -34
13 -44 -2 -14 3 -17 27 -15 31 3 56 -15 68 -50 5 -13 -1 -18 -26 -23 -69 -11
-601 -54 -610 -48 -14 9 1 65 25 90 15 16 29 21 47 18 14 -3 20 -2 14 1 -23
10 -13 21 15 16 20 -3 24 -1 17 7 -13 13 -7 81 6 81 5 0 9 6 9 14 0 12 16 24
43 31 4 2 10 4 15 5 4 1 16 1 26 0 14 -1 17 3 12 15 -7 19 11 38 59 60 17 8
31 14 32 15 2 0 20 -7 41 -15z m-402 -70 c3 -14 10 -23 14 -20 5 3 13 -25 20
-62 11 -65 10 -71 -14 -126 -15 -32 -22 -56 -16 -52 5 3 10 1 10 -4 0 -6 -3
-11 -7 -11 -5 0 -19 -3 -33 -7 l-25 -6 20 22 c16 18 20 41 23 119 2 54 0 114
-6 135 -6 21 -6 37 -1 37 5 0 11 -11 15 -25z m-246 -64 c5 -11 10 -30 10 -42
0 -19 -2 -20 -16 -8 -18 15 -34 50 -27 62 8 13 22 8 33 -12z m140 -106 c0 -2
-10 -10 -22 -16 -21 -11 -22 -11 -9 4 13 16 31 23 31 12z m0 -34 c0 -5 -10
-18 -23 -28 -12 -10 -30 -30 -40 -45 -10 -16 -24 -28 -32 -28 -12 0 -10 10 10
50 14 28 29 49 33 46 5 -3 14 -1 22 5 19 11 30 11 30 0z"/>
<path d="M5778 4003 c7 -3 16 -2 19 1 4 3 -2 6 -13 5 -11 0 -14 -3 -6 -6z"/>
<path d="M7553 3655 c0 -33 2 -45 4 -27 2 18 2 45 0 60 -2 15 -4 0 -4 -33z"/>
<path d="M7788 3223 c7 -3 16 -2 19 1 4 3 -2 6 -13 5 -11 0 -14 -3 -6 -6z"/>
<path d="M7738 3213 c6 -2 18 -2 25 0 6 3 1 5 -13 5 -14 0 -19 -2 -12 -5z"/>
<path d="M4403 3158 c-18 -6 -33 -15 -33 -19 0 -12 17 -11 40 1 12 7 28 7 44
0 31 -11 36 4 7 20 -11 5 -21 10 -23 9 -2 -1 -18 -6 -35 -11z"/>
<path d="M6850 3141 c0 -5 5 -13 10 -16 6 -3 10 -2 10 4 0 5 -4 13 -10 16 -5
3 -10 2 -10 -4z"/>
<path d="M6597 2989 c8 -59 42 -161 43 -129 0 22 3 20 19 -15 l18 -40 12 35
c8 28 10 29 7 8 -4 -31 10 -39 17 -10 3 11 5 7 6 -10 1 -23 5 -26 34 -24 17 1
40 -5 50 -13 23 -19 30 -10 18 23 -14 35 -5 33 14 -4 19 -36 35 -39 35 -6 0
34 -14 66 -45 101 l-26 30 5 -33 c3 -18 2 -31 -3 -27 -5 3 -12 23 -16 45 -4
22 -11 40 -17 40 -10 0 -7 -30 6 -61 4 -9 -1 -25 -14 -40 l-21 -24 7 65 c3 36
10 69 15 75 5 5 9 16 9 25 -1 21 -20 -13 -36 -65 l-13 -40 -2 40 c-1 39 -2 39
-9 10 -7 -27 -8 -27 -8 -5 0 32 16 84 17 56 1 -11 4 -17 7 -13 3 3 3 16 -1 28
-7 22 -8 22 -21 4 -8 -10 -14 -39 -14 -64 l-1 -46 -14 30 -13 30 -2 -40 -2
-40 -10 50 c-5 28 -13 54 -17 58 -5 5 -5 -11 0 -35 4 -24 8 -47 8 -53 0 -21
-17 32 -23 78 -4 26 -11 47 -16 47 -4 0 -6 -19 -3 -41z"/>
<path d="M6656 2995 c-9 -26 -7 -32 5 -12 6 10 9 21 6 23 -2 3 -7 -2 -11 -11z"/>
<path d="M6840 3002 c0 -5 16 -29 35 -52 37 -45 43 -45 21 -2 -16 31 -56 70
-56 54z"/>
<path d="M7990 2926 c0 -26 -4 -45 -9 -42 -5 4 -11 0 -14 -6 -3 -8 -9 -2 -15
14 -10 25 -32 47 -32 31 1 -4 7 -19 15 -33 8 -14 15 -38 15 -55 l2 -30 14 30
c14 29 15 29 9 3 -2 -14 -8 -33 -11 -42 -9 -22 12 -20 36 4 17 17 19 28 13 87
-7 81 -23 108 -23 39z"/>
<path d="M7884 2913 c7 -49 1 -55 -16 -15 -9 21 -12 23 -15 10 -5 -22 36 -98
53 -98 27 0 26 55 -1 101 l-27 44 6 -42z"/>
<path d="M5398 2883 c18 -2 45 -2 60 0 15 2 0 4 -33 4 -33 0 -45 -2 -27 -4z"/>
<path d="M3145 2870 c-7 -11 -1 -13 35 -10 42 3 48 20 8 20 -20 0 -40 -4 -43
-10z"/>
<path d="M8826 2852 c-2 -4 28 -6 67 -4 105 5 114 10 20 11 -45 0 -84 -3 -87
-7z"/>
<path d="M5105 2829 c-62 -3 -6 -5 145 -6 252 0 287 4 75 9 -66 2 -165 0 -220
-3z"/>
<path d="M8700 2819 c47 -4 117 -7 155 -6 l70 0 -70 7 c-38 4 -108 7 -155 7
l-85 0 85 -8z"/>
<path d="M4808 2813 c17 -2 47 -2 65 0 17 2 3 4 -33 4 -36 0 -50 -2 -32 -4z"/>
<path d="M5580 2800 c36 -4 103 -7 150 -7 l85 0 -75 7 c-41 4 -109 7 -150 7
l-75 0 65 -7z"/>
<path d="M4997 2783 c18 -2 50 -2 70 0 21 2 7 4 -32 4 -38 0 -55 -2 -38 -4z"/>
<path d="M5833 2783 c9 -2 25 -2 35 0 9 3 1 5 -18 5 -19 0 -27 -2 -17 -5z"/>
<path d="M7981 2766 c2 -2 58 -6 124 -9 67 -3 111 -1 100 3 -19 8 -233 14
-224 6z"/>
<path d="M8388 2723 c6 -2 18 -2 25 0 6 3 1 5 -13 5 -14 0 -19 -2 -12 -5z"/>
<path d="M8603 2723 c37 -2 96 -2 130 0 34 2 4 3 -68 3 -71 0 -99 -1 -62 -3z"/>
<path d="M8135 2710 l-140 -6 130 -1 c72 -1 148 2 170 6 46 10 52 10 -160 1z"/>
<path d="M8665 2700 l-90 -6 85 -1 c47 0 99 3 115 7 36 9 24 9 -110 0z"/>
<path d="M5805 2690 c-3 -5 1 -10 10 -10 9 0 13 5 10 10 -3 6 -8 10 -10 10 -2
0 -7 -4 -10 -10z"/>
<path d="M8268 2673 c7 -3 16 -2 19 1 4 3 -2 6 -13 5 -11 0 -14 -3 -6 -6z"/>
<path d="M8440 2670 l-45 -7 42 -1 c23 -1 45 3 48 8 3 6 5 9 3 8 -2 0 -23 -4
-48 -8z"/>
<path d="M8318 2663 c12 -2 30 -2 40 0 9 3 -1 5 -23 4 -22 0 -30 -2 -17 -4z"/>
<path d="M4180 2635 c0 -23 -2 -24 -47 -19 -27 3 -61 1 -78 -5 -26 -8 -23 -9
25 -8 30 1 69 -2 86 -6 30 -8 31 -7 26 23 -3 24 -1 30 14 30 11 0 32 -9 49
-20 23 -15 32 -17 43 -7 8 6 51 14 96 18 l81 6 -82 1 c-57 2 -86 -2 -95 -12
-12 -11 -18 -11 -37 5 -13 11 -36 19 -52 19 -24 0 -29 -4 -29 -25z"/>
<path d="M5978 2653 c18 -2 45 -2 60 0 15 2 0 4 -33 4 -33 0 -45 -2 -27 -4z"/>
<path d="M5735 2640 c-3 -5 -1 -10 4 -10 6 0 11 5 11 10 0 6 -2 10 -4 10 -3 0
-8 -4 -11 -10z"/>
<path d="M5315 2630 c-8 -13 55 -13 75 0 11 7 4 10 -27 10 -23 0 -45 -4 -48
-10z"/>
<path d="M898 2623 c7 -3 16 -2 19 1 4 3 -2 6 -13 5 -11 0 -14 -3 -6 -6z"/>
<path d="M5438 2623 c12 -2 32 -2 45 0 12 2 2 4 -23 4 -25 0 -35 -2 -22 -4z"/>
<path d="M7028 2623 c6 -2 18 -2 25 0 6 3 1 5 -13 5 -14 0 -19 -2 -12 -5z"/>
<path d="M7283 2613 c15 -2 39 -2 55 0 15 2 2 4 -28 4 -30 0 -43 -2 -27 -4z"/>
<path d="M7213 2603 c9 -2 23 -2 30 0 6 3 -1 5 -18 5 -16 0 -22 -2 -12 -5z"/>
<path d="M2020 2585 c-69 -7 -210 -21 -315 -30 -104 -8 -194 -18 -200 -20 -18
-9 185 5 440 30 334 32 328 32 260 32 -33 0 -116 -5 -185 -12z"/>
<path d="M7018 2593 c34 -2 88 -2 120 0 31 2 3 3 -63 3 -66 0 -92 -1 -57 -3z"/>
<path d="M2318 2553 c7 -3 16 -2 19 1 4 3 -2 6 -13 5 -11 0 -14 -3 -6 -6z"/>
<path d="M6520 2553 c-19 -2 -71 -8 -115 -13 -44 -5 -154 -14 -245 -20 -162
-10 -245 -19 -238 -25 5 -6 428 25 493 35 33 5 80 10 105 11 25 0 54 4 65 9
18 8 18 9 -5 8 -14 -1 -41 -3 -60 -5z"/>
<path d="M7403 2553 c65 -2 168 -2 230 0 62 1 9 3 -118 3 -126 0 -177 -2 -112
-3z"/>
<path d="M2178 2543 c23 -2 61 -2 85 0 23 2 4 4 -43 4 -47 0 -66 -2 -42 -4z"/>
<path d="M7143 2543 c9 -2 25 -2 35 0 9 3 1 5 -18 5 -19 0 -27 -2 -17 -5z"/>
<path d="M1443 2523 c9 -2 25 -2 35 0 9 3 1 5 -18 5 -19 0 -27 -2 -17 -5z"/>
<path d="M7258 2513 c12 -2 30 -2 40 0 9 3 -1 5 -23 4 -22 0 -30 -2 -17 -4z"/>
<path d="M8190 2510 c-8 -5 -10 -10 -5 -10 6 0 17 5 25 10 8 5 11 10 5 10 -5
0 -17 -5 -25 -10z"/>
<path d="M8274 2504 c-19 -15 -19 -16 1 -8 11 4 34 9 50 11 29 5 29 5 10 -11
-11 -8 -15 -16 -9 -16 5 0 16 6 23 13 10 10 15 9 24 -3 10 -12 28 -14 97 -9
l85 6 -80 2 c-52 1 -87 7 -99 16 -26 20 -77 19 -102 -1z"/>
<path d="M1753 2503 c9 -2 25 -2 35 0 9 3 1 5 -18 5 -19 0 -27 -2 -17 -5z"/>
<path d="M4523 2493 c15 -2 39 -2 55 0 15 2 2 4 -28 4 -30 0 -43 -2 -27 -4z"/>
<path d="M4828 2483 c6 -2 18 -2 25 0 6 3 1 5 -13 5 -14 0 -19 -2 -12 -5z"/>
<path d="M4993 2483 c9 -2 23 -2 30 0 6 3 -1 5 -18 5 -16 0 -22 -2 -12 -5z"/>
<path d="M4703 2473 c15 -2 37 -2 50 0 12 2 0 4 -28 4 -27 0 -38 -2 -22 -4z"/>
<path d="M4923 2473 c9 -2 23 -2 30 0 6 3 -1 5 -18 5 -16 0 -22 -2 -12 -5z"/>
<path d="M6318 2473 c23 -2 59 -2 80 0 20 2 1 4 -43 4 -44 0 -61 -2 -37 -4z"/>
<path d="M4858 2463 c6 -2 18 -2 25 0 6 3 1 5 -13 5 -14 0 -19 -2 -12 -5z"/>
<path d="M8415 2460 c-3 -5 -1 -10 4 -10 6 0 11 5 11 10 0 6 -2 10 -4 10 -3 0
-8 -4 -11 -10z"/>
<path d="M4593 2443 c15 -2 37 -2 50 0 12 2 0 4 -28 4 -27 0 -38 -2 -22 -4z"/>
<path d="M6933 2423 c76 -2 198 -2 270 0 73 1 11 3 -138 3 -148 0 -208 -2
-132 -3z"/>
<path d="M7745 2410 c-35 -5 -17 -7 62 -6 62 1 113 4 113 9 0 8 -103 7 -175
-3z"/>
<path d="M6580 2393 c55 -6 81 -13 76 -22 -3 -4 11 -8 32 -9 l37 -1 -45 19
c-25 10 -65 18 -90 18 -38 -1 -39 -2 -10 -5z"/>
<path d="M7335 2390 c-33 -3 32 -4 145 -2 113 3 207 6 209 8 7 6 -289 1 -354
-6z"/>
<path d="M5441 2376 c-9 -10 -8 -15 4 -20 8 -3 15 -4 15 -2 0 3 3 11 6 20 8
20 -9 21 -25 2z"/>
<path d="M5387 2373 c-3 -5 1 -14 9 -21 12 -11 14 -9 14 8 0 20 -14 27 -23 13z"/>
<path d="M5480 2365 c-18 -22 -4 -31 18 -12 26 24 46 22 39 -4 -7 -26 11 -33
47 -19 24 9 27 8 22 -6 -5 -12 -2 -15 11 -9 37 15 53 17 66 8 6 -5 32 -6 57
-2 45 6 45 6 8 7 -21 1 -38 6 -38 11 0 9 -133 6 -150 -4 -6 -4 -10 4 -10 19 0
22 -5 26 -29 26 -16 0 -34 -7 -41 -15z"/>
<path d="M5341 2341 c-7 -5 -10 -14 -6 -21 5 -8 2 -10 -11 -6 -52 15 -115 25
-128 20 -27 -11 -17 -24 13 -18 16 3 52 1 80 -5 58 -12 81 -7 81 20 0 21 -8
23 -29 10z"/>
<path d="M6473 2343 c15 -2 39 -2 55 0 15 2 2 4 -28 4 -30 0 -43 -2 -27 -4z"/>
<path d="M7070 2332 c52 -33 340 -47 465 -23 l50 10 -60 -5 c-33 -2 -121 -5
-195 -5 -118 0 -170 5 -255 27 -16 4 -17 3 -5 -4z"/>
<path d="M5214 2295 c19 -14 18 -15 -11 -15 -18 0 -35 -4 -38 -10 -8 -13 41
-13 66 1 16 8 18 13 8 25 -6 8 -19 14 -28 14 -13 -1 -13 -3 3 -15z"/>
<path d="M2408 1953 c7 -3 16 -2 19 1 4 3 -2 6 -13 5 -11 0 -14 -3 -6 -6z"/>
<path d="M4350 1943 c52 -3 77 -8 83 -18 10 -19 37 -19 37 0 0 9 -6 12 -15 9
-8 -4 -15 -1 -15 5 0 7 -28 10 -82 9 l-83 -2 75 -3z"/>
<path d="M4500 1934 c0 -14 3 -14 15 -4 8 7 15 14 15 16 0 2 -7 4 -15 4 -8 0
-15 -7 -15 -16z"/>
<path d="M2093 1933 c9 -2 25 -2 35 0 9 3 1 5 -18 5 -19 0 -27 -2 -17 -5z"/>
<path d="M4610 1909 c0 -5 5 -7 10 -4 6 3 10 8 10 11 0 2 -4 4 -10 4 -5 0 -10
-5 -10 -11z"/>
<path d="M3535 1900 c3 -6 47 -10 98 -9 61 0 85 3 72 9 -29 12 -178 12 -170 0z"/>
<path d="M2012 1873 c3 -19 48 -32 48 -14 0 6 -7 11 -15 11 -8 0 -15 5 -15 10
0 6 -5 10 -11 10 -6 0 -9 -8 -7 -17z"/>
<path d="M1966 1861 c-12 -5 -16 -10 -9 -14 13 -8 43 2 43 14 0 10 -8 10 -34
0z"/>
<path d="M3045 1860 c-13 -5 -14 -9 -5 -9 8 0 24 4 35 9 13 5 14 9 5 9 -8 0
-24 -4 -35 -9z"/>
<path d="M7320 1820 c-22 -22 -40 -45 -40 -52 0 -7 14 3 31 22 l30 35 -4 -33
c-4 -32 -4 -32 17 -13 29 26 88 61 104 61 9 0 7 -8 -7 -26 -36 -45 -23 -47 19
-3 22 23 43 39 47 35 5 -4 1 -11 -7 -16 -8 -5 -24 -16 -35 -25 l-20 -17 20 7
c51 18 52 18 47 -14 -5 -36 -2 -37 40 -15 27 14 33 14 42 2 12 -15 46 -13 46
4 0 5 -7 8 -15 4 -8 -3 -15 -1 -15 4 0 13 -36 13 -61 0 -17 -9 -19 -7 -20 17
-1 15 -1 34 0 41 5 35 -103 24 -151 -16 l-31 -27 6 33 c4 17 4 32 2 32 -3 0
-23 -18 -45 -40z"/>
<path d="M2983 1843 c9 -2 23 -2 30 0 6 3 -1 5 -18 5 -16 0 -22 -2 -12 -5z"/>
<path d="M4951 1824 c-39 -33 -44 -63 -6 -38 23 15 27 15 51 -1 24 -15 27 -15
44 0 10 9 31 20 46 25 l29 8 -26 1 c-15 1 -37 -7 -50 -18 -19 -15 -25 -16 -36
-6 -7 7 -18 15 -25 18 -9 3 -7 9 7 21 11 8 15 16 8 16 -6 0 -25 -12 -42 -26z"/>
<path d="M5255 1836 l-40 -13 35 -7 c19 -4 64 -3 100 3 l65 10 -58 -2 c-42 -2
-56 1 -52 11 5 14 2 14 -50 -2z m22 -12 c-3 -3 -12 -4 -19 -1 -8 3 -5 6 6 6
11 1 17 -2 13 -5z"/>
<path d="M5142 1833 c-14 -6 -36 -43 -25 -43 4 0 16 12 26 25 10 14 17 25 15
24 -2 0 -9 -3 -16 -6z"/>
<path d="M7163 1811 c-3 -14 -11 -20 -22 -17 -59 18 -71 18 -78 0 -4 -12 2
-24 23 -41 41 -33 53 -29 19 7 -34 35 -18 40 39 11 29 -15 36 -16 32 -5 -7 19
13 18 37 -3 19 -18 20 -18 4 13 -9 17 -23 36 -32 44 -14 11 -17 10 -22 -9z"/>
<path d="M2120 1810 c-71 -4 -30 -6 127 -5 127 0 224 3 215 7 -20 8 -190 7
-342 -2z"/>
<path d="M2578 1813 c6 -2 18 -2 25 0 6 3 1 5 -13 5 -14 0 -19 -2 -12 -5z"/>
<path d="M3483 1813 c26 -2 67 -2 90 0 23 2 2 3 -48 3 -49 0 -68 -1 -42 -3z"/>
<path d="M5170 1810 c-18 -12 -2 -12 25 0 13 6 15 9 5 9 -8 0 -22 -4 -30 -9z"/>
<path d="M3700 1800 c47 -3 96 -3 110 1 14 4 -23 7 -85 7 l-110 -1 85 -7z"/>
<path d="M3872 1783 c37 -2 100 -2 140 0 40 1 10 3 -67 3 -77 0 -110 -1 -73
-3z"/>
<path d="M7690 1763 c-19 -9 -30 -18 -23 -20 7 -2 21 0 32 6 31 17 72 14 65
-4 -5 -12 2 -15 29 -15 20 0 44 -3 54 -6 15 -5 15 -4 3 5 -8 6 -27 11 -42 11
-16 0 -28 5 -28 10 0 6 5 10 10 10 6 0 10 5 10 10 0 15 -70 10 -110 -7z"/>
<path d="M4526 1743 c8 -8 21 -12 29 -9 26 9 16 25 -14 24 -26 -1 -28 -3 -15
-15z"/>
<path d="M3275 1719 c11 -4 49 -8 85 -8 82 1 68 6 -30 12 -43 2 -66 1 -55 -4z"/>
<path d="M6893 1713 c37 -2 96 -2 130 0 34 2 4 3 -68 3 -71 0 -99 -1 -62 -3z"/>
<path d="M2883 1703 c-13 -2 -23 -10 -23 -17 0 -19 44 -12 48 7 2 9 2 16 0 16
-2 -1 -13 -4 -25 -6z"/>
<path d="M3670 1698 c-14 -6 -79 -14 -145 -18 l-120 -8 120 2 c85 2 130 7 155
18 39 18 30 23 -10 6z"/>
<path d="M2927 1693 c-12 -12 -7 -22 8 -17 8 4 15 10 15 15 0 11 -14 12 -23 2z"/>
<path d="M3378 1683 c7 -3 16 -2 19 1 4 3 -2 6 -13 5 -11 0 -14 -3 -6 -6z"/>
</g>
</svg>
